<mxfile host="Electron" modified="2024-03-11T02:15:32.153Z" agent="Mozilla/5.0 (Windows NT 10.0; Win64; x64) AppleWebKit/537.36 (KHTML, like Gecko) draw.io/21.6.5 Chrome/114.0.5735.243 Electron/25.3.1 Safari/537.36" etag="FgiJ9tUO2-cuXlWmVXNF" version="21.6.5" type="device">
  <diagram name="페이지-1" id="mCVLXEnjLvgatP63elPW">
    <mxGraphModel dx="1434" dy="844" grid="1" gridSize="10" guides="1" tooltips="1" connect="1" arrows="1" fold="1" page="1" pageScale="1" pageWidth="1169" pageHeight="827" math="0" shadow="0">
      <root>
        <mxCell id="0" />
        <mxCell id="1" parent="0" />
        <mxCell id="EAp16Kz88traqYo4ZruH-1" value="" style="shape=image;verticalLabelPosition=bottom;labelBackgroundColor=default;verticalAlign=top;aspect=fixed;imageAspect=0;image=data:image/png,iVBORw0KGgoAAAANSUhEUgAABQQAAAGCCAYAAAC2OM5NAAAAAXNSR0IArs4c6QAAAARnQU1BAACxjwv8YQUAAAAJcEhZcwAADsMAAA7DAcdvqGQAAHL4SURBVHhe7d0LuNXUmfj/F+QiqJ0i4EEEbEUHah9Pa9URrY4+KNMB5oj8nFIrOlakQlvF0QdvPdbfVKVqRa3ajoBK1YqdaqdcTsFaL386tYIzXir+VByBykXgyEGsCsjtnH/elZW9k+wk+3Jue+98Pz6RnWQnO2etZGXlzVpJlxaHhOgkb2hubs4M3jQAAAAAAAAA5euAAw6wn3JFBgSVN9kLAvrHAQAAAAAAAJSv7t2720+5YgOCHv9sgoEAAAAAAABA+evatav9lKvLli1biPIBAAAAAAAAVaRfv372U64u77/27wQEAQAAAAAAgCrSv/Y79lOu+LaDAAAAAAAAAKoOAUEAAAAAAAAgRQgIAgAAAAAAAClCQBAAAAAAAABIEQKCAAAAAAAAQIoQEAQAAAAAAABShIAgAAAAAAAAkCIEBAEAAAAAAIAUab+A4P++KF/71v3ygz/usBP8dsjv7rzfzPcPc/7Xzi5U4m8U4IO35QetWR4AAAAAAACoMG0SENz2x98VHtAzQbh5ctdhZ8lTD307O3y/Vv7zR/fL137VaL/osAE7f9DQDP7vJLEBw/CQHABslDn6vTvflm12SkZrA5AAAAAAAABAJ2vDFoKDZUg/+zHBW0//l/y3890rRtXYKdbfnig/Ge38++S78pY7ReTgYXJTKGio/m7gQebfvJx1+oOOZv3Ob3/1i73NbAAAAAAAACBt2iQguHnjevspvwEDBzv/Xy93PR1q5ffB2/LYk/phm6z9wEzJsa3RbbM3uKaEgN7/vij/6qz/7y7+e/lHsS0Pr9TgZIwV/yXn2haFmeFHK+xMAAAAAAAAoDK1QUBwh6x9z34sQJ9Tj5Vz9MOTi4LBNhucMwG7g/ULYY3yxIMaeCysJaKf6dJsg3n/vfHjbMvDO/9e/s5MjVD79/IfvtaFZrAtFAEAAAAAAIBK1fqA4Afr5U8m1hbR6s/x3w/OMwG/7HP3auTrF2srQZFzvu8F2ybKFRprq/17ufLU6NZ/2/74qvynfhh9bE7AMPc3PO7zAM/VQKIG+DSgZwKRL2a7JQMAAAAAAAAp0sqA4A753UPasq9WrtAg35OLcl4s8ncXTzRBv5tiAn0F+eBtudO0DnT4nzFoRf6GeQHIIhNENPOvHCZ99JmCplXgCvlXgoIAAAAAAABIoS7vv/bvLfZz0d761f3muXza0u+Sv90hv7tznty1wo7Li6abrgbjTKBOA3TFPINPW/RpEM+08tPA3mC54s5jZd2V+rlWfvLQifIFu87Mb7QJ7/fite3vAQAAAAAAAG2rf+137KdcJQYEs8G/YHAsO90TGTz74G35QdQLPUafJU99w/f2Yd/33KBjaNroWvnPJwsLCOpzBE3X4QANMv5jzDMLXW7QM//3AAAAAAAAgHKRFBAsrcvwBx+LHDY4IhDXW/7xym/Lf9w5Mf4FHNqqTwN6GvzzXtahg3bl1ef73fm2uO8SbpQ5JvCnwTgbDFT6QhDnu+c4v/31ge43k2mQUp8jKGY9/t/8yej1cteV9+d0cwYAAAAAAACqVau6DCeK6c6b1OKu6NZ4BXUZtl2Aw60Pldfa0Mw7KKd1Yz6ZVosAAAAAAABAGWn7FoKt8IVjteVgxBuJP3hbHnvS+bf283Jim3bNPUiG6E8++ar87gN3iuetp23X42M1UOi2bvS3IMw3EAwEAAAAAABApenwFoJGoc8QzKeIl4qU+gxBAAAAAAAAoNK0w0tFAAAAAAAAAJSrsuoyDAAAAAAAAKDzEBAEAAAAAAAAUoSAIAAAAAAAAJAiBAQBAAAAAACAFCEgCAAAAAAAAKQIAUEAAAAAAAAgRQgIAgAAAAAAAClCQBAAAAAAAABIEQKCAAAAAAAAQIp0aXHYzwAAAAAAAACqHC0EAQAAAAAAgBQhIAgAAAAAAACkCAFBAAAAAAAAIEUICAIAAAAAAAApEvtSkaamJvsJAAAAAAAAQCXp16+f/ZQrMSDYe98qOwYAAAAAAACgUvSuGWE/5aLLMAAAAAAAAJAiBAQBAAAAAACAFCEgCAAAAAAAAKQIAUEAAAAAAAAgRQgIAgAAAAAAAClCQBAAAAAAAABIEQKCAAAAAAAAQIp0aXHYzwFNTU3Se98qOxZv7959svPTT2XPnr0SsyqkVJcuXaR7927Sa//9pVu3/ezUeJu3H2I/wW/AAe/LnuZu8snuA2T3vh7SIl3snHTp4vzlPfbbLQf22C7du+61UwEAAAAAQJTeNSPsp1ytCghqMPCT7dtNwKd79+7StWs6AxWI1tzcInv27DEB4wMPOCBvUHDr7sOkb9++dgxq69at8jfd35dP9tVIr94H2OMsnQ17m5ub3f1px3Y5cL9G6dZlj50DAAAAAADCkgKCrYosaKCnd69e0rNnD4KByKH7hO4buo/ovoLS7Nz3Gel9wIFOWvZMbTBQ6d+uaaBpoWkCAAAAAABK06rognYT1i6hQBLdR3RfQWn2NPc0LQPh0rTQNAEAAAAAAKVpVUBQexvrc+KAJLqPFPJ8Sf0OQ+7QbJMual4aB+WlCQAAAAAAKF56+x8CAAAAAAAAKURAEAAAAAAAAEgRAoIAAAAAAABAinRp8R7KFdLU1CS9962yY9G2fvCh9D34s3asWGvl5ze8IoOmjZdR/fyf7WxDpz8nK+yYp/abF8lFX7AjISt+9XP5+Rt2JOOzMiZn3SFvPSdX/HKtHRGpGTlerj3d+9s+lKfvmS8v1/qn5WHWJ3LRjSOl1k6K1PSa3HrPVhnjfK9m6Xy5tfErctc3Drcz20hH/EYehewrTbsGSt++fe1YJ/rzbDnrhsV2JMLom2XRd/y52iiLr/q2zH7bjkYYe+MimfJlO1KErVu3mn9bmy67X58t365fLNvsuEgfGTvjfplyTA873kqaZvMGyf23j5UaO6k9abr067nRjgEAAAAAgLDeNSPsp1ztHxA0wag1clxksC8hIGiWe0UkEJhTNkj4xZGhoJYbtFsiX5Frp30pGJSwwb7YQGLONoYDgOHxAgKVOQFBu31NZkTE2/48wbroAKfVL+JvdTSG11NIQNCmd6MdNXLSuHSF7CtbPj20bAKC4x4bLHN+PKYNglsrZPa4H4j8cGGnBgQbf3uN3ClXym3/5P5F4fF8VswaJz940o5kDJcp998mYw5xPkamWaMsufqSxEDpmFakS//9N9kxAAAAAAAQlhQQLNsuw43/b4009vuKXJTTIu9wueibh4u8sToUkPurbGgSqR2VGyCTL3xFxvRz1tn4oZ0QtOLZV6Txi1/xBSw/K6NGHS6NK9YGA2QZzjbceJHclRnGm/UbGgi84eeB1oYuZ53TfMsUGGir/YZvGTtcO1LTxNmGiGBgKTSAeIUJiAZ/5yLRvyU38FkJNOA1btw4uea30TmYBl4a6HDJ/Stl5f2XxI4Xkk7Dvz1HFi5caIebZIydHq9GxvzY+354KGR5AAAAAADQHso2IFhT8zciTa/IkrfshIy18nMNtvXrGwqGaYDsK9L4y5+7AbnAMF+W1IwsvLtvXtpCMLR+r+XfF0a6ATUNWnq09V3g+3a457WYgGMcbWX4c7n1ub9J7IqsgU+TfgVZK0ue+1Bqv5nbpbr2GxrodOYvjQ6kwqMt4dzAWu7wA1livwUAAAAAAFAOyrfLsMN0fX0uKhilLfTyPJuvGDnb6HYJbsx0V47uMixRXZADzyIsYDsL6c4b7m6sYrvz+rf1r2Y73RZ+7rbk/kbC35Lzd5euo7sMa+s4bQWnrdoK7Rabod1f/29CGG/YlMiusevPK637a5LWdhn2ugZf6fw/6d98aaRdhucN8qeldoWeJ4P9XYa9NMukD12GAQAAAADoLGX8DEF/d9SoF3/kBgrNM/XEHwyLCJblEfkswUAgL99LRZKCaCKNTR9KzZZXQs8QtNvuPQ8w8AxB37P7MoG+UPqEAoD+dQW31S7n/36eoKMbeJWc9Hd/o22CrxUVECxa/sBXqdtRUQHBmGcI/uHv2z4PCAgCAAAAAJCsMl8qYuROzw0IdoTogGDcs/VMwFGfv+cLCJqg24oj7EtA3PVtGOV8r38hLQSLoIHNp51tcLZRdP0asCykFWI4MKliWyEWr70Dgl4AMJ/EwFy+loFhOS0FrcjgWGnKKSBY6ktFCAgCAAAAANDxKisguCXYUi+vzJt287cUjH3LcF7hgGABQm8Z1kDmkprs8pk3AZ/xYWSwLtCaMC+vdaUv0OgPSBYSEGxnhewr7+8cUHrga/E1MuX+hCZ61rBvz5bbxrZVcKpRllwzRebk/9mMMf+2QC4pootsqwOCTroUFBBsbZr8eY6c/ctBMvu2UEAwX/r8442yYGrx7U81XQ7ptdmOAQAAAACAsDIICIZanjlqvzlS5Jd5WgjGLFt8yzVfoCwhIJgJ0uWsu4SAYMCHsuJX/5/8vLGVLQRDQcYwE0R0lnd/wzd+nsjPE38j6u8rLM0K1d4BwTAvQFhyAPD9JXLNJXMkJ5ZVYgCrVJUdEPSskDlnz5NBc7zWhEnfLQwBQQAAAAAAkiUFBNv/LcP9viTX6lt3Q0PeIJMGv+55RWq+GV52vIxp1HnhN/RqACviTb5mKOIZg2846y50ed3GnO/6B69b8WfNG3svqnnFvm3YWV/NyDYJtHk0mGme92eDgcq8Jbhmjaz4f3YCCqMBq0vmyNB/WyALFviH2XLJX26Qs69ZEtr3NOB1tpydMMz5s/1qRdMWf9XytwAAAAAAkF7t30IwVkyXYdtCMPjMvZDIbsitb9HWpi0E87TmyyimO2+h6wyL+Y1SuiXXPOsuU2z360pqIWiW/a/ToluwmZaDf5DTvNZuebndZjd8s7iuwp7yaiFY+N+yYtbZcsPv7Ehew+SSgtPTRQtBAAAAAACSdW4LwRLV1PyNSNMrsuQtOyHjQ3n6sVeksd8RUht4JiGKVfuNcOvLpMENvnrLtGXrxnJTc9hQkbfnyMKclnCNsuSOOfL2sNPkuCKCV2lUOzXcujJpKC4YCAAAAAAAWqcTWwj6xTxDMO5tvpHPEHRb8SV2Dc7z7EHTQvC5D+1YrpqR7dBC0Ce+haJVagtBn7y/0U46uoVg62k34Bsk553DRT9DsDxaCMa1AMw3P8j9W+JfElJ8S79S0UIQAAAAAIBknftSEcBRyL7SuKOmjAKC5aG1AcE9r8+RS254UuLD3J+V0Tc63zmmux2vDJouNb1zXjcEAAAAAAAsAoLodAQES9PagGC1IiAIAAAAAECyinyGIAAAAAAAAIC2R0AQAAAAAAAASBECggAAAAAAAECKtCog2KVLF4l5BCGQofuI7iv56PcYcgdpaZbm5ubIeWkcNC00TQAAAAAAQGlaFRDs3r2b7Nmz144B0XQf0X0Fpemx324nDffYMWhaaJoAAAAAAIDStCog2Gv//WXHzp2ya/duaW6mpSCCtCXXrl27ZceOnWZfQWkO7LFddmz/xEnLXW7ruJRy96ddJi00TQAAAAAAQGm6tGgfvAhNTU3Se98qOxZv7959svPTT00rsJhVIaW0m7C2DNRgYLdu+9mp8bbuPsx+gl/fHu/J3pbusnPfZ2RPc09pkfzdr6tRF+cv7951l/Ta7yPp1oUWkwAAAAAAJOldM8J+ytXqgCAAAAAAAACA8pIUEOQtwwAAAAAAAECKEBAEAAAAAAAAUoSAIAAAAAAAAJAiBAQBAAAAAACAFCEgCAAAAAAAAKQIAUEAAAAAAAAgRQgIAgAAAAAAACnSpcVhPwc0NTXJzi0v2TEAAAAAAAAAlWLwF/7RfsqVGBBs2fiEHatcT/3hdfnaacfYscpV7n+Hbt//mfAvdgz5bP3gQ+l78GftGKoN+VteyI/yQn5UN/IX1YT9ubyQH0A8jg+oqP2gd80I+ykXXYYBAAAAAACAFCEgCAAAAAAAAKQIAUEAAAAAAAAgRQgIAgAAAAAAAClCQBAAAAAAAABIEQKCAAAAAAAAQIoQEAQAAAAAAABShIAgAAAAAAAAkCIEBAEAAAAAAIAUISAIAAAAAAAApEiXFof9HNDU1CQtG5+wY5XrqT+8Ll877Rg7VoyPpeHfbpXpS78oM584T+r628myTu47fY2MWHq6HGundITS/46Oodv3fyb8ix0rxjZZfMNMmbXKjqozL5aGSUfYEZ/XG6TuFpEZj9VJrZ0kskZmnfegrL5wutz+tT52mkjjU7Nl8nujItaj339aBt89RcZm8jSG+b2NMrWQ7xZp6wcfSt+DP2vHimC2abkd8QzJbGP83104s46H17kjR9bJAzeOkBp3TFbMrZdfHBZMa+QqOX/z0LyZKRMKTv9i94dqzd/S88Mtn9Z/fYZM7Yjid8tyueryLXJBoIxT/nIrosx0jL2ug7axDXT48RFZbo4InUvy0Ly5V2S6rzwsWES+6rFW/4wdCQuVu5WmVfkbmVciw+05PlhG5R4L2eOgiHM9kKBV+7M59htkpR0N8/brjJj935Wt68WJKlcizw3h7fLXu2PPQ+WhdeePUJkRuN4opszQ774hJ4fSiPozOlvrjo/4Y6DY64liv4+2FbUf9K4ZYT/looVgoi/KP5z+hkx/0hbuaDdaYWl4zB1myINSd8NyabTzMo45RaYeuVxeeN2Oqy3vy+ojh4i8t81OUNvkpT+tk7EntLIQOqbO2Z5soagn86ue8v9OJ9FKhk2rhsculrF2chwtlOvOq48ZGmSF/Z5yKzMDnQtld/0PfPU1mRyVF2hHekL28me2LN5iJ8fRCwjv+3nyKnJfIH8rkr/MbLi7Tlbfkq68LLQ8Nvv8E/19ZaYdrhOpD5R//uMuOxRe5hd33NZOCm1PZrviK2ypYM67wTSZcabI0IFRF9F9ZOyNwe8WHBTXoIcvn3OGuWvsFz3R+4c3zPLXSwBP/xFyu2//9A8PXOjUXaME6njekK+up4GueqmXi3OWE+fckFOOhbcrFRftbjBw6Ven2797ukx998H8ZbwpK4J15SjUn5FOem4s4FoFZY2AYB7/MGGC/MPc56WBHb3D1E5yKj6rXpOXctK8jwz+nMjqjdmTd+Mrr8nQr0+Q0999w3ey3ibrV42QkyuktUx7q/nalGylzz/cXSfD7XdcNpB6XfaOZ83XRsXkBdqHVljdFq8mj64bKLMuT6iIakXVtJp187SgCqjeEff2AR0quCUSLHNxp+Vmg8wsh5sWZaTxvZgbegP6O+Wf/wbTETLVf1zYC/DoQFSYe9yKF6S9+0uy9PLkCrIGNKMCS/Gtg9LKOZ+/az/6+W+EhIdCLsLzBGqGHxaV79pCK3qZSmmdi/IRWzaVYsvbsnSVs3/WhQN7Trl23QhZ+ae37THhBg4jj5tqv6g3aTRCLsi00OsjY7/uT5vWoP6MarHOue7ILR8yLV8jDZTBtMSvaAQE8+n/JZk0KamVoHYtrpdhp3vDUnnVnYFWWSfrN9uPPrUnBE/eje+JDB6ggcKNst476b7+hiw+sn8BQQ57V+N1f0sBX4Uoc1fQbRmg3TBWPjzTfK+sWwM886DZxsxdz7gLp4RuLOgkrz8vs6ROpnsV1qhWsT4rGhpELjyFCmhnCR1bwZYGuS2KzPyclkltdRF2hIy/cIisDLSWrlZukKiQYF1tXZ0MX9UgkwNp7gxa/h1ZJ+PjAjna+lwKvLFkj9vMuvo7F51nrpOlryTnhXYXjAouEaT30xt8Q5zzvB31RLQkzAykHypEYTccCtB/mJx+pHMh3xDRsvWW5TL8q8PsMZHbqjY7jJL1Ggigbhi0eYtzrijkmgKoBtE3vmJbNJu6EiodAcECHDs6rpWgfc7gEVPk7aUzzPCnH2yUcwkKtsqKuQ/K4rgLtWO+KGNXbbEBwTXywrtfkuP7a6BwYObiq3HjRl/lJx+nAnWLPivFK/AkokLlthzRbkveBVxZtwawLcACzymJ7IKig//5J33k+K8OkcW3ZFukNT71tJMXbhqj/em+K587xLfvunnibxXrBaXr5r4WERTpI4Odi4KoYDramHnWkz5j1DuWLpahTt54QUFTjoVaY7rH5DCZ7psWXeaUpmbgQJF332+D1g5lzrT0CLYWj6UtwbQbrr8MNK2jR8iMhMBRONieJPe4dfLisPzB2cyxnDNUeUudGNGPt3COI6/FQk433tzWTsGbdV5Lh4hW1gktDLUlRJsFaoBIMS1fVdQNDHMcJHEDfeaRO6HltOVy+Ll1OceaaVVrW0nn9B6pEiZoulx+kblx55QfT/iDpdFW/M9yJ0+864441J+RTtpTb6V4jXKyN8KTWxSi3BAQLIRtJfj7FR/bCdaWNfL7paPkP/4lGzXvd0adzDz9aVn+pp2AgizW51/ZQqT+3eCDeIM04GFbTOldCe8ibIBzxjUXX26z/WIq84Em/pVwQR2oLOarJBZHuxc/cOFGqbfrn/ynL1X0w+2rUaZV0aSYu3XoEHqRMPzCCb4HL/u7Zq2RF56J6r7l6N+H46mVNFi38swRMvThx3MCZ9mAeSuCrK83RL/wI1P2JnTjL1DsMwTNkM4XYQQfbzFdph4ZelZm6DlnjU89LrM+5wu6m2dp+vPGa+kQfPC/EdvC0P1doHWSuubq4L7Ywqv7ZlqXJ7V8LaBciCpXol4oMtP3rDsdZnxOHzex3L2Yr9oWgho0nS6n/8m7EePkgVN+JL7kw0mrXzjn8rFnOvXinHPKcltXdm/gUH9GdSimy/Aamf+wyNQLB8qse303FZwhtkUhyhIBwQJpK0G56WVa/rWTQKU/8QSabTFlnh/ovThE7/yZ5wgW+/zAiK5I5SyysljAxWPkHWd3CHZzDF2UhfJCK5u8Ia395AakkwLcuc/UNK0OorrXoWOZLhTxz1TxPz+uLe+iRrVUqzomWDdCZkyqk6kRz9jMBMxPeCNbzulz+fxloLng9S7mdPCvw+1iN/Y6t8VnoMVZppVhMMAUdSNJnw8W9Ry66FZwMQMPpHf5WvP5A7XRz2DzPT6kIG7gJpvPSWVo9IWSDuHzKNIuqWtu7tCh9ar+I2S6L3Clg96In/61EdXdQtAI5UvgJoMGM/z1aadsuFdbik+QqZOcIecFJPqmel1Pdhnqz6hs2YBe5BC6Kef2hBklY79WZ28qcB6sVAQEC2VaCT4tc59lZ+9sevGlXbHc5wfaiSY44lwIvO5ciJ/5xYK6eaWGCSKGWlv4utDlVlByn33mH7jwaUf6zEDxnVT12WQJAW59Ppo8/HwmmEEXlTLR/xAZGhmYcI+tXxzme3Zcm71VVu/UtsHb1cuZeYmOButsQM4p29wWGREt9hJb2oQHL8Cn+eO+1GfqMW6LT23Bk/eZsfa4ne99z7YqOf0ruRd/wVZweQZal7h8eamP7vDUTnLfEpo5P13eIEOva2XrythgfvKFEhf6aJWcZ8smDKEbBbEvKIoYvLIspxzylzXmhTsRrWqrhd5giLzZouV/9nENK+bO9D3TWQOJwceCRKP+jMpUbDmiNzfdm7NunVNfCKrHR6t6Z6DTEBAsgttK8HH5iR2X/kfIP5z+tJz7SPYuddOzDTJ96SgZcbSdgLanzxF85kGpt88P9NQcJjLrlgaRyLcDVhctiKMqFqaSF7qDU7z4Cx//xRjaQ7bSaU685hl1CRVz83w0Ka6Lin3pTHigoloc84KjQJdV50Ig8/D2I+TkM9fZLhSebbLi+XdltfgDRe4yrWYuJr1Alp1WbfRvNAGfYBc4LfNMUDChEhrXKi8Q6DOt0Nw0zAR3NBBlgoLORWLicznd41a8R19c/pqcfndyYCq58t36LsmVTNPmqqfEtOQJ78/BVja5rbBavf9XezAEHSwYZIpl9rvgvpx51ml4ekTLM2+e/1nXOpg3ZvvGg8dHXLfmFJQ/eZ7TqGVQ7uOLtG6s9bPcR1VkUX9GZYp63EC4PPGG8Rtny2Tz2AH/uVL3fb1J93T+8g5lp0uLw34OaGpqkpaNT9ixyvXUH16Xr51WSg1RXxjSIPK986TOV6l/9ZF6OXfuKPmPpafLsWaKfbHIUjPi8M17c6kM++7T8q//PkO+08oAYel/R8fQ7fs/E/7FjhVDKyQzZf3Xoyvy5qSsdyBCFXQzXS4OBr/MBWPoQsxeRErmIk8rZ0/LYPMd/2f36+ai8In+biXALKsvHLG/rfPsxbsWkK1pEbD1gw+l78GftWPF0wvcmTIheRvs317Qs2C0tWCm4qPpEv9swtb+7WnQ2vyNU1C+++j3J783quAgsR5X2nqt2vK39Pxwyyd91lOAvixE09RXJqjgsZG7rLbQdStS3k2kETL1wo0yy8ujcJmT4S+rorZJn5WWHIAqJx15fERf2Dls+egFGFe8vkZqj0k4TvT794pMD6+nEBH5Gnusxe4DlaO1+VtUOVR0esUc0zHGXjddBj9R6Pcr6zhEYVq3P0fUMwtVQlkQPnbi6wzucbD0qxHHmTmvSU69u1y0+vzhr+fbSa5i8kq/+4acnJNG1J/RudqyftWaa4Jirz/QtqL2g9418T2SCAhWiOoNCKZTawvsYgNDxWlFBRZGW56Q/YrN92JPyK05+Zez9soPlKYjjw9zDES1nDUX2/6bRXno9wkIFqS1+du+AUGgOK3bn8s1IOgGrgItoj0mIKi9E8qzDtjq80e7BwSpP6PztGX9ioBg5YraDwgIEhBsdwQEi9PaAtsUtHEvIwi09iuFW1GMfXtxq9df/dryhOwXX7mPVuwJmYAgOkJHHx/R5WWRrbnaISAY+SZjI7dVfCVpbf4mp43Da6GrTNrGt4QfG+piDhSrdftzK+pT7RoQdEUea2Vex2v1+SPUsj+o0PNCUkCQ+jM6T1vWr1pzTVDs9QfaVtR+QECQgGC7IyBYnLYssFF+yN/yQn6UF/KjupG/qCbsz+WF/ADicXxARe0HSQFBXioCAAAAAAAApAgBQQAAAAAAACBFCAgCAAAAAAAAKUJAEAAAAAAAAEgRAoIAAAAAAABAihAQBAAAAAAAAFKEgCAAAAAAAACQIgQEAQAAAAAAgBQhIAgAAAAAAACkCAFBAAAAAAAAIEUICAIAAAAAAAApQkAQAAAAAAAASBECggAAAAAAAECKdGlx2M8BTU1NsnPLS3YMAAAAAAAAQKUY/IV/tJ9yJQYE+/XrZ8cqV0NDg9TV1dmxylXuf0e1pHNHqZbjC9HI3/JCfpQX8qO6kb+oJuzP5YX8AOJxfEAVux/QZRgAAAAAAABIEVoIVgj/37Fr1y7Ztm2b7Ny5U2Kyr2RdunSRXr16SZ8+faRnz552an4dtX2VKCpNuYNT3cjf8kJ+lBfyo7qRv6gm7M/lhfwA4nF8QBW7HxAQrBDe37F7926TNxpg6t69u3Tt2raNPJubm2XPnj0mmKf536NHDzsnWUdtXyWKSlMK7OpG/pYX8qO8kB/VjfxFNWF/Li/kBxCP4wOq2P2AaE2F+eijj6R3796mpVl7BNt0nbpu/Q39rWK19/ZVotamKQAAAAAAQFsiYlNhtJVZt27dTFfc9hz0N/S3itVR21eJQ6lpCgAAAAAA0JYKCgju3bvXtGzaunWraYKYNOh39Lu6DNqeBpb0mXTtTX9Df6tYHbV9lajUNAUAAAAAAGhLeQOCGtj7+OOPTZdHfSmC9kdOGrwXJ+gyBAU70e5GeenXd8j1k78p/3zWWXLWWf8s35x8vdzx65ekcbf9ThXbvHmz/OxnP5Pvf//7ZtDPmzZtsnMBAAAAAADSK29AcMeOHUU9E87/vDRdtuy8fI+cccYZcs/LdrwKbX99rvzr+dfLkl3Hy6TbH5ZfL1okixb9Wh6+fZIcv2uJXH/+v8rc17fbb1cXfYHHfffdJ1OmTJGnnnpKNm7caAb9PHXqVHnkkUfsN4FKsFkWXnaZLNzsjS6Uy5zyS8uwyHIsX/lml79svrfCtHlV7vGlX2a4+1V37t067kvvDM0HZ95lC51POhrMBx0CaW7zwR3ucX41aPP8y5zpUb+TMC/POiuZ+zfbv83mhaF/c2Y8Ku+8dAodJw43L+3g5ZvSvPOPox1F5Jk/fx2BvHeGYNmky0fv6+Hl3CG7DwTyP/Sbpc5z9zNnOvtPOuWU++7+pvui7rfev57YMihQrsXsy958yqtkoTwJnIcD80Ln1KTlPPY7BdeXkn4vcP5OqKOFJa1TBdar82PqOHbwfjd23/TKuMh5MaLSKd92R3C3KVjex29nUOJ5JLAt/rQP/a1mqOK6lf9v0zTxp2cojby0LqhsCw2Z9A2vUwdfuafrCBwHvn3Z/1vmb8g5F6NoTvomaomxZcsW829TU1NLc3Oz+VwMXUaX7WyLFi2yn1paNv3m0paRP1nQsuDSkS13v2QnVgjv71i7dm3LJ598Ejs0Pn9HyzkTftjy9LvR883w7tMtP5xwTssdzzdGz7eD/lahCt2+9h5uu+22lpEjR7ZcffXVLW+88YaZ9vHHH7c899xzLVOnTm257777zHh4uY4avDT1ji9Up7bL301OeXVpy4JN+vmVlrsvXeBMsTYtaLl05N3OVDuat3xz13X3Ty5tufQ3mbWkQjY/nDT0pVnYKz8Z2XKpk0Y56WPSemTLSC/9dTwnL3z5lPns5Uv2F81v/GZB4Due2HmhvG556e7stlSggo8P/Tt9aRcQyAP/cZJHOO/Q5pKON3cfd1NfPwf3Y81HZ1omz+OPVz2uYsuxwPHhrjNTJpY6z2yLs4/9prKPPRQvurzK7pvevujfJ8PlfmBc9zM9nzhD7rk6tN9RXuUIlC/+tAmcJ5OO7aTlPLp8MfWlPL/nP49F/l6UpHU6c3Wf8v8dOdy/IXxe1OX8+52/TN7klG/+7/vnRYtKp+TtjqTf+cndgfI+aTsDctLTltXmq/n2kULyobJkjo9wuvvHNR3C6RKRR5oHmubev/loHvnzLMDksS+X/N/NyZfsPLOf+48fFMR/3nLTcIEdi5a3yZ/zHSnlmXDl+Ly0AePvlWcvP9GOVSZN09jhkxfkvh+tlgk3Xykj+nrTX5NZpsvwLHnN+17fEXLlzRNk9Y/ukxc+8b4XPRQrah0dNbz11lumJWBtba1cf/31MmTIEDNdnXDCCXL77bfL+eefL++//740NjbmLN9RA1CaY2XaveNkgB2TAUPkKPtR5SvfNs+fIc+MrJcJQ+wERDpq5Jkiz70YuBO9edkzImeNk6PteI4B42TSWW/KM8ucpV7+oyw8a5KMsxk1YLzzedEfM3dmj738Wbl3fHQmxM0zv3/pBGcPsI6bINPkGXnRv5EVKnxn3wwF3A02aTLyxOzx4Im6K+0fJt4jb9qvouMde8o4eXPdJpNPcxeNk5n+Ms35NO7emc7xMregFiVxXn1+oYz7lrdeZ53O54XPu/tUqfNM+fvsvTKO8hNq8zp5RxbKdKdMmfjT3BJl07o3ZdwpmRJbBpx0phy9al32vHLWTHn22Wdl2nF23NLz9D1O6T4hNB1REupEm190zpC+dAycM5PrUqro+lK+37s8uy/IgBPlzKPfkXX5yrjEdb4qj//0qFD5WRitK/r3u0OHZGs2A8ZPy9RdVKa8drjn6mBrv8h0yrPdpgVj4BzvTLtaZOblp9pxV9J2Bry3Vt4869Rs/cj5dKpTH1v7nvs5X15Xq83r3pGj/XWk406VcW+ulczDs968RyY6eRFoTdlJgnXc8LkXrVVI/Kugl4qgMmz4/aOy5tzLZMyhdkKSQ8fIZeeukUd/v8FOqHwaDFSTJ0+ODWLrcwSvueYaM+hzBoH2Fe6S4KtM5XT1cCcHAiR3v+hOjGICT/5KUALn4nvGc2dK/fhiq44pNMSprGcqr2qzvPjcUTLpG4fb8WSmEjbEXwgfKocXUvkvmlfhrWymouJcGJth3jQ52vlv2jfy7NW6PzsXQ5PGb7LdoybKPd41+YBxUn+pc+FgL7h1mOcfN7+BzqJBN1m1Tl53LgCCF3Ee92LOBNdLslnWrTpaDj/MjqrDDrfBmFLnASEmCOGWKaZ8CdHghf+CVi943zxySPbifNF0c473d5nTc78JLjoX6o/7u9KhMP46keaPP72dT0OOjDlnhutSpdSXivq9x+Uep5ZxYr7VJ61TA9LONouv62ZpgR2t34iceVLUxjj114cWZgLb7rn63mzAMC6dEtNCb6w452FfgPTVu6eL/HhaxLnAL2E7NdDlu+mqAcY/Lhonp/qCiRmBvN4ka990g/peGga6sFa4AUOOkjf9N7f1bz/6cKdGah09TeY5eXGvl382QOjuS6+aa5eomx1mv8jpau0O0xf5z6Gh7utXO+f+GHoD5aghvrzl3NvhCAhWjUZZsayHjBoxyI57amXKwoWycOEU51PQoBGjpMeyFc6SlWvnzp1y2223SX19vSxfvtwEAufMmWNaA+o8vw0bNsh1110nH3zwgRmuvfZa83xBoP1skiHfssEOHX58lNzzK6226B3Rd2TaPG/eJBmilaWXnROy3vX1vn/K2mygw8+piF320OEyz3/XOZZz8p7xjJxZX/yd5OoUrADqEKwEDpATR0o2IKF3u4/ME3h18k0rQlpZzanYBCrDpTEVu58+nqnwmlYkUftFJdMAubbe87WujGS+5+zP8/QCwl5cPDtPpuWN8v3RrZzSQrCDBY+36bZVYH87tzXe/OnEwHHsPvdIL/KOkuAhOESOMi0jSp0H+AUDJVE0eDJT3KCfDhOfOzN4vg60EHQvsM13THk2U+RqZzmem1W4UJ0o98acG6R9J3xnLqculVRfino+n/tctoJ+z7sJrK3hMq3WSlynBt0WTZc/nmLris4+c9RPZxTdsvrVuyfK2m/5gnyGF/CZKM+MdM6tUYG1hHQqOO2V1p2cIyX6N7Kit9Pj1AN+LL7zTEyAMSevvfqDHZw6xTtXF/a8w4pw3DR59ltrM0G+4H4XwQYINS3uHX+sjLs3+maHU7qZeZl0ywxaDwudQ8U53/u/U9A1SwR7A6UcWjNWKwKCVaNR1r89XI4IlMErZPa4cTLODLOdsZBDj5Dhb6+v6IBgr1695IILLpD33nvPvMRGu+TqZ+0arPM8n376qfzyl7+Uww5zb13oS2/087x588w8oH1oyMLXEjBzh8xtBXPPRJ2uFRDne06FyFSkwl1Dc87HTgVy4lqZVGBXEa9LR2KQJVVCFRRnCFdGtXuX121YW3YcFXXh57ubeoYJ7rqV1dyKb0TLo2I5Fbt5l76TqfBOXHems1+0cp3lQivpJg2dyqqTF/OGzHXTNHwx7F1MaYXe30ohwoDx9TJtle9iXIPsl09zK/+0EOxg3vGmFwv6OV9LkMIdfem8wHH8rCkTI1rkamsa0zKi1HmAj2nhNU0m2HN7dCsa5yx/eXjfjGDKNQ12+L9jAxWn6Nke+eXWicxNNNvV1ZN7sy53ueT6UiiAZAa3PCvo9zRAo8vMO1zmZnqFtGKdR/u65TpLTLjUdyOzANoide6QqIBfNuAzad3EyMB0UjoVlvbKSX/TVTj5jBC/nZYeQ7b+4KafG1AP3ugtoN5sehcUl4Zlz9vnfPuV4fyt9yalRYE0b7JBuk2yVko7X+bUm8OtTO0NlExrRrQ5AoJVTVsH3iRj7Fi1GjhwoNxyyy1y8MEHm+HWW2+VQw8NFkn777+/XHXVVSZ4qE4++WSZMWOGmabzgPZguv+aAIY9If94nJ3jVN/sxcJMGxjUk6pWmpI5lZoz/iinFnxRrd0s3gy0pNGLFzNeyNvj0kqfCXikdht2n9MT2fXEdzc10I3GEawMa8sj+7EVAl1rv+FUWgvpclTutCI/Q6Re/ya9SHL2SfH+ztBFwqtyqju9oEps+A5221eEUSx9LpDIdHtxaZ6pFujm5dHuXm5r29KFWuTqxYX9WPo8wOEFH7QMsRfb0a1oEuhyXvlm1xEZ7DjuWDmW8iqPhDpRoMuh3pizH42o5VpZX0r8PR+tX2SecZdH3Dq1S6X9WAqtm86Q+rwBlmO/MS2i62YB6VRIWmgX1kAL8umZcS+YV8h25txIdz5NcI7JbICp2HpzNdG/3Uvf0BDep/03uXUotoWy5megq3jhzE34TC+Y/C2w0fYICFaY8AsqssMhMmjYSlmzMXeeJzy9ZeMaWTlskBwSnu4bihW1jo4YBgwYYIKC2lW4pqYm8jt79+6VRx55xGznqFGjIr/TEQPSQwN82Yf6uic596NT7bEVHg0MzjzLDSKZBzj7uoaalgiZK9JSKjW5Tfv14sW0rOEiI9Gxpxwlz/zqj8GXeRTADXRkX4qweb7z+ei2DN5pV5175KjMyw8qmF4MF7gfHutcHKtX7y7iOT9eq8LA4HbHQicwz3qyx4a5KHYu/gIXJdpVzbkozNdtPJF2+T/alLXuet1y1y2HS50HuGWP2xKpwHNwZPljh/DFttdSOmooJBiVSgl1IvMCBd+zGE1dynuuXNxyragvJf2esx8Eujo6eT038Ky1GEnr1BeTiP9Zk3rzMu5ZgEHxQTYtf4Pnx1d/dU+mpZa5wW1aNuZJp7xp7+zTuv8HWq/pMFPG2RblGiAvNGhpWiQGXgTnBizdFokJ+4iTL4G6hJMv7rOJ86dh5YhqgeoM4Z4SeuMh/J1iu/f6b3Rk5D6ixwzh8k9/P9PtO6mrOtpLl5aYCEVTU5P069cv828pWrNsW2loaJC6ujo7prTAc5vnV9LO5v0d7777rvTt29dODdow/1K5Va6Vn473P0dwhcw5+wZZImPkxgWXBJ4jGP39rK1bt8rnPvc5O5askO3rKE8++aR54/D3vvc96dmzp5mm3YLvuusuefHFF2X8+PFy4YUXmukdzUvTcjg20H4y+auV/Mwzy46WaZceJfesO9U5aYpTSdG7oZ5sVzq96Ji+yJ0qR2v16B05vP5eGfeetkzIfSjvuB/7y7L85Vuhlaxqkj3etHLoT3frrJmmIqNpr8/kcdNOvztXDrddgU1eams2rfD6P+tXw0wrEu9XorpJhtYdEDEvsB+F87zyePmh+2JcdzuTblpBfF6Pl2zqBfMogcmDiIt3na6tdgsMRKJ4weMteDHm5rlkutiH9wG9qMyWTVHHq1OOOsueuCxq33Hn6XoD5ag9vj2lzjPYf1InX33NO6fWO/8v6Nyq+1CoXIuV71yTQpn8CJxnszLnx3D9yzun5lvOp6j6UtzvOcLlXMHn8IR15q8XaH3Q7DzZZWwdMecZxNrjwexjoTI3Mz1ZTjolbXcs//kiaTtPlBd1nmS3LfY8kpjX4d8odDvLW7C8ijqHWlF5m69siknPHAXsN4XW5UzerptUWHmJjNzzlobM43MkhQHBylRQwG37Mrnz4gUy/K7b7JuGvWCgxxcU3LRErrlipZz94JVy0gFmZo5KDAg2NzebF4xoQFDptmjLwL/+9a/StWtXOffcc2XChAlmXmcgIJgO5G95IT/KS8H5EVE5bZOAYDGtfFA0jjdUk3z7sxcMISDYMShfgHjB4yP3plyiYsqmViIg2L6KLSfzdhnWt7aW0s1Rl9Fl0YEOOEmmXDtUnrj+Tlm2VSfUyiULFsiCzGCDgVuXyZ3XPyFDr50SGwysVBr0u/nmm+W73/2u1NbWmq7EgwYNktGjR8vs2bM7NRgIAGi9hfoGznAXFGcIdMvS7iuBNw/awTzTk2AgAACodjHdduMen2Lf6JszFPtMQVSUvC0EP/roI9Pt0ut6Wahdu3aZ4TOf+Yyd0jmqrYXgX/7yl7wt8La//pDc8KPl0ues8+S80SfJEZ/tbqbv+XCNLHvyMXls0TYZ8f0b5VvHJEcDtTXb5z//eTuWrJjtSzMvTbnDWd3I3/JCfpQX8qO6kb+oJuzP5YX8AOJxfEAVux/kbSHYu3dv2bFjhwnuaXfMfPQ7+l1dRpdFxzvgmG/JHY/8UEb3eFkeuuYimTB+vIwfP0EuuuYhebnHaPnhI3fkDQYCAAAAAACgOuUNCHbr1k0OOuggE+Tbtm2biTgmDfod/a4uo8uik3SvkePOuUJunP2oPD5/vsyf/7g8OvtGueKc46TGbTAIAAAAAACAFMobEFQa2NOuv9oVVJsfJg36Hf0uwUAAAAAAAACg/BQUEET5KPUlL8Uq9aUwHbV9lajUNAUAAAAAAGhLBAQrzP777y+7d+82waX2HPQ39LeK1VHbV4lDqWkKAAAAAADQlggIVpg+ffoU9ZKXYvlfCqO/Vaz23r5K1No0BQAAAAAAaEtdWrTpUgR9QYg+E7DSNTQ0SF1dnR2rXP6/Q1uaffTRR/Lpp5+almdtSbu0ais2fQ5kjx497NT8Omr7KlFUmlbL8YVo5G95IT/KC/lR3chfVBP25/JCfgDxOD6git0PCAhWiHL/O6olnTsKBXZ1I3/LC/lRXsiP6kb+opqwP5cX8gOIx/EBVex+QJdhAAAAAAAAIEUICAIAAAAAAAApkthl+IADDrBjlWvJkiUyZswYO1a5yv3v0O0bPXq0HUM+W7dulb59+9oxVBvyt7yQH+WF/Khu5C+qCftzeSE/gHgcH1BR+0Hv3r3tp1y0EAQAAAAAAABShBaCFcL/d+zZs0c++eQT2bVrV7u8Zbhnz55y4IEHSvfu3e3U/PwtBL3t07cNt/X2VSJNU327sD9NuYNT3cjf8kJ+lBfyo7qRv6gm7M/lhfwA4nF8QEXtB0ktBAkIVgjv79i7d698/PHH0qtXLxNc6tq1bRt5Njc3m4Dezp075aCDDpJu3brZOcm8gKBunwYD22v7KpE/TTUoqGlKgV3dyN/yQn6UF/KjupG/qCbsz+WF/ADicXxARe0HdBmuIjt27DAZqq342iPYpuvUdetv6G8VS4Ne7bl9lcifppo+AAAAAAAAnYmITYXRbrjawkwbdrbnoL+hv1Wsjtq+ShxKTVMAAAAAAIC2VFBAULs8fvrpp7J9+/aCBv2uLoO2p4ElfSZde9Pf0N8qVkdtXyUqNU0BAAAAAADaUt6AoAb29OUV2t3x4IMPln79+iUO+h39ri5DULAT7W6Ul359h1w/+Zvyz2edJWed9c/yzcnXyx2/fkkaU9BIbfPmzfKzn/1Mvv/975tBP2/atMnOBQAAAAAASK+8LxXR1n7eM+GKoQFBfQbd/vvvb6d0jsBLRRp/K9MvniUr3TH5p5t+K1OPtSNlzvs7tmzZkvdhodtfnyv1Ny2Tg8edL+ePOUmO6NPDTN+9bY0sW/KoPLrwAznpBzNk0jHJL43RB1L279/fjiXzXiqi+01nPsxUg9CzZ8+W3/3ud6Y1ngao1QcffGBa6J1zzjnyL//yL2ZaZ9A01cA5D32tbq3N3xX31Un9EjviGHtTg0z9sh1xNDZcJZPniEx98HYZe4idqP48S+p+sNiOjJUZDVOl1o4lzqtylZUfK2RWXb14c4xhU+WBmWOlxo5WunB+uOlnz8xjZkjDd2wqaRotO9kdf3+xXOU7fxuZdGmUxdNnilydTf/AOh1enun0mTJdbq+rltQsP9n8jdiX/fnrCOfT8Ese8OWNLv+CnBxRVoWXcw3PHIOBYzb0m6XOc37V2c8myyypruMRyTL7c04Z5O5vx7/olinTnf/7y5bAvuQvw/3lmiNyX/b2Pf3NH4tMZ3/LCJw/QnkSODcH5mXLBiNpOY/9jgTKpARJvxc438f8XpSkdarAenX+BbL+4lCZ6+P9buy+6ZVxb5uRwuoeUemUb7sjuNsUrCfFb2dQ4nkksC3+tA/9rUbl1439x0cwXXx/m6aJv1wJpZGX1uIsn7dsC8mkb3idyndO1XW8cJLvOPDty/78M3/DhgtC52LkE65na/r2PvlKO5IrbwvBffv2SY8ebkCpGLqMLls+XpNZt4tc9dvfym91eHCqrPrBLGdqddn+59ny3bu2yTf+/X65YeJpmWCg6tHnCDlt4g1y/79/Q7bd9V2Z/eftdk71uO++++TJJ5+U4447Tu6991556KGH5Oc//7lcf/31ctRRR9FtF+XPKbTrVzsn44YGadDBKatWO2XVCjtbT6Iz5XTn1B6iJ98fiHPCt8vdJFI/fbFT5VHOhfUPVjuVMnfeA5eslvr7vDUiUWfkh1bGvOV0yFchr3A1dbdn/9a4St8hY+V2X5rMGONUGk87PjZdAut0hoIuvtAO9CLEl29SL1c12KPAOXYm/+F0377+gJz+h8lSV2DZpBcN3nrdwV50Bo7ZB2Tq6nqZ9Wd3mZLnmeDkTJHTco50pEWgDJrh7NlDZXBMkEMvYuudvd3bNx84balM9u/XS+qlrq7O7F/BssrZ74Y5R81JXPzm5xyTGtTw0i5wbm6UxT+eJUNvsvNuGup813f+jV3Oo8svlaFjhtvxfPL8ngaAE38vStI63X2s7tHBvvJTy79amZoZ131Jg3HeuHse1OU0EONNmzF0lsy0ZXJjw3yRq6PnRYtKp+TtjqRlr3NE+UvXpO0McOpaM+cM9Z1nZsjQOTNl8fs6M19eB89PDRUeDAxw0jRwfg3UQSP465156py137HfCw1aL8sI1dkabko4dwbqy249IHvuRWuZsmLZYDsWraBnCJbyTLjye47cl2TqzH/K7uA1g+VI+7GSaDArdvjkBbnvR6tlws1Xyoi+3vTXZJbpMjxLXvO+13eEXHnzBFn9o/vkhU+870UPxYpaR0cNb731ljz11FNSW1trAoBDhgwx09UJJ5wgt99+u5x//vny/vvvS2NjY87yHTUASRrXrw4GOg45Xk4ftlrWm8qNeyK+vS63YG98canIJeOzlZkvj5epslRe0uX+/IIsHnNB5g5tTZ3zeckLBVRIQX60L1NRcS6MA0O+gJBePCwZKxfU1ZigUl2d/y6/Bm5C6/MGguCdrvaksbJyg3NJ4lwA/EJbgwQuPGpk7MwZzrHwC3sxV5oVyxbL2PO99TrrdD4vXubmfanznC13LrSdC+7kOjXS4v31sloWS71TruS2VHXKtQ0rA0G9mhNPl+Gr12cvxrWljHPxG75R0dgw07RAHc8NjAI4x6S//DhksAy1H+X9l5yzrS8d/effpOUszYelp02X8YPshHzy/Z7/RleoDhErcZ0rZL4GwUq4WagBaP9+VzMoG8yrqZsaaMmXKa8d7rn6qkDZHJlOebbbnJ8D52JnmgaDvnOyHXclbWfAxvWycszJ2bqW8+nkMStl/Ub3c768rlY5ddcvnyxj3/aVQW/PkslOXng36DpTsL4cPveitcxNp+8cb8eipfctw68uk9+OOUm+ZEerwYbfPyprzr1MxhxqJyQ5dIxcdu4aefT3G+yEyqfBQDV58uTYgLQ+R/Caa64xgz5nEGhvbsDCDt7dOb0b5nxe7J9nK0h64SB/eCl70jaVq9Pl+JiWCMncSpGpGAzyVxtrZHAhFdIqVPb5oReatqLmbkuwAl5tAq1jHpwqw7V70Tm+i6cwcydZu5W46eXeqXZb1bicCwC9E20vuN1BW/OMdS44EtaLDqFBN1m9Xt5wLgCCF3Ee92Ju6YulXqQ0yvrVw2XwQDuqBg62wZhS5wEhJgjhljEPXJIbqNDghf+CVi94Vw4dnL0497UQ9GjAxQQXnfJ/Pq1jimdutNkyRfPHn956jh3qBYlC/Msp5xwz8w+ny3Svy2khivq9+TKrkDpE0jq1nuBss/jqLKUFdhrlpT+InH5i1N/aKIsfXZwJbLvnal/X37h0SkwL5/ys52TfuXjFffUiN+VrmZewnRroCtxQXSEvLBkrJ/uCiRmBvHbK/LfdoL6XhtXUKq1m8FBZ6a+76t8+zJcvtkVgpmu1r955VcMKWTw9+maH2S+ceV6a+Yf6Jf5zaOjmrK/LfJjeQBk62Je3nHs7XDoDgvoswXmD5MHvVlM4sNGpaPeQUSPCt7NqZcrChbJw4ZScwnbQiFHSw6mwVPIBt3PnTrntttukvr5eli9fbgKBc+bMMa0BdZ7fhg0b5LrrrjPPE9Th2muvlY0bo87WQBsJdEFzhvMHZ4835+S7PtMdQlvF2O5ph4yV6dq9yDuJXrxUTr86/11gc/KfMz9TKTItDWyrqZyTbaCCliKVkB853SyGyqyLC+leVOGcvKnT5834Wk6GmWCupr92gXrwdFl6ccxFkLZIWO1ecLtDvaz2tdZcOWeyMy0FaVoWghdc5hlRM8dKPzu3Ndx8zK7bDfDrRV6oK6e2CjEtI0qdB/gFAyVRNHii3eO9fdN03fPfkAi0EHQvsLPd+2aI/MBZjhbNhdMbRdp91qZx7k03J08GDZfV60NHc2g5kxc/jjvHR7U+d88jBf2enuN0GW0Nl2m1VuI6Nejm1FGyXWr93WQLt+K+ybL+/PDz/byAz2RZetoDOa1YXfHpVHDaK62TOUdK9G9kRW+nR28Ciu88ExNgzMlrG5z0BtOduIpuwH55qlPHXZ+tuwb2uwi+LsO319XK2JnRNzuc3DTzMumWGfTGbPgxCqEu2f4ysBj2Bko5tGasVikMCL7mXFxtkAv83YerglZmh8sRgdaBK2T2uHEyzgyzzQkm4NAjZHiFV3Z79eolF1xwgbz33nvmJTbaJVc/a9dgnefRl+P88pe/lMMOO8yM64ty9PO8efPMPKBdmCb69q6bXqx+uTZbSXFOvtluQbUy3jnxaosC00rA/9wPE/gooJLinPzNs+jsyX/yhtPN82P0bl1uZcwpL8KtYdKgEvPDWc+MMYvlhWptMaKVdE0j+/yYBwb9wq28hrsUOdN+MUifGWcvCmzg9IINURdBtsKqLQ7Dd8Ed7rPnquhZQWXNuyDQiwX93HbpnvMMQXOxU5Pb+llb05iWEaXOA3xMCy/nfOH835Ttka1onLOI/zlbcRfiJkikwQ7/d2yg4iQt+ZCfc364eL1zXZdNY3NDznZ19eTeiMtdzusCGxt48vIzM7jlWUG/pwEaXebBwfKLTMv/Vqwzp84iRbWs1rqNnlNzg3HZgM8FG6Kf6ZqUToWlvXLS33QVTj4jxG+npceQrT+46ecG1IOt/XLzOofe/C0yDcuet8/59itD609JaVEgzZtskM6px0pp58ucOnG4lam9geKvx6FtpSwg+JrM+qdlctJvp1ZVV+F42jrwJvE/47MaDRw4UG655RbzRmEdbr31Vjn00GC/aX3b9VVXXWWCh+rkk0+WGTNmmGmd/SZsVDOvsjfDBqLyB5K04pR9jpXDOXFfkHkeSrJA98tznIqNr1tKsIKmNxDsx1QhP8qKVuS9B37rRdL0xSJemgUuEtx8i6oM1n4n1GrAa4Whg7Y49ALAOpgWZOgc+lwgybw8xzxTLfK5mdrda3hMF7ZChY5PvbiwH0ufBzi84INeTNuL7ehWNAl0Oa98s+uIDHboDas2unCvXnqzKPpN5BLocqg33exHI2o57Za6MtDyWIO9ZryQc0fi7/kUUYeIXad2qbQfS6GBnELetl97ztSIrpsFpFMhaaFdWAMtyPXtyO64F8wrZDtNi0T/85qdT3pDNxtgSthHqp7+7V76hobwPu2vK+lQbAtlzc9AV/HCmUfzZHrU5G+BjbaXooBgdQQDwy+oyA6HyKBhK2XNxtx5nvD0lo1rZOWwQXJIeLpvKFbUOjpiGDBggAkKalfhmpqayO/s3btXHnnkEbOdo0aNivxORwxIj8aGxfYEpwENfY6ZrxL4tveQZaUPiHYfQq53yoIP03UvkItrzafdOWbJUBvIci++sw/qb2xwPg8r9Tl4lasS8qOxYVYwSOlcgGo352xLgCqiF8NFX+x63Zn8g687UeCOeGjgwrpzmWc92f3eXBQ7F3+BixLNW+eiMKHbeH41cvxpzjHrXFC463UvLtyHq5c6D3BKfn1kgWmJVGBgwX9zIjyEL7a9ltJRAzcyYiQEemxvgMyzGLVV59vec+XilsvtCqnBXtMSOd+5I+n3nP0g0NXRyetfFFKHSFqnvphE/M+a1DpL3LMAg+KDbFr+Bh+lseI/Z2Vaauly7jON86RT3rR39mnd/3PO1Vonc1uUa4C80KClaZHof1ae80kDlm6LxIR9xMmXQCtCJ1/0bcX6srLq4d0EDw3mec0+euMh/J1iu/f6b3RkBB8ZkhnC5Z/+fqbbd1JXdbSXLi0xEYqmpiY54IADZPv27dKvX2lPe/HW0ZmWLFkiY8aMEXl1lvzTD35rp2b9002/lanH2pEy5v0d+nbcvn372qlBG+ZfKrfKtfLTwOueVsics28QZ2m5ccElgQIx+vtZW7duNcG1Quj2jR492rzBN277OsqTTz5p3jj8ve99T3r27Gmmabfgu+66S1588UUZP368XHjhhWZ6R9M0PeSQQ8y/nZ1OaD+Z/DWtCXwP0tVm73rC1Mr/j9fLUL0faluGaWXKq/johUf9EvPRGHtTuAWBVnJ+IYMf9LWO0nVqiyg7mrNMYFvatuteuaus/NB16Z1yT/XllZcfWuGP625n/m6tIC472VfJ1AsWt7IYvEjITX/NM32+UrhSWehFBkqXPb/lXoy5eS4y1eZVeB/wH3e5x4IabpY9/sWofcedp+sNHLPecW6VOs/Q41afQ0VwOTXy1de8MmW68/+CyhbdhwLlWgJzbhKZzv6WEXs+tzLn2sA5OFs25F3Op6jzRdzvOcLlXNRvRUpYZ946hjlfzhS52reMPYdm38pv6aM1zD4WKnMz05PlpFPSdsfyny+StvN4eUnnSXbbYs8jiXkd/o1Ct7O8BcurqHOoFZW3+cqmmPTMUcB+E1dHCzN5u+GCwspLZOSetxqld+/P28+50hMQrHCFBARl+zK58+IFMvyu2+ybhr1goMcXFNy0RK65YqWc/eCVclJMFunOVGkBwebmZvOCEQ0IKt0WbRn417/+Vbp27SrnnnuuTJgwwczrDJqmBASrX9781coSlfwOQ36Ul4LLv5zKqVu5XR0IGil3uvguiAqtbKLtcX5DNcm3P3vBEAKCHYPyBYgXPD78QdYCFFM2tRIBwfYVVU7q+xPiFNRluJRujqUsg1Y64CSZcu1QeeL6O2XZVp1QK5csWCALMoMNBm5dJnde/4QMvXZKbDCwUmnQ7+abb5bvfve7Ultba7oSDxo0yAQrZ8+e3anBQABAa2j3lwfk9D9kn13kDsFgoGexvqkz8D07FPtsHAAAgIoT023Xvs06h32jb85Avamq5W0hqF0tNaLodb0s1K5du8xbXzv7hQ3V1kJw8+bNee+MbX/9IbnhR8ulz1nnyXmjT5IjPtvdTN/z4RpZ9uRj8tiibTLi+zfKt45JjgZqdFkDaoXwWggmtmCESVNtdckdzuqWN3+569+hyI/yQvlX3chfVBP25/JCfgDxOD6govaDVrUQ7NGjh+k2rAE+7Y6Zj35Hv6vL6LLoeAcc8y2545EfyugeL8tD11wkE8aPl/HjJ8hF1zwkL/cYLT985I68wUAA7Yg3B5YX8gMAAABAyuQNCGoXTG0dqK39PvjgA9NyMGnQ7+h3dRldFp2ke40cd84VcuPsR+Xx+fNl/vzH5dHZN8oV5xwnNW6DQQAAAAAAAKRQQRE7Dexp11/tQlzIoN8lGAgAAAAAAACUH6J2FaZLly4d8sIW/Q39rWJ11PZVolLTFAAAAAAAoC0REKww+lzG3bt3m+BSew76G6U8A7J79+4dsn2VOGi6aPoAAAAAAAB0JgKCFebAAw80z2gs9CUvxfJeCqO/ob9VrPbevkrU2jQFAAAAAABoS11atOlSBH1BiD4PsNItWbJExowZY8cql//v2Lt3rwku7dmzx7Q8a0vapVVbsemrqbt162an5qfbN3r0aPNZt2/nzp3tsn2VyEvTXr16ZdKU18JXN/K3vJAf5YX8qG7kL6oJ+3N5IT+AeBwfUFH7gcZ24hAQrBDl/nf4A4LIjwK7upG/5YX8KC/kR3Ujf1FN2J/LC/kBxOP4gIraD5ICgnQZBgAAAAAAAFKEgCAAAAAAAACQIoldhvv162fHKldDQ4PU1dXZscpV7n9HtaRzR6mW4wvRyN/yQn6UF/KjupG/qCbsz+WF/ADicXxAFbsf0EIQAAAAAAAASBFaCFYI/9+xa9cu2bZtm3mTb0z2lUzfiKtvw+3Tp4/07NnTTs2vo7avEkWlKXdwqhv5W17Ij/JCflQ38hfVhP25vJAfQDyOD6hi9wMCghXC+zt2795t8kYDTN27d5euXdu2kWdzc7Ps2bPHBPM0/3v06GHnJOuo7atEUWlKgV3dyN/yQn6UF/KjupG/qCbsz+WF/ADicXxAFbsfEK2pMB999JF5bbS2NGuPYJuuU9etv6G/Vaz23r5K1No0BQAAAAAAaEtEbCqMtjLr1q2b6YrbnoP+hv5WsTpq+ypxKDVNAQAAAAAA2lJBAcG9e/ealk1bt241TRCTBv2OfleXQdvTwJI+k6696W/obxWro7avEpWapgAAAAAAAG0pb0BQA3sff/yx6fKoL0XQ/shJg/fiBF2GoGAn2t0oL/36Drl+8jfln886S84665/lm5Ovlzt+/ZI07rbfqWKbN2+Wn/3sZ/L973/fDPp506ZNdi4AAAAAAEB65Q0I7tixo6hnwvmfl6bLlpWX75EzzjgjM9zzsp1eZba/Plf+9fzrZcmu42XS7Q/LrxctkkWLfi0P3z5Jjt+1RK4//19l7uvb7beri77A47777pMpU6bIU089JRs3bjSDfp46dao88sgj9ptAR3hV7jnjHuf/EUx5dJks3GzHC/Tq3dky7IzLFkp28c2y8LK4eaHl7g5uUdI8uDbPv8xJn4j8CpxXgvPdZaLnJS2n4n4vcZ0VR48P72/JDpfN1z8qdOxsXiiXhb+b2cd13w+lRfj7mf064rtoJxH5Gypfgvuzl/ee+PIzvJw7ZPO11PIuuSy0ZWyobEVK5JRB7v6m+6Lut96/nsC+5N9ntOz37VuR+7I3X3+T/S1eKE8C13WBecnnh8jrQfudYJmUIOn3Sr3+TFqnyqlHRJ9TvcH73dh90yvjIufFiEqnfNsdwd2mYHkfv51BieeRwLb40z70t5ohpr5eiUJ/t5sP2fqPv7wy6RcqkzJpGCqvstz089IzNg90O7y8y9kmHbz9I7ttaAdOPiZqibFlyxbzb1NTU0tzc7P5XAxdRpftbIsWLbKfXmm5+yev2M+OTQtaLh15tzO1Mnh/x9q1a1s++eST2KHx+Ttazpnww5an342eb4Z3n2754YRzWu54vjF6vh30twpV6Pa193Dbbbe1jBw5suXqq69ueeONN8y0jz/+uOW5555rmTp1ast9991nxsPLddTgpal3fKE6ZfPXKXdiy5lNLQt+U1wJtOk3l7bc/ZIdcbzyk5Etl/5mk/m86Td3tyxwPxr+eS0v3d0y8tIFzi8q53cvHZldT9K8KtHa481NywVOXl4aSGNzHvGfV/xp6cy720t/FZoXu5wj6fdi11lBkvJD/3Z3/0s6dkL7t9lv/WmVux9nvx/+LtpaUvnnzzf9HNx/3XwbmTk24vcBLQuz+R+SVKaVOs9si7PfOOVsJR5zKF10eZXdN7190b9P6ufsfhwa1/3Mqafq4C+jXKH9Ts8V7G8BgfLFnzaaVpnyIunYTlrOo8s79a2fJJQzAXl+z3++j/y9KEnrdObqPuX/O3K4f0P4XKfL+fc7f5mcWI+MFJVOydsdSb/zk7sD5X3SdgbkpKctq81X8+0jheRDZUkur7L7hKZvNt9zy6tMWpu8iUglTUsvbfU7oX36FacOa+b5v+f/nCN6f0Vp/PuBm78L7Fi0vE3+nO9IKc+EK7/npR0r0y4/1n52DDhRzjz6HVlXYZFoTdPY4ZMX5L4frZYJN18pI/p601+TWabL8Cx5zfte3xFy5c0TZPWP7pMXPvG+Fz0UK2odHTW89dZbpiVgbW2tXH/99TJkyBAzXZ1wwgly++23y/nnny/vv/++NDY25izfUQPgGiDjxvvKpAIMGH+vTDvOjjgOHXK0/aTzpsm4AXbEcewp4+TNdW43+VefXyjjvjXO+UXl/K7zeeHz7h2/pHlwHXv5s3Lv+CF2zGfAOLnXf1457HDJ5Igzb9p4X4Ycd6qMe3OtmBxJWs6R9Hux60yTzQtl7qJxMsmfFgGbZO2b9iPKSqZcsnk4816v7FFO+XPvTBm3aG6rWgmUWt4ll4VOHfLZe2VcxGGJFNq8Tt6RhTL9jDNk4k9zC5tN696Ucadky/gBJ50pR69al23hdNZMefbZZwPnc7V5/gy5R6bJhNB0RHGOSX/5MWCIHGU/yuYX5Rl/Oh43wRl7Rl40GZCwnKX58MzIeplQ6PGe7/dKuf5MXOer8vhPjwqVn4UptR7ptgALtuCKTKc8221aMAZanDnTrhaZefmpdtyVtJ0B762VN8861Ullz7Fy6llvytr33M/58joVtLw6+nA51I5GWjQ902ovp0yz8/wtWzcve0Zk5IkmbTeve8cp0/x54KT8+Jh98817ZKL9HTPQArrd6bH07OUn2rFoBb1UpCq9/Lhz0j1TTiy2JC1jG37/qKw59zIZk3jEW4eOkcvOXSOP/n6DnVD5NBioJk+eHBvE1ucIXnPNNWbQ5wwCHcfrnmC7JPia0Wu3iGwXh2AzfLcCFdWMfrO8+JzImSdFFWLOOh5yLm7NBclmWbfqaDn8MHeOoQEoc3GSNK86xXVB8U+/bP7C2K6KSfwVpLDN8+fKwlCFyZO0XJKkdVaUTJeU8P7oXnAHuv/o8TDxHnnTuRyPv6ByLgLmTZN3rs7m6XSZKffGBhDRUTToJk758rqzzwcv4jzuxdwzy0otgUot79JXFqIVTBDCDerNuzQ3UKHBC/+NNS3j3zxySLaMj7rAnn+ZeyHuXDA/7puOAr38x+z5UPPHn97OpyFHekGiEP9yyqmbzXjuTKkv5nxR1O8VeP2ZtE4N8DjbLIF6SyklVaH1SBtU0Jsi3lfj0ikxLZxzs3PMPOsLkL5693SRH0+LOBf4JWyn3hhd9Edffe1V+eOicXKqL5iYEchrvXHo1jG8NPQfj9WkoDqmLc8iy7ScGxjB/BgwfpKTB06ZFtm1OOToaTLP/o4ZSghqo+2lLyDoPW9B70ZU1U7YKCuW9ZBRIwbZcU+tTFm4UBYunOJ8Cho0YpT0WLbCWbJy7dy5U2677Tapr6+X5cuXm0DgnDlzTGtAnee3YcMGue666+SDDz4ww7XXXmueLwi0Pw3qTZS139ITYG7F59hvTBOxd2H17uraI8fJO97FhKn4OSfbUGH16t26Pl/lzPCCjhPlmZHz7MlbKz1HyRD/9/QuqWlZljSvCjnl//RVvsrIt4aYv1MvxDRg5FVQ6uUZWeguUThn3RPXTcoJOnnPVZnoVJzn+VsJeGKWS5J3nRXsxHr/Pj1OZjr5kUkbc/7Wiwcnn+adKc9MTKjAaytML591qLJ0qhzBC67ptlVgfzu3Nd786cTMes1gAvyllncpKwvRCsFASRQNnsx0zirevplTVgcusN3ztvmOKa9miujNjEIuruHSG6wPHZ5JY22xdPSQYOsIDdK+E76LFFrO5MWMZ+TM+qjrQ9u6LTC4Nw4L+r3I688S16lBt0XT5Y+neOe4mXLUT2cU3bK68HpkWHw6FZz2SutkzpES/RtZ0dvpOVam/Vh855mYAGNOXtvgpDeYm4hV+Aw7Ddz+9Chfj4o35R6n7hTXClCHqFbPQc75MhDUdtNy3pC57jpo9Vdx0hcQPG6aPfAPl7kFPui0MjTK+reHyxGBMniFzB43TsaZYbYzFnLoETL87fUVHRDs1auXXHDBBfLee++Zl9hol1z9rF2DdZ7n008/lV/+8pdy2GHu7X996Y1+njdvnpkHtB+9IHaDGLGVHr3wtHc4Ny9bK4d/Y5pMErfbnLmzF6pcaUBo7pCoipp2uXMrN5PWORfL5oLiUDk83D0l030gaV4VMl1sbXcFrbAcd6xTjdE7naHuXXq3034uSE5FM8u9q+7kybfWOr8banWYsFySxHVWDO+iwxmuXmgroxNlolNR1WmXzV9nv6fsRZOmlfN3m/3eBPzmyeEPhc/jURdY2eGy+YR3OpYb1H3WyatpR+vnfC1BCnf0pfPc48AbzEV2qeVdyspClM608JomE5z/a5kSd/Gsj34I7psRTJDI3izMfMcGKk7R0gz5OWX+xLUyyZfGA4Yclenq6tFu3EcFIv65y3ldYGMDT15+Zga3PCvo9yKvP1uxzqN93XKdJSZcKkW1rC6uHhmUlE6Fpb1y0t90FU4+I8Rvp6XHkK4nk35uQD14szA3r3M4dYr6ItOw/Gng9h45KhAgPVqmzQu2AszUKX1D5kas7rfhPNKWloFWoC5vPfNGPhNfNw13GbYDdbPOld4uw86BPynzjIFqpa0Db5IxdqxaDRw4UG655RY5+OCDzXDrrbfKoYcGq/D777+/XHXVVSZ4qE4++WSZMWOGmabzgPajF8FaQUm6AaHd5N5xLkY3y4vrDjd33Y495ShTMdm0LthNQitHM6Q+b4sybXWY7e4WKuv07rL9mDyv2niV75k2MOjlSairYDE0qDdDpD6poqn0OTr+gEOhyyUJr7OiZC86ooZ7x49z8sqrxNp8y0krXUe41UDwAmvmWc4RqC0K7fi94wnvdA59Jp/IdHtxaZ6pFujm5dHuXkfHdGErVKnlXZrKQpTECz5oWWQDPFFdhhP5L7DtOiKDHXrDSm98tOYcUfX0BtAf5dSoGw2B7v76SAD70Yhazr056G95rMFeM15Ii6fE3/Mp5vozbp36OAP7sRSl1SM9BaRTIWmhQaVAC/LpmXEvmFfIdpoWiZdO8OWjBkf9LRIT9pGqpn93UivPEK2TZvIiNISCwuZ5u4ktpPWm+ju5dVNzIzdbH/MP944/NqI+h46SnoCgcxIPPF/B2fHnOpXOki8CO0n4BRXZ4RAZNGylrNmYO88Tnt6ycY2sHDZIDglP9w3FilpHRwwDBgwwQUHtKlxTUxP5nb1798ojjzxitnPUqFGR3+mIAWl0rEwzXRzjg4ImAPirx2XtEPucj+NOlaOemyFzV2Wb5cdXjrS1VfBu3Ku/usc+x2WAnDjyaNPFyf1p57vO56PN80SS5lWfzfMX2jTSoNFMp8KilXL3+Tb3/CqbeubZfPZzooSgnuZV4A61tirxuiSWGAxMXGfF0kprRAXUDLl3mDUNSnpWkmmJo+uc6KSZnYaOZZ71ZF8YYi6KnYu/wIW2lmPORWHEIxIKV2p5l66yEMUzz5k1LZEKDCxkypyIIdzqKulinO53MRICPbY3QOZZjOZc6T1XLm653JtUGuw1LZHznauTfq/U68+kdeqLScT/rEl9yUjcswCDSqtHusu5LxXJk055097Zp3X/91pMZgatk7ktyjWAFb+dQaZF4nMv+o4RN2DptkhM2EecfAnUp5x8CXatrWzusxl9Lf3yiQvW/TjcXyb3GY25dVMN9sbXTQPP8g4MSQ0n0J66tMREKJqamqRfv36Zf0vRmmXbSkNDg9TV1ZnPusP6m/Zrq4GCouZlwPs73n33Xenbt6+dGrRh/qVyq1wrPx3vf47gCplz9g2yRMbIjQsuCTxHMPr7WVu3bpXPfe5zdixZIdvXUZ588knzxuHvfe970rNnTzNNuwXfdddd8uKLL8r48ePlwgsvNNM7mpem5XBsoP1k8zdUGdELhKudi0yn4nTvSS8Gg0J6QTDxGTlzXvYOmZ40zbPtTGsCraxFBDP0Ab1mHfpbeofVykx3mXUtsiNneet0Jc2rBpn8sOmfkflbg2l79KXT5Kifrg1VIjV958rhvvwJn1Nc2h3D/U4gXX3T8y3nyv09FbfOSlJY+RddkS/0IsHktXYxzrmQ07w2B17FpVuliC3/HO6+L7HHgikbM3kbKtMMd58/cVkRx14R5V3esjB2v0K1yldeeWVSvfP/gsum508t7Dxb4s2jahZ7Prcy13amTqUvoFK+c2W+5XwKPt+ouN9zhMu5gq8/E9YZnBe1zqhzXevqkXFy0ilpu2P5zxdJ23mivKjzJLttseeRxLwO/0ah21neksur7D6h59D4PAvxnwujyq+cZX1pqfNCZZieZ/X5l/n3V5Qqdz/QSGt8wqYqIFjJCgq4bV8md168QIbfdZt907AXDPT4goKblsg1V6yUsx+8Uk46wMzMUYkBwebmZvOCEQ0IKt0WbRn417/+Vbp27SrnnnuuTJgwwczrDAQE06Gg/I04SaJ9FH+8RQej0DYKy4/oPCj4Ak0rrQRuOgXnN1STfPuzVyYREOwYlC9AvOTjI09AsICyRsu7x4fcW1hAOwYBwfZXbDmZt8uwvrW1lG6Ouowuiw50wEky5dqh8sT1d8qyrTqhVi5ZsEAWZAYbDNy6TO68/gkZeu2U2GBgpdKg38033yzf/e53pba21nQlHjRokIwePVpmz57dqcFAAEDr5bxd1g45XYnNcyJzv6dDoHsLAABAmsXVmTKPLXC7prfF49YW6pvUA78T0SIUHSZvC8GPPvrIdLv0ul4WateuXWb4zGc+Y6d0jmprIfiXv/wlbwu87a8/JDf8aLn0Oes8OW/0SXLEZ7ub6Xs+XCPLnnxMHlu0TUZ8/0b51jHJ0UBtzfb5z3/ejiUrZvvSzEtT7nBWt3z5m+neENUlDW2u+OONFoLtifKvupG/qCbsz+WF/ADicXxAFbsf5G0h2Lt3b9mxY4cJ7ml3zHz0O/pdXUaXRcc74JhvyR2P/FBG93hZHrrmIpkwfryMHz9BLrrmIXm5x2j54SN35A0GAmg/mVf8EwwsU/rSEYKBAAAAAKpX3oBgt27d5KCDDjJBvm3btpmIY9Kg39Hv6jK6LDpJ9xo57pwr5MbZj8rj8+fL/PmPy6Ozb5QrzjlOatwGgwAAAAAAAEihvAFBpYE97fqrXUG1+WHSoN/R7xIMBAAAAAAAAMpPQQFBlI9SX/JSrFJfCtNR21eJSk1TAAAAAACAtkRAsMLsv//+snv3bhNcas9Bf0N/q1gdtX2VOJSapgAAAAAAAG2JgGCF6dOnT1EveSmW/6Uw+lvFau/tq0StTVMAAAAAAIC21KVFmy5F0BeE6DMBK11DQ4PU1dXZscrl/zu0pdlHH30kn376qWl51pa0S6u2YtPnQPbo0cNOza+jtq8SRaVptRxfiEb+lhfyo7yQH9WN/EU1YX8uL+QHEI/jA6rY/YCAYIUo97+jWtK5o1BgVzfyt7yQH+WF/Khu5C+qCftzeSE/gHgcH1DF7gd0GQYAAAAAAABShIAgAAAAAAAAkCJV32UYAAAAAAAAQBYtBAEAAAAAAIAUISAIAAAAAAAApAgBQQAAAAAAACBFCAgCAAAAAAAAKUJAEAAAAAAAAEgRAoIAAAAAAABAihAQBAAAAAAAAFKEgCAAAAAAAACQIgQEAQAAAAAAgBQhIAgAAAAAAACkCAFBAAAAAAAAIEUICAIAAAAAAAApQkAQAAAAAAAASBECggAAAAAAAECKEBAEAAAAAAAAUoSAIAAAAAAAAJAiBAQBAAAAAACAFCEgCAAAAAAAAKQIAUEAAAAAAAAgRQgIAgAAAAAAAClCQBAAAAAAAABIEQKCAAAAAAAAQIoQEAQAAAAAAABShIAgAAAAAAAAkCIEBAEAAAAAAIAUISAIAAAAAAAApAgBQQAAAAAAACBFCAgCAAAAAAAAKUJAEAAAAAAAAEgRAoIAAAAAAABAihAQBAAAAAAAAFKEgCAAAAAAAACQIgQEAQAAAAAAgBQhIAgAAAAAAACkCAFBAAAAAAAAIEUICAIAAAAAAAApQkAQAAAAAAAASBECggAAAAAAAECKEBAEAAAAAAAAUoSAIAAAAAAAAJAiBAQBAAAAAACAFCEgCAAAAAAAAKQIAUEAAAAAAAAgRQgIAgAAAAAAAClCQBAAAAAAAABIEQKCAAAAAAAAQIoQEAQAAAAAAABShIAgAAAAAAAAkCIEBAEAAAAAAIAUISAIAAAAAAAApAgBQQAAAAAAACBFCAgCAAAAAAAAKUJAEAAAAAAAAEgRAoIAAAAAAABAihAQBAAAAAAAAFKEgCAAAAAAAACQIgQEAQAAAAAAgBQhIAgAAAAAAACkCAFBAAAAAAAAIEUICAIAAAAAAAApQkAQAAAAAAAASBECggAAAAAAAECKEBAEAAAAAAAAUoSAIAAAAAAAAJAiBAQBAAAAAACAFCEgCAAAAAAAAKQIAUEAAAAAAAAgRQgIAgAAAAAAAClCQBAAAAAAAABIEQKCAAAAAAAAQIoQEAQAAAAAAABShIAgAAAAAAAAkCIEBAEAAAAAAIAUISAIAAAAAAAApAgBQQAAAAAAACBFCAgCAAAAAAAAKUJAEAAAAAAAAEgRAoIAAAAAAABAihAQBAAAAAAAAFKEgCAAAAAAAACQIgQEAQAAAAAAgBQhIAgAAAAAAACkCAFBAAAAAAAAIEUICAIAAAAAAAApQkAQAAAAAAAASBECggAAAAAAAECKEBAEAAAAAAAAUoSAIAAAAAAAAJAiBAQBAAAAAACAFCEgCAAAAAAAAKQIAUEAAAAAAAAgRQgIAgAAAAAAAClCQBAAAAAAAABIEQKCAAAAAAAAQIoQEAQAAAAAAABShIAgAAAAAAAAkCIEBAEAAAAAAIAUISAIAAAAAAAApEiXFof9HNDU1CT9+vWzY1bLPtm3+6/SsvdTaZFmkeZ9zr+6uDNErgUAAAAAAABAR+vxmc/bT7kKDgju27VNmvfukJbmvSIte6Wlpdn51xkywUAiggAAAAAAAEA56NnnC/ZTroICgvs+bZLmvTulpXmP7NmxWfZ8/J7s1ZaC+/aY+QAAAAAAAADKR//a79hPufI+Q3Df7g/dYOC+XbKz6XXZ8f5rsmdnE8FAAAAAAAAAoAIlBwRb9knznu2mZeDOrW/I7k822hkAAAAAAAAAKlFiQHDfrg/NMwP37GgkGAgAAAAAAABUgcSAYEvzbtNKUJ8ZCAAAAAAAAKDy5QkI7tP/yd7dH9opAAAAAAAAACpZ3peKKF4gAgAAAAAAAFSHggKCXfbrbj8BAAAAAAAAqGSJAcEuXffT/0m3Hp+1UwAAAAAAAABUsjwBwR7aPFC6H3SYnQIAAAAAAACgkiUGBPfr+Vnp0rWbdO9dIz0OHGinAgAAAAAAAKhUyc8Q7LKfdO1+gHTp2l169f0iQUEAAAAAAACgwuV9qch+PT4rXbv1ki779ZRe/Y6R3od8Sbr36seLRgAAAAAAAIAK1KXFYT8HNDU1Sb9+/eyYyL5d26R57w5pad4r0rJXWlqanX+dQZzFzRoiVwMAAAAAAACgg/Xs8wX7KVfBAUGjZZ/s2/1Xadn7qbRIs0jzPudfXdwLCgIAAAAAAADobD0+83n7KVdiQHDnlpfsGAAAAAAAAIBKMfgL/2g/5UoMCPbet8qOAQAAAAAAAKgUvWtG2E+58r5UBAAAAAAAAED1ICAIAAAAAAAApAgBQQAAAAAAACBFCAgCAAAAAAAAKUJAEAAAAAAAAEgRAoIAAAAAAABAihAQBAAAAAAAAFKkS4vDfg5oamqS3vtW2TGorhvft586VvPAQ+wn5LOnuZt8svsA2b2vh7RIFzs1Xbo4f3mP/XbLgT22S/eue+1UAAAAAACQJr1rRthPuQgIFoGAYHnb29JdPtlXI716HyDdu3eXrl3T2QC2ublZ9uzZIzt3bJcD92uUbl322DkAAAAAACAtkgKCdBlG1di57zPS+4ADpWfPnqkNBir92zUNNC00TQAAAAAAAPwICKJq7GnuaVoGwqVpoWkCAAAAAADgR0AQVaPZdn7XXvAMbmJ4aQIAAAAAAOAhIAgAAAAAAACkCAFBAAAAAAAAIEUICAIAAAAAAAApQkAQAAAAAAAASJEuLd7bB0Kampqk975Vdgyq68b37adiNErPnz0nXeQo2fe942WPnVqM5oGH2E9IsuXTQ6Vv3752LF7jb6+RS+5facc8Y+SmhVOk1o7Jn2fLuP+7xI4Mlyn33yZjKjAbtm7dKv3332THImxZLldd3iBy4XS5/Wt97EQAAAAAAFDpeteMsJ9yERAsQtEBwTUvyf5PbpPm0Z+TLk/+VZoJCLarQgOCK2aNk3mD5sht/1Rjp4S8v0Su+fYf5DQvCGiCgxIMGFaIvAHBMBMg3CIXPFZXcX8rAAAAAADISgoIdliX4Z89sMB+yvro4x3y7H+9Ysc6zs5Pd8vTS1+2Y+3oiOPl0++Nkt0d3PBK/zb9GzuS5qPmZ1hUvpeDIwbFBAMdK34zW1aOnphtEfjls2XKsCUy77eNdgJab43MOq9e6nSYu8ZOK0+NT812t1OHG5YLewEAAAAAoNJ1WAtBDQx9b/LZdkxk5Tvr5L9fWSkff7wjML29vb1qvTy//HX59NPdRf9uaV2GHdvekZ6PdVwLQU3r/ffvIaeMOEaGHTnYTm1f+psHHdRb/u4rw2X4UUPs1Nx8b0/FtBBcNmKhTPmynRDQKEuuvkTWnxecb7oZb5goC6d2XLu5u+66S5YuXWrHgk4//XS54oor7Fi8/C0Et8niG2bK+q/PkPEbZ8vkh9fZ6WqEzPBaCr7eIHW3LDdTjTMvloZJR5iPK+bWS71cLDPkQal/xkyS4aYL8jaZdd6DsthMGSJT754iY/s7H00rxNfkdG9c1/0/X8ysz6OBuMl/+pLM+OprUp/ZLt82GRpY9H5DZed7y0/9XIPM0u06sk4euHGEZEPB7rJy3cUit2TX4W67G8XXdcyUCYHxye+Nym5rKF3GmnU9LYO9v81hlvGlq3/9AAAAAAC0l7JoIejxWgU++4dXTDCwo3itAp9xBg0GVjv9G/Vv7cjWgpqfmq9xrQXLQ6NsWCOy5P+Ok3HjvGG2rLBzdf76t4fL4IF21KoZdITImg0d2jps0qRJ8jd/8zd2LEun6by2VvO1KdJwd50MN0G1GdIQCAZulKl36zQdpsvUdx+Uq57aZpYznnlQfnHYdHf+dSNk5cOPy1U3aGDMXeaBC0VmNdiWgJu3yEoZKINtwEyOqcsJBmasapB6DcCZ350hM85cLvWZVnpuQG/1hfZ3ze9s9M13OMuvP8Gd1xAIBmYtNgE8+x3n75eHZ8qs1915mib+4F3NV74kw595w91fNLB5y3IZe51d1kmXwU/4g5NeMHCgTU8dLpahvvUDAAAAANAZOjQg+MbKd2XBkudl5f/6WyG1P20V+Nivn5H/df5NG/2b9W/XNOgomr+az5rf5adGxvx4oSxcmB3mfHuN/GDcNbKkxAag7SUu8BcXKGwf22TxE8tl+IUTMi3eRPrI2K+PkJV/ejsbeDuyTqZ7gbNjvihjxTnGv5pdpmbgQBEvkDagvwwXf2AvyQiZ4QsW1k66WMauek1e2qLBtqdlsf93HTVfG5WZbzjzxx9jP8cI/G39R8j0C4fI4v/xdWPWwJ/XZfjyBvFeR9P4ymuyMrB+J10u04CqZ43Mf3idjL3O36LxCBkfXj8AAAAAAB2sw1sIAu1Fe7+XMhwy9gq5ZNhKWfrfm824s6ac75jJkdPbdzjttNNEuwd79LNOi/pu3NA622T9KpGVD8/MPkdPB+0mu2pLNqD3uUNyWt8NHejrFmuCgFb/EXK7tkRc1SCTzfoafC00Q47sH1pvHxl85DpZv1mk8b11pgWguw5v0BZ67vxCBbbTYYKX775v/jbtDl1nujfbFn6mBaXL/H747+5/iAy1H2XL+7La+WfxLf7tq3e7D9v1AwAAAADQGTo0IPjF4Z+Ts8ecIsP/NvuMuY6gz9E775/PlL/toOfplRP9m/Vv76hnCSrNX81nze/KUCODPm8/6udhb8uGjXbUanxPQzud46KLLjItAnXQz50h2y3WP/hbvhVJg4KZAFuhrQUj6LMMc7ZrhkzN0yqwIFuWyy+e8T37MKTmsIhyzAYBs3T53O2L674MAAAAAEBH6PAWgp85qLec8fdfkTNO+4p5CUVH6bV/Dxl1+nFypjPoCzeqnf6N+rfq36x/e0fQ/NR81fzVfK4cjbLhLyJDD9MQjRscXP1eMDzVuP5tGfb3x3VKEMcLBHqBwY51hJx8prRfF1cNDF43ItjaMMmWt2XpqiEyeIBI7QnOcl435Da04n+Wuy3/ws86dJhuwvaz+zzBBwPPA1zRkO1SLP2HyelHrpOlr/ietQgAAAAAQBnotC7D+iZaWgu2j85sFeh/w3BZen+JXDMrGEJaMWuKzJFLZJx9q3DtiDHy9v13Zp8p+Oc5csPvhslpJ3Remy7tKuzvOty+Nsp67xl8jtq6OhP4qpubDQpqV9rAS0WKYLrhZloEus8olDO/GN3acFWDzPT9jgm4HfklOV6DdMecIlOPXC71/i7H+gKUIlsbLr7Ft7xpFSgy9oQjMs86fMEL+DnrDryF2QYz/V2CXzjhYhlrZ2eetfjwTF9a6Vud63mpCAAAAACgU3VpiXnIWFNTk/Tet8qOQXXdWOJbJ7a9Iz0f+6s0f+942WMnFaN54CH2E5K8v3OA9O3b147FWzHrbLnhd3ZEDbtEZt82Jtj6789z5Ox/W2JHhsklc26TMRWYDVu3bpVDeiU9UE8DVDNl/dez3Ww1YFf/jPtZuwq7093vzfKKBO2qa1/2Yb4v2XHv7b+SWdahL+a4fItcYLsZu2/fdYNrwy+cHniTr8d8509fkqmfa5BZdnv0JSEPhLrb+tdlXkLi/w1n+fD3s+x2Xlgnqx/OtuzL/s2hdetvXyYy0/d35NJ16luL/d2M3d/x3j4c9/cCAAAAANCWeteMsJ9yERAsQskBwVYiIFiYQgOCaZI/IFi+8gf0WisicNla2kLxFskEJQEAAAAA6CxJAUHeMoyqobFthtwB7UUDitmu0xrA1Lcvj72OYCAAAAAAoLwREASAkhwhUx+bIdPlcfP8wJkyoe3ecAwAAAAAQDuiy3AR6DJc3hp31NBlOES7DNf0LuYVGwAAAAAAoBrQZRgAAAAAAACAQUAQAAAAAAAASBECgqgeLc3S3Nwc+WKNNA6aFpomAAAAAAAAfgQEUTV67Ldb9uzZY8egaaFpAgAAAAAA4EdAEFXjwB7bZcf2T2TXrl1u67iU0r9d00DTQtMEAAAAAADAj7cMF4G3DJe/vS3dZee+z8ie5p7SIl3s1HTp4vzl3bvukl77fSTdutBiEgAAAACANEp6yzABQQAAAAAAAKDKJAUE6TIMAAAAAAAApAgBQQAAAAAAACBFCAgCAAAAAAAAKUJAEAAAAAAAAEgRAoIAAAAAAABAihAQBAAAAAAAAFKEgCAAAAAAAACQIl1aHPZzQFNTk/0EAAAAAAAAoJL069fPfsoVGxAEAAAAAAAAUH3oMgwAAAAAAACkCAFBAAAAAAAAIEUICAIAAAAAAAApQkAQAAAAAAAASA2R/x+OqJo+V7CLZgAAAABJRU5ErkJggg==;clipPath=inset(0% 12% 0% 0%);" parent="1" vertex="1">
          <mxGeometry x="50" y="190" width="1284" height="437.72727272727275" as="geometry" />
        </mxCell>
        <mxCell id="EAp16Kz88traqYo4ZruH-2" value="" style="shape=image;verticalLabelPosition=bottom;labelBackgroundColor=default;verticalAlign=top;aspect=fixed;imageAspect=0;image=data:image/png,iVBORw0KGgoAAAANSUhEUgAAAIkAAACYCAYAAADQrsr3AAAAAXNSR0IArs4c6QAAAARnQU1BAACxjwv8YQUAAAAJcEhZcwAADsMAAA7DAcdvqGQAAAm3SURBVHhe7d3fT1vnHQbwJ/sL1iUtlAwiLYuCuIiCUikjarQImCrVci1uelE6taIooZIhN06kyeouGnGTcFEgUmnFolUbvchFgmM507RQLUoXFClAygWiYqkU08amJO1ucu2d9/j18XuOfc7XNiY44vlUrziH9/UPeh7eH6cu755n2fkciAL8Qn8l8sWQkIghIRFDQiKGhEQMCYkYEhIxJCRiSEi0J73yD95xpUAlt+Wf/vQ/7P3VL/UZ7VZmDjjckIghIRFDQiKGhEQMCYkYEhIxJCRiSEjEkJCIISFRnUPyHabe+QypTX1q2PjnZwhf+U6fyaptT9unAXoS/2BRY9iGkKQxdTaO8DvuMvhFWteX04LWl/UhNZxtCEkbhsZHkfzSXabfa9P1Hps/4qE+pMa048PNxuI3WMVjrNvDjRp6Kul56Hmq8+dJ1EX+C1L6rETvB0gO/EafKKr9v9D6Xgum/vMypj/+HZp0jZq4Dv7wB097el7MHOzoh46Wr8QRRz446vhv+2O49MZLdh1DsrO2JST2Bb+lTwShP42i77EVgi9aMPplGEfs7+peSPc2DMnOem49ibd3KLAD4ApIwc9I/fkqMHwGry0yJDvJzMGOTFyb3jhjrXi8AVFeQujjMwhxOdxQGuBmGjU6hoRE/F8qqKwdn5PQi4UhIRFDQiKGhEQMCYkYEhIxJCRiSEjEkJCIISERQ0IihoREDAmJ+NcXSbQnZ9HHtidPnmDfvn36jHYrMwccbkjEkJCIISERQ0IihoREDAmJGBISBYYke30YPT09ukxgSX8f2QSGhxPI6lP73GlnFV2nHj98Pet8LVgaN9p6ysSCbuR9TlXGnXdgP4fTVlmYcNqZr2X/DMbjqAbqZpppc3Mzf3B/PNcdnc1l8mfu88xsLmrWec+1zLVoLnot43yVLH7SnRu/r0+81Ot/sqhPPG3V63eP5/K1mdxstFinXtt8HFXGyYHFtyfJptfQ0X0czfocx04isvIIGX2KlQn0e35rd0p2/hYQfRud9lkzIu9HkPiavUe9+Iakue0QVr66VxxSFu4g0XEAr+pTdIxgZm4Ok306Rjo0+e5+CYnhHvRfXsnXuWTtOmcIMUrsRgcO7NfNrMFtwqw/n9DfL5VJr+BQmxNnYP8BdPw3XXzvtCX+c5JjI5h7/5Fz4XvOA2OTkWLP4qVDM2cHpxORyTnMRDt0pcn6TbfqVDt3mcFIxyGY1xqIYMxsczbfV1TtRsz+GRqh13sRBa9uVFCcizSiu3NLcwSTQYGpkHtCm8EjGD1VFV5t68Ba2gjAD4+w8tu24vt7a8z+GZxej6oSHBJvl28Wc3WjGMONXapdUajhzLywVWju6gUuX9WrL2s4+2sCkddr7HWolJ7AOsxZrS+f1YyXtLoJXvUs5sa7u3Pd5Yq1WilZCanVj643n5Orm9qYORA+T6J6khjKThnVHMQ75Kh7FV+f9J87qPqACaij3HN7qPskd16fw8gx/Q0fakjrTw/UPp/ZpVw5sKNicPck6re5cP+hAp57Gdsp8J6KgT1JbSq6T1KUQMycazjFuANr0iuJksK7ni8sfnyRyuLHF6kqDAmJGBISMSQkYkhIxJCQiCEhEUNCIoaERAwJifY8e/bMvQHB06fYu3evPqPdyswBexISMSQkYkhIxJCQiCEhEUNCIoaERIH3STaS5zD4+ap9DIQwmhzK7+X7YwrnLgKxsRCaCucfTKHQEoeHMG3VwXr8GGLWP2P210thuzWWPw0jftM+LBG6kMTQUevA+5zKm6NIfpjfTVg9x90u3VZ5MIXwRyn7sP30tPNa9s/w/R+dx1FlKrtPYv1LH7x9CtPJJJKqXADisRQ2dHUJFYxC20J4fBz5ULfzlNE3dQPllRAumfUXrND5UYH6CFaIVdtpnLo9iKkHuo62zDckG+sP0f7714oX++gJhL5dL4bkWytE4TDOJX1j89xs3Ps3cLpP71jehNC7IaTml+0z2jrfkDS1HsTq7fvFUDy4i9Th1mJodM9R6NYLoQnbwVlGKhY2hirThl2n2nlL/GY7Wlt0MyxjyqzXQ0k5G9+v4mCr0Xe1tKL9oRFo2hL/4eboEJLvrjsXPqy686BhxBhuLoWPIDSWxPTpdl1psn7TrTpnGHHKNIYOH0TrK7qZTc2DjDa1zituxu2foRF6vRdR8OpGBcW5SHrSqqj5gjDvqISaVBYv3AbWYfRUVWj6dTserhsBeLyO1YPGc6kJr/UzOL0eVSU4JN4u3yzeSawx3Njl0yrnBGo4My9sFZqOnwI+v269W8Uazv6eQqiLq5l6qe2jAt4lsA/VU5RbAhcU6sv/hquAxlF2JmL1DKOIcwm8jcwcCCEJuFD6Xojr8qoLNX/C/4IYFzJQuef2KLlP4oMhqU2VIbmLE+Z8JIgUkjpiSLaXmQNhTqKkEDfnGk6Z0nMAD72SKCnVzlGoYfDji1RWlT0J7XYMCYkYEhIxJCRiSEjEkJCIISERQ0IihoREDAmJ+Md+qSz+sV+qCkNCIoaERAwJiRgSEjEkJGJISOQfkmwCw67dr4aRyKqNn9VX93at6tjcGcu1lavad6/srln5TaQnFvSZeg7j9ZzHq/dR2Dm05D2pkn8/+ecrHFM9+YdE7f3r7Ak8hgi8GztvUfYebmEEb6uNFq0g9V8+5NooegDG7uYmY5PqfJlEhNv9bqvKhptsGmvmFvTlGHvvlWw/r+sKvYaSnb8FdB+3d+zMpteAt04WN6e2dPb57Obp3X/Yuz8x1V1FITEvqC+9i7cqJdvP67ri9qxZ3PsK6O3KP2Nz3wAiKkiVbObo7UnqsNM5BZNDYs0DRq2hYMDZwn0FE/3+vUXZnqSE2nK+F8edq9uJERWutivsHRqR+g98Jve+wJncbNTcf1edR3OzGWl3cIGwf7C9l29hP2JzN3N1bO40bpTotUXnvdHWmTkICEl+G3h3EAJCEnABvYGQN35Wr60veIVb3lN9VbR59NJ4DLg4h0lnmBG4VkNGuRjRDQqWcOdGBCeN7ePV8tec1GLhDhIBqym1Bb0zcXUVLoG3g29IOs+aE80KlL2HYZXzCd1AUwHwrGSau3qxdt58zBpGZkZcbbwiVoDdgZzBiGe+THWiexSHe07iJQw3FQwL6nHBQ42s/HBVfG+0dRUNNzXx3sMoFGe1soSrl4ED++2TLUmYPY9d+jEhLaqoJvz4IpXFjy9SVRgSEjEkJGJISMSQkIghIRFDQiKGhEQMCYkYEhKV3JYn8mJPQiKGhEQMCYkYEhIxJCRiSEjEkJCIISERQ0IihoREDAmJGBISAP8HwN+DmmK1okwAAAAASUVORK5CYII=;" parent="1" vertex="1">
          <mxGeometry x="800" y="270" width="200" height="221.91" as="geometry" />
        </mxCell>
        <mxCell id="EAp16Kz88traqYo4ZruH-3" value="" style="shape=image;verticalLabelPosition=bottom;labelBackgroundColor=default;verticalAlign=top;aspect=fixed;imageAspect=0;image=data:image/png,iVBORw0KGgoAAAANSUhEUgAABQUAAAChCAYAAAB+tdlfAAAAAXNSR0IArs4c6QAAAARnQU1BAACxjwv8YQUAAAAJcEhZcwAADsMAAA7DAcdvqGQAABZxSURBVHhe7d17jFxnmSfgt+++pR07ncvkgrOTjDMo4J0wkg0ieLkowUZoQBBExIzYxLARIySURIuEgryKJgIkIsXZEdIiAlFGLCNYAlqhaJ0EdpGSiaKAIkuBKNgbK3dkO3bb69jtvvf2d+pUuy/V7aq++XSd55GO63ynqlz9z1tf1a++S8vpQ8+OBbDkRgZPxshA5RgdGcivUiatbV3R1tVdOTq786sAAACwfNZc+v7stuWh7/3T2BduuSlrAAAAAADNqxoKtv7ovz8WJ9/pyxoAAAAAQPNrHRgYiseeeCZvAgAAAADNrjX988xzf8gaAAAAAEDza9lx88fGTpx8J/73//yvsfepN/LLAAAAAECz+eznPpfdtvzHf7hl7IUXD8b/+h/3R/uF/z67CAAAAAA0n56enux2Rig49uefZ3cAAAAAAM3l4i3/mN22Hj5yPLq6OqL7grXZBQAAAACgubUefrs3/vqvNuVNAAAAAKDZZbsPf3Dbe7MGAAAAAND8WtPU4U9+/IN5EwAAAABodq1f+odPRvcFa/ImAAAAANDsWr9wy035KQAAAABQBtmaggAAAABAeQgFAQAAAKBklj8UPPBcfPy2h2L30335hcn64vEHHsrun3z84EB+d73mfI069O6P3XU9/3D8IP2NPzs88ZoN/60AAAAAsMyWNBQ8/vTj9QdlWRD3k9hzxd/FE4/8p7PHPVviF9/Og7eqPLSrhoYTx+THzGW259/2XLyUPwQAAAAAmtUyjBS8Kt7Vk5/O4aVfPxW/G3/sXTddml/Jbd4WD+4cv9376tnAbuN1cd+04DDZevkF2e05zfL82Hl1vLtyNotJIwMBAAAAYIVa0lDw0J/fyM/O7bLLrxr/943Y8+tpgVvv/vjXvenkeLzWm12Z4fjh49ntVZeuyW4b0xePP/bC+G2NQLJee38VH/92+j8AAAAAoPiWMBTsi9feyk/rsOFDN8Rn00kK2CZP6b07jSCM2Pql7bFjY3rAdIfj5z9K4WN9IxKnSmsY/iT2vJD//0cr6wJWX3OGA6/GL/LTKXb+3dnRhgAAAABQcEsXCva+Ec9kg+dqjP4b97sf/SQL4M5u5nFpfO5LabRgxGfvqU7t/fu4K2VtW7bH3R+qPQrw+NP7KkHdzhtmhIYzX+OsynqH1UDw7+O+9P9v3lZ53Qe2x9b8cVUv/eyhbDTgZ+8Z/5ve+pUNRQAAAABYsZYoFOyLxx9Jo+22xF0p6Ns7M0RLQVwK4LIwbr5698cD2SjBcZPXHMzVfo3KuoC3pudt2R4/PeffUHn8nXu3xIPjj71j85rYcdv2eOPbj8fjs0xnBgAAAIAiazl96Nmx/Dz62q6NsT//PG/NXxpVd+feyoi/OzafnaKbteO5bMTdxOi8A5V23VKQd/d1sSEL634Vv0hrAT5wQ7x+dzpPwd22eHf+f068xpKovv64NH348/NcjxAAAAAAlsnFW/4xu13kUHDyGn2TA7mz16tqBna9+2N3rfX8podukx5XCR6nXdu5JX6x91yh4My/aboZz68jwJz4ewAAAACgYJYmFOw9HI//el88c/n2mmHc8d6+2HD0D7VH8VUDt9kCwJojBHdMXUdw/LE/ePGq+Fw8lU0Pri8UzEcX5lcz+WvGnM+fJv/7hYIAAAAAFFU1FFzcNQU3Xho7Pr9j1iBtw8bZA7aX9qUReFfFXTdNm4a78br4ws7x2xdeieeyNfwujTvSZiCPTAsEk/HH3jH+2hsu3ZBfAAAAAACmW7rdhxv07hvSNsM1diru3R//unf8dsu/i23TQ8BF8ULcedtD2S7FE0etKcwAAAAA0CSWZKOROc21CcikdQGnaHQjj2XZaGQa04cBAAAAKLgl2mgEAAAAACiqpVlTEAAAAAAoPKEgAAAAAJSMUBAAAAAASkYoCAAAAAAlIxQEAAAAgJIRCgIAAABAyQgFAQAAAKBkhIIAAAAAUDJCQQAAAAAomZbTh54dy8+jr+3a6OnpyVtzGxubeNqUcwAAAACgmFpbK2MEGw4FqwFguq0e1TYAAAAAUFwdHR3ZbUOh4OQgcHR0dOKoXgMAAAAAimvt2rXZbd2h4OQwcGRkZMohGAQAAACA4qtmf3VtNDI5EBweHo6hoaEYGBiI/v7+7LwaCgIAAAAAxVfXSMFagWBqd3V1xZo1a6KtrS1aWlryRwMAAAAARXbOkYKTRwmmqcLVkYEpDOzu7o729naBIAAAAACsIHVPH66Ggmm0YGdn58SihAAAAADAytJwKJikUYIAAAAAwMpU1/Th6m0KBtNU4bSGIAAAAACwMs0ZCk4OBKtH0tpa1wBDAAAAAKCAGkr3qqEgAAAAALByGfIHAAAAACUjFAQAAACAkhEKAgAAAEDJCAUBAAAAoGSEggAAAABQMkJBAAAAACgZoSAAAAAAlIxQEAAAAABKRigIAAAAACUjFAQAAACAkhEKAgAAAEDJCAUBAAAAoGSEggAAAABQMkJBAAAAACgZoSAAAAAAlIxQEAAAAABKpnCh4MjA8fwMOJ/GRgbys8WjvqEY1Dc0L/UNzWsp6hsot5bTh54dy8+jr+3a6OnpyVvjbzpjY9kxMjISg4ODcebMmez65McslqHTh6LvyPMx+M7r+RXgfGppaYvWjnXRse4vonPdVdF5wbuipa0zv7cx6huKRX1D81Lf0LwWs74BksKEgu+8+dvo7/1T3gKKpmv9X8aqjX89/uFjU36lfuobik19Q/NS39C8FlLfAElhQsFjL/1LjA715a3kSDx811PxZN6a8MHt8dNbLhk/Sfe/GFfu/kjcvDG7J/Pio4/Gfc/kjbgodk3cfzqefHBvvLnzlth1XXYn0KDWjrWx9rJtsWpDY0U0s77H9R6M/3LfvjiQN6fb/Jmd8U8fWpu3xu3fF7d+/2DemG5yrdc29b2h4uav1Hg/mP53TbznjMvuOxmf33NDXF+5Ak1j8eu7dq2kWvzZpdPqew5Hnv5tfO3w9WfrEGjYYtV3Vo+/PJa3qq6J3XmtN1rfwMLNt74BksKEgm+/8N/ys9lUQsKY+BI/MxTMvvTHpC/wWYgQ+QcVoSAshvZVG8c/eLw/Orvr/0Xy3PU9VfrS8b3YOjMU3Nsd/3znNTE1Gqj9A8FZldp/+MpJ7w2ZynvKq9PDx7kIBWlyi1bf8woFa9eyUBAWx2LU94x6nFbrteo7+3w+7Ue5CZtuqNGvA42aT30DJCtm9+EjT78YT45/cPjkrIHe6XjrzYib3zvpY8V1m2PXpoPx3P68DSzYcH9vnDn2xyVd6Pjtw9NHISxA76H4t9cuil0fnf6V45LY9ZVr4sDzh+JI1k7h4aNx6121jt/Gk73Zg6CpLW59H4z7atTTrOFA5sK4Yo4Rv8D8LUf/Xcv1t9wSP91T4xjvg4HFcb7qG1j5VkQoODFV4bWT8XZ+baa1ccWVEU/+ofL1PrP/QDz82jWxzchAWFRpwfGBk6/mraVx9SWLNPVo42Vx46Zj8fD/mfTekDkSD3//YGz+28vyEQpr4+Y7a3xpyY7r4837Ho1b55juDM1i8eo7TSmcWU+7P5jfPV3vO7G07yrAcvTfB365N/sB4OH8R/n0OX76jwPZMeuSIMB8LEd9A82n4KFgZeTO1355YeWLxVciG3VQ/ZAxXfolcnc8NenDxonYtds0P1gKQ6f/nJ8ttsqo35pe2xdfq9b3xFFj7dEpKmHflPeG/HlpOYLpUxhnfHl58GAcSaMK03vQ+PvJ5vxx0MyWrr5nd+TF1+NAnIi3slG5aSpxpQZnrl8GLMRS13daEzj9ADBluZ60Pm/+w8CUw9RhWFTno/8GVraCrimYrwH22vjp5EX+M9U1h9LInbnWEZvOmoKwmNpXXxwb/uqWvDW3Weu7DjM2HFlKNdZBq6yPdENc/ct9efh4dkF1aFbzr+9cVksNbCRU7ds/c2E8/PzUtUOtKQiLayH1PTF7Z4q5NxpRw7B8GqlvgGQFbTQyXe0FyWcnFITF1NLSFj3vvSNvza3x+j5/ZnzhmbwIuo1GKInlru9sI4J8o7DpoYJAARbXUtb3rKHgHCN+b57YRBBYqEbqGyBZwaHgVNkXijkWL9/8me1x4/NPCQVhkSxbaHCOEUdTTNvF8FzvC5P5UgJnzb++GxkJfFHs2v2R+JsXU2CQlgmphu3pR7+n4sl8poBQEBbXcoeCFVN/zFfXsDSEgkCjCh8Kzv3rYuULxYyRgjVH8xgpCItpwdMLGx7tO8k8RuzVGn30vdha44tLMluwYeow5bDw+p5s9v630sdPDgSr0nN+F/HFPDQUHsCiWYz6Tn3qc+9t5DO1UBCWg+nDQKMKv/vwJR/6SO2Fifdsj5vzxwDLr331RflZs6kEGP/2t5WF0qcc2WZH++LF/JHQrJarvit9fK2gPW0QNI8fDIBzWrb+e/++SRt3pU3BjsXDaSf/6gZCz0zaAOzRI/mTgIVo3s/nwFIpfCgIFFPH2svzs2ZzOt6cc+pjdXdUaF7NW9/AstX3dTfM/HFttsOIQVgU+m+gUUJBoGGdF7wrurqvzlsLcXbUwIzjwYNxfsYNXBK7xr+gfP7w3pl/097u+Oc9Ri/R3BavvoGiWcz6fvL70/rI6mHUH5wX+m9gPppmoxFgebSv2hhrL3t/dHZvyq+cm/qGlUF9Q/NS39C85lPfAElhRgq2dqzJz4Ciau1YG6sv/puGP3Cobyg+9Q3NS31D85pvfQMkhQkF03BnoLi61v9lXHDlf4hVGxrfvlt9Q7Gpb2he6hua10LqGyApzPThodOHou/I8zH4zuv5FeB8amlpi9aOddGx7i+ic91V2ReDlrbO/N7GqG8oFvUNzUt9Q/NazPoGSAoTCiaD/Sfj5NGXo//UsfHXHcmvAkWRPoisWndRdPdcG52ruvOr9RkYGIjjx49n7yPpfQUolpaWlli9enVs2LAhurq68qv1GR7qjzOnjsbwwCn1DdOk2mrvWher1/VEe8eq7Npy9okLqe1E/w3FttAaB8qtMKFgCgSPvv67WL2qMzo6OqK1tSW/ByiK0dGxGBoaijP9g9Hzrq11B4Pp/ePo0aPZB5ZKfdv4HIpmdHS0Ut/jfX3q5zs76xt5kALBU72vjdd2e7S1tY1/OcnvADIpR0ufpYeGhmPdxk0xOta6rH3ifGs70X9D8S2kxgEK07OnEYJrVndFV1enQBAKKtVmqtFUq6lm63Xy5MlYs2ZN9uulLxRQTKk2U42mWk01W680QrCzsz3a2wWCUEuqi1QfqU5SvSx3nzjf2k7031B8C6lxgML07mnKcBplABRfqtVUs/Xq7+/PRhgAxZdqNdVsvdKU4TRCEJhbqpNUL+erT2y0thP9N6wc86lxgLZv/ucv35ufx1DrxuwXhumqU4iHh4ezdq3HLNT/e/v/jv+/q/MWUGRp7ZK+M2di/cXX5lfmduLEiSV53wCWRl9fX6xfvz5vze3MO29HZ6fQAOoxODgUAyMd561PbKS2E/03rCyN1jiAeQAAAAAAUDJCQQAAKKhXXnklHnjggbjnnnvim9/8Zvz4xz+e2PwPAGAhhIIAAFBAjz32WHz961+PDRs2xKc//en46Ec/GgcPHoyvfvWr8dZbb+WPAgCYH6EgAAAUzP79++OHP/xhfOc734nbb789tm7dGh/72Mfi3nvvjW3btsX999+frfsNADBfhdlo5OTRl2PN6lV5Cyi6M2f6G9poZPVqGwnBSpEWKr/wwgvz1tzOnDpqoxGo09DQcLbRSD194iOPPBLXXHNN7Ny5M79y1nve855sGvH1118fPT09+dVza6S2E/03rCyN1jiAkYIAAFAwb7zxRhb61dLV1RWbN2+Ol19+Ob8CANA4oSAAABRMmplz7NixvDVTb29vrFu3Lm8BADROKAgATWTPnj3xqU99quaR7gNWhrSG4G9+85sYGhrKr5z1xz/+MdtoJE0jBpqD/hs4H4SCANBEdu3aFevXr89bZ6Vr6T5gZfjEJz4RnZ2d8d3vfjdOnTqVX43405/+lAUEH/jAB+Liiy/OrwIrnf4bOB+EggDQRGb78jDblw2gmFIg+K1vfSvb8O+LX/xi3H333fHlL385vvGNb2TrCf7+97/PDqA56L+B88Huw8C82H0Yiuvqq6+OQ4cOxauvvpq1P/zhD8ett96andfD7sOwNLLdh4fb6+4T04Yi27dvjxtvvDH7/L1ly5a47bbbYseOHbFp06a4//7748orr8yOeth9GIptOftvgMRIQQBoQrfffns2siAd6RxYua644opsOvFNN90Ul19+eXYtrTmYRg0+8cQTWRtoDvpvYDkJBQGgCVW/TFS/XADN533ve1/ce+/EpB+gCei/geUkFASAJpWmHaUDAFg59N/AchEKAgAAAEDJCAUBAAAAoGTsPgzMSyO7Dx8/ftzuhbCCpN0LN2zYkLfmZvdhqF/afbi/gd2HF1sjtZ3ov2FlabTGAYwUBAAAAICSEQoCAAAAQMkIBQEAAACgZISCAAAAAFAyhdlo5J1jr8SqVZ3R0tKSXwGKKr0n9A8MR3fPNfmVuZ04cWK8vm0kBCtBVt/9/XUvVN5/+lh0dLTnLWAuw8Mj2UYj56NPbLS2E/03rBzzqXGAwowUXLXuomxHNqD4Uq2mmq1X2rlwaGgobwFFlmq1kd1G27vWZT8cAnNLdZLq5Xz1iY3WdqL/hpVjPjUOUJhQsLvn2ug7MxADg4MxOjqWXwWKZHR0NAYGBqOvbyCr2XqlXyz7+vrGnzuQ/R9A8VTqeyCr1UZGGaxe1xODg8MxPDISY7pvmCGN3kkjBFOdpHpZ7j5xvrWd6L+h+BZS4wAtpw89O/ERvq/t2ujp6clblQ8x6Ui/bA4ODsaZM2ey65Mfs5gG+0/GyaMvR/+pY+Ova9QBFE1LS1s2QjAFgp2ruvOr9UnvISdPnsymNaT3FaBY0vIdaZpgd3d3dHZ25lfrMzzUH2dOHY3hgVPqG6ZJtZWNEFzXE+0dlam4y9knLqS2E/03FNtCaxwot0KFggAAAADA0rP7MAAAAACUjFAQAAAAAEpGKAgAAAAAJSMUBAAAAICSEQoCAAAAQMkIBQEAAACgZISCAAAAAFAyQkEAAAAAKBmhIAAAAACUjFAQAAAAAEpGKAgAAAAAJSMUBAAAAICSEQoCAAAAQMkIBQEAAACgZISCAAAAAFAyQkEAAAAAKBmhIAAAAACUjFAQAAAAAEpGKAgAAAAAJSMUBAAAAICSEQoCAAAAQMkIBQEAAACgZISCAAAAAFAyQkEAAAAAKBmhIAAAAACUjFAQAAAAAEpGKAgAAAAAJSMUBAAAAICSEQoCAAAAQMkIBQEAAACgZISCAAAAAFAyQkEAAAAAKBmhIAAAAACUjFAQAAAAAEpGKAgAAAAAJSMUBAAAAICSEQoCAAAAQMk0FAq2tLTkZwAAAADASjVnKFgNAdNt9UhGR0ezWwAAAABg5TnnSMHJwWBra2uMjY3FyMhIdg0AAAAAWHnqmj5cDQTb2tqydl9fX3YLAAAAAKw8DYeC7e3tMTg4GKdPn87vBQAAAABWkrqmD08OBTs6OrLzNFrw+PHj0d/fb41BAAAAAFhBWk4fenYsP4++tmujp6cnb52V1hFMRwr/hoeHs2NoaCi7TVJoCAAAAAAUWyX7i/j/3pAHBS/g/28AAAAASUVORK5CYII=;" parent="1" vertex="1">
          <mxGeometry x="50" y="29" width="1285" height="161" as="geometry" />
        </mxCell>
        <mxCell id="EAp16Kz88traqYo4ZruH-4" value="" style="shape=image;verticalLabelPosition=bottom;labelBackgroundColor=default;verticalAlign=top;aspect=fixed;imageAspect=0;image=data:image/png,iVBORw0KGgoAAAANSUhEUgAAAuUAAAHcCAYAAABxp9QGAAAAAXNSR0IArs4c6QAAAARnQU1BAACxjwv8YQUAAAAJcEhZcwAADsMAAA7DAcdvqGQAAHRdSURBVHhe7d0JnBxVuffxZ/Ylk0lCJgsJhCRsCQESEJAgoCzhsgnhBRQViYi4ICIgm8gmogjIoiIuyEUErihwAUV25Qpc4AoCQZYQQsIWSMhkT2afydv/M3UmNZ3unu6Znuma7t/3Q9FdS3dVT+qp89SpU6eKLr744g0GAAAAIGeKNsQE7wEAAAAMoEsuucS9Frv/AwAAAMgZknIAAAAgR3yjFZJyAAAAIEeUlGsgKQcAAABypKGhwQ0k5QAAAECOlHassLINK0jKAQAAgFwjKQcAAAByjKQcAAAAyDGScgAAACDHSMoBAACAHOuXx+z3w1cCAAAAOVNUVBS8y67zzvyyFRcXZScpD38FCTkAAADyUTgxz1aSnpWk3H9Ur37w4wAAAEC+8Em4Xv3gx/uiz0m5T8I1dHR0dA1+GgAAAJAvfCJeXFzcNfhpfUnM+5SU+8RbSXh7e3u3gcQcAAAA+SSckJeUlHQbwsl5b/ikPOPeV8IJeVtbm7W2tlpzc7M1NTW59z4pBwAAAPKBz32V6yrnVe6r98qFs1UhnXFNud+ocEKu8b899oTdfdf99tJLr1hLS0uwNAAAADD4lZeX24wZO9rRxxxuBxy4r6shr6iosLKyMistLe2qMc9Ur5qvaFENaqbiE3Il59f//Cb73c1/CJYCAAAA8teXTvycnfqtk1wy7hNzNWXpTTOWPjVfUc24EnMl5I89+gQJOQAAAAqGcl/lwMqFw/dU9kWfknL577vvd68AAABAobj77r+415wk5X5lPjFX9bzakAMAAACFZO5Lr7pcOJyQ9yUxTzspD6/MD8JNnQAAACg0PgeOz439a6Yybr7i9XaFAAAAQL7IVk7c66QcAAAAQHaQlAMAAAA5RlIOAAAA5BhJOQAAAJBjJOUAAABAjpGUAwAAADlGUg4AAADkGEk5AAAAkGORS8q/+MXP2P0P/MEeeuROO/2MrwdTN3rs7/fYO+/Nda/JHPX/DrOrr/mBXXX19+2gg/YLpppdedUl7rOvvf60/b+jD7f/+sNv3Pj/Pfeo7fWJPdwyetW4picbrr/hSres+O/UoPfxfnPjte633P5fv7bp06cFU7vT79Qy+t36/QAAACgskUvKR48ZZVOmbGvbb7+NjRw5IpiamcmTJ9qRsw+xo446zHbaeYdganZ0dHTYyhUrg7GeTd56ok2dup1ts+1kG1IzJJja3bhxY90y+t36/QAAACgskUvKx8SS0rKyMmtvb7dVq9YEUwfO0//7T/v47rNsqy2ndxv+9fxLbn5TU7MtWPC2ew8AAABkQ+SS8i22GOdeW1pa7b33Frv3maqr28xKS0uDsb773OePtm2329q9X7Fipb304svufSaGDx9m37/0PNdMJX7YZ9+ZwVIAAAAoRJFKyj+13962/ZRt3Pvy8jKbOHGCe5/ItttO7mrLrbbhYSUlJVZUVGQtzS22aNE7wdTe0XrmfOk4q60dahs2bLB//WuuHTjrU7Zg4fNu3Z897qhgydSam5tt/htv2euvzd9kWLTwHWtraw+WBAAAQKGJTFKu9tYnn/xFGzlyMzeuJixfPOEzdvwXj3XjmfC17bHM3NWY+5tD002gPW3TJd8/17X1ltWr19hjj/yPXf2TX9g2k3dzzVr+eEfyG07DGhub7Pbb77QzTv/eJoMS/Q0bOoIlAQAAUGgikZQr+f3Rj75nM/faw9Vwv/HGAntrwSJXO33ed0+3b5321WDJjd58c2FXe+/Pf27jfH3X2LGj3fuqqkrbaaep7n2mVEP+nzf/zD6x98fdNsmQIdU26z/2s803H+PGAQAAgGzIeVKuBPeGG660Tx9xiJWUFLva6N/eeKv9/Oc32tKly2zo0BrXZeAf7rjR9py5W/Cp5A488JNWN2qke19cXGy77jrdDtz/qIxqtU/6yvH2hz/G1rfnbi4h/2Dxh3bjb37vbvI84oiD7W9/v8d+9eur09oeAAAAoCc5TcqV4N73l9tdW3Il5KtWrbYrr/iZ/emP99o9//1Xu+D8H9rbb79rpaUl9rHdpts++/R8Q+Qee+zqEnlvywnj7cjZhwZjqf3Hwfvbw4/eZRdedJaNGlXn2pC/+OK/7ZRTzrHLfnC1XXjBj+zdd993tfH7H7CP7RfbbgAAAKCvcpqU//nPD9mTTzxjbW1ttmjRu3b2dy622269M5hr9sgjj9txn/mK/elP99rPf/Zbu+rKnwdzEttl151doqwa8vr65bZy5SrXBEbJfzqeeur/rH7Zcvd+7dp1dsvv7rAvfP5r9uILnb2t6EThM8d82b3efddf7PIfXedu4Fy/br0b9D4ZNalRbb+/OTU8nPbtr7o29AAAAChMRRtUHZwGLaZB/Ye3tLRYY2Ojm/6xXQ5wr32hmux//t+/7MMPlwZTktMTMidstYW9+8779tWTzwimdvrpz35kRxx5iHv/X7ffbUNra1xCrgT7Rz+81nbZZSd3s6cS6Asu+JEdc8wRrs34kiUfuRsu1Ue52pKrxlxJdzrbkyk9SfSyy853te1qF6+mNQAAABh8/vXi39xrVVWVlZeXd/UA6O9HTMd5Z37ZiouLonGj5333PuASYCWq3zjly/bQw39yj8J/+92XumqT31r0gr049x/uZsvf/PqWTRJy9dKy/wH7ulryxYs/tLvu+rPd8Yf/dt+r2vLPf+HotP5ASpSv//lvuxJyJdF6RL7WrW3w26Nt0zaqZ5dzzj3NbTsAAADQG5FIykU11Opv/NzzTrNJkyfaI4/8j+tVRTdo7jB1Lzv3nEtswYKFroeWq35yqV19zQ+CT5p95rOz7cwzT3HJt27G/K/b73JNTlTz/d933++alUybNtV2221G8In0aB1al9apdWsbtC2+x5cHH/yba5Zyyje/bHfffbP7DQAAAECmIpOUH33Mp23HHae4JjJ33flnO/3b57ukWtTcRNO+NOdUe3nuK+7GTzUx8TdwNjU22dp169wDeO7/y8N2wy/+000XtUP/y58ftvnzF9hrr80PpvbssMMPsgNnfdKtS+vUurUN2hbRtn3nzAtdbXx7e4dNmbqdffmkL7h5AAAAQCYik5SnQwlxR8emD9nRDaO6IfTMMy5wiXI8TTv4oGNt/frOhDpTaiOUTKLH+V951SVdzVzih2uv+2FXUxfVrCdaRsP/Pfeo7fWJPdxyAAAAyG+RScp1Y+Urr8xz7b6P/cwR9osbrupKSpXEHnPsEXbn3TfbjF12djXiDz/0d9cW3VMb8PB4X/31/kfssUf/4dalWvDf3XK92wafUGvb1LzlM5850nXnqLbof/rTfW7eOWdf0vVgo94OH999VteVAgAAAOS3SPS+4inhPeGEz9qRRx5sEyZsYdVDqrtuzlRyvGbNWnvt1Xl2991/cW3FM6Ua7J56X4mnGz2PPvrTtsO0Ka7NupqziP4WDesb7IPYycAjDz9uv/jFTV1NWwAAAJD/stn7SqSScgAAAGCwyLsuEQEAAIBCRlIOAAAA5EhjY5MbSMoBAACAHKmqqnQDSTkAAACQYyTlAAAAQI6RlAMAAAA5RlIOAAAA5BhJOQAAAJBjJOUAAABAjpGUAwAAADlGUg4AAADkGEk5AAAAkGMk5QAAAECOkZQDAAAAOUZSDgAAAOQYSTkAAACQY0UbYoL3KWkxDe3t7dbS0mKNjY1u+i7TP+leAQAAgELy4tx/uNeqqiorLy+3kpISKyoqckO6zjvzy1ZcHPtMX5Pyuro69woAAAAUkvr6eveajaSc5isAAABAjpGUAwAAADlGUg4AAADkGEk5AAAAkGMk5QAAAECOkZQDAAAAOUZSDgAAAOQYSTkAAACQYyTlAAAAQI6RlAMAAAA5RlIOAAAA5BhJOQAAAJBjJOUAAABAjpGUAwAAADlGUg4AAADkGEk5AAAAkGMk5QAAAECOkZQDAAAAOUZSDgAAAOQYSTkAAACQYyTlAAAAQI6RlAMAAAA50tjY5IZIJ+XtzauCdwAG2oaOVjdkG3EN5A5xjULQX/t5f6mt2zo2bGNFG2KCaSlpMQ3t7e3W0tISy+gb3fS6ujr3mk1tTfXWuGyuNa1aGFtxWzAVwEArLq2ykophVl6zhZUPnWCl1WOCOZkjroFoIK5RCLK5n6dSX1/vXquqqqy8vNxKSkqsqKjIDem68MILrbi4OJo15Y3LX7OmlfMJcCDHOtoarXX9Elu/9Hlbteivtv7DZ3pdI0ZcA9FAXKMQZHM/HyiRrClf/trv3B8zbO68pXb5r58Mxjb13a/tY9OnbDwLeuiJBfa7e14KxrobN3qoXXzqJ23Y0MpgSnfNLW123S3P2ouvLQmmmA0dUmEXnLKvbTVuWDClU/x6wtuheYuXrrGTjt3VjQP5oHzollY9ejcrGzI2mJKeRHGdyjsfrLab7nrBvnPizK5YvenOF+zRpxe69/F22WGsnT5nT6soLw2mAEjXQMW1Yni3ncZ3K6/DcR1fPmve+DG1dvC+27hxoC96u5+nks2a8kgm5cte/mXwLj2JgjxZQpyooA9bvbbJvn/9P+ygT2zd7SCgz112wxN26vF7dFtPKiTlyFcVwybZkLF7WknF8GBKzxLFtY+3Dz5au8mJb0+xGqaT9oeefJOkHOiDbMW1+Mqtg/fZdpMEPFxeq5yc+8aSrtiNH0+VlPdUWfelo2Z0+1yq5XuqrEP+6M1+nkreN1/JhAK/flVDMNZ3by9e7V5n7rKFe/WUKBx90FR7/t+L3bgShpMv+Isdd8ZdmwxX3PiU2y4gXzWvXmRNK14LxnpHMfKrO563ObGC845rj3EJ+U9jhbhiKxkV0IliLlXBDCA92YjrTOgYoARcibs/mVbZu7R+vc05914X28mujIkSex07Eg2z9ppsm8cS7Xi6onbLFbM3Wf6a7/4HCXmBGOj9PBN50SVidWWZDa/NTjBNHN9ZS/fMi++7V0+Jwt2PvO7O8EVJ+o2XfXqTwNagA4wOKMmaz8Qramqxmh/eYaWvvmO1373Zyp5/M5gDRFfjinnWuq7zJLU35i1c7l6nTB7pXhVT07YZZa8vWObGk1HtV6K4O/fkvdOqJSfegOT6GtdeU3ObrW9s7VXZXDOk3K44e5aLayXXUcLxIz9kaz/PtkGflCvwl61MXFOuM+z4GrVzr3rU1q1vCZbYlM6UL//OAe7sPfw5NV1RTV74MpzO8lUrHl5Ol9782buSh3QUrVxnJR+usKE/+qOVvLvMSud3PyEAomhDe7O1ru/9Qe3Dj9Za3fDqbom0LlOryVcqOtkNx5wfdOUqVS27R7wByfU1rj1ddZ6/aLmtWtMUTNmUYn/69mNd0zN/dVkVYkOqymxs3RA3norK20THAg3Pzl2ctcq6MI4f+SFb+3m2Rb5NebjNaTrib/jsT/FtxrWtV9/8jO0ydaz98YFX3TSd5adqU66z7qHfv90qHngumGLWvvlmtvqGU619cvZuRAD6g26aGTbp8GAstfi2p/HxI+FpmbQpTxfxBvSsL3EtSrDVnlxXsVVpluxmbd/mW3HvryzH37Cdqk15Mr4sPumYXbt1ztDXe084fuSXTPbzVLLRpnzSpEmdn4l6Uh5l/sAT7qUlfGNJoqQjmSE/vdfK/znfvV/zgxMIcAwKRaWVVrfDicFYavFxnaiADBfA4aRctWfpNgdLpxcW4g1Iri9xLSr7/M2ajz/79iY3bsZ3zNBX8Ul4shP6VDd6JuthLRGOH/khk/08lezd6PlR/iXlPd2NHRauxU6UYCeTSfCmo2ThEqu98Pe29vzPWvVtf7f2sSNs/bdnB3OBaBu18zeCd6nFx7WPOd87gwpS3ej57Vjhnapg7SviDehZb+NaZfD1t/2zWxmpRFwdMigxv+2+lzdJypPVbEs6NeXxn+9rjXgqHD/yS7r7eSoF2SViXwroTAM0PlmQVGf32ja1OV+7vjmY0qmnpivAYFdSPtQ2m3J8MJZaorhWYZpJl4iKw2S9MdClGZAdvY3rRAm555NrXT1OlJSnaqYa37VhvFRJPZBMJvt5KgVZUx7VpFzbFa7dC9NnhMQc+apsyHgbvvURwVhqieI6lWRJeaJas74cHwB0159xnagszbSmvKckPkwn+ycds0vs+PDiJhVnifAQssKRyX6eSjbblOdFl4i5pDvL16bozUWX7JTkA/morIa2lEC+iXpc68Rb/YqHu0RNNqjr4j1nbJG0C+P4Id2uVTH4RWk/P/744+2LX5w1uGrKEzUR8VI1Fenv5ivJztp7uuQGDGZFRSXuzvWymnHBlNSyVVNO8xWg//R3XCerKe9L8xUgU5nu56kUZJtyANFSPWq6Ddl8r2CsZ8Q1EH3ENQpBpvt5KtlLyhtovgIgc+W1W1nVyJ2CMQD5gLhGIYjifn7bbbfZrbfeE72kfEN7i5VUjAjGAESNO6DVzbDi8qHBlJ4R10C0EdcoBL3ZzwdCZ5vyL0YvKS8qKbfyIZsHYwCiQm3wqkfNsJpxe1t5hu3wiGsgmohrFIK+7OcDKZJtylvXf2jNK+dbS+y1vXllMBXAQCoqLrXi0iorKR9mpUPGxg5k461sSO8PZsQ1kHvENQpBtvfzVPL+Rk9pbm62VatWWUNDg1svgGjQgaa6utqGDx9uFRUVwdT0tDSttjX1C61p3bJYXHcEUwHkWlFRsVXWjLLauslWXpnZA3jaWhutcV29tTaviyULwUQgkVieWlZRY1U1dVZaVuUmDWS+15fyK5m8T8r1/fqR+oFlZWVuQwFEQ0dHh7W2trpjgOJfB6F0KCGvf/c5q6osD+I6/QMWgP7V0bGhM66bWqxuwu5pJ+ZKyNeueNfKy0qDZCSYASSgjNPlka1tNnSzCdaxoWRA873ell+pZDMpj2S2u2bNGncmo7MYEnIgWhSTik3FqGI1Xaohr66qiH22nIQciBjFpGJTMapYTZdqyPX8j9JSEnL0TPuI9hXtM9p3Bjrf6235NVAimfE2NTW5MyYA0aUYVaymS01Wysp4Uh4QZYpRxWq61GRFNYNAJrTPaN/JVb6Xafk1UCKZlOvygvgmMwwMDNEbxMdqOtSGPJPLeQAGnmI0o/s9aEOO3ortO7nK9yST8mug0DYEAAAAyDGScgAAAETeokWL7JprrrHzzz/fvve979mtt97a1fFIPiApBwAAQKTdf//9dvbZZ9uIESNs9uzZtv/++9tbb71l3/zmN23x4sXBUoMbSTmAQWX1mnX21dOvtJf+/WYwJbWm5hb7/pU3218feTqYsnHa3oec0jWEv0/vtQ6tCwCQW2+88Yb99re/tcsvv9xOPPFE22OPPeyAAw6wSy65xD7+8Y/bVVdd1dVWfDCLZD/l77zzjo0cOTIYS013z1555ZX2r3/9K5hitsUWW9gPf/hD1zk8gP6zfPly22qrrYKx1N57/SEbuVl6Mfn2e0vsrAuutyUfrXDjXzj2IPvGl2e790qUz77oBjvlpKNsxk7bdo2/9sbbbr43a7/d7dxvf8G9v+Knt9tuM7a3ww7ay433REn5DTfdY1ddeooNq60JpgKFYfmKVbbl1IODsdRWfPi6DRnS+RCYZNra2u3JZ1+1+hXdu6Cr26zW9tlzmusiT/2j//3JuTZ9x0k2dtSIhMuLumzcf5/p7nkHyaxYuc6eePYVa21tc+OJPvN//3rD3l3c2ctMeDvEb0tDY7MbV480++65o202YtNjgf9tWsfHP7Z9MHXTbZi5+xTbYvON+VJ4/TJtyla2w3ZbBmOb/s0mjB/V7ftfm/+evTrvnWCsU/zv9L9DUv3Nkv2GnrYxTMvq7xX+O/Zk/fpGW9tSnVa+d/XVV7seU0477bRgykZ6+NCcOXPs4osvtqlTpwZTe5ZJ+ZVK3vdTni61LTr55JNt1KhRdt9993UNhxxyiD311FPBUn3zy1/+0l0y6U8DsQ5gsFBCfPxXL+1KyOX2Ox9xNduq4Y6npPk3151jTz14Q9egJH503QirrNi0EFKNebiGPDwkWweAvlNSd+wRe7vhqENnumn/mrvAvYYpqdtv7527lvWDElMl0KkSciWiz7/0pkui/ef0mWefn+eST1FCqwRS26D5Skb9dmgZLauTA//57bYeb888/7r77njzF37QlXh7Wk7L7zZjG/f5A/aZYXNfWeQSdXn/w84kzn+/tmPpRyvddnnaHm2Xn6/tDc9fu7ah299Tw2Gzdu/622gdDz/+gtv2stLUXdEm+g3pbKOnZXXy0NN6+uK9996zadOmBWPdqd/x7bbbzhYs2HRfGiz0QCMNgzYpVw25Gvjvtdde9o1vfCOY2unwww93w0BTYn3kkUe64dJLL92kD0w9RlZtnzRfiTiATan2O5xg3/abi2yH7SfanM8dkjDJjqea8xdfnm8zd098AFdt+WP3Xudq0r2xozdz6znykL3twNmn26nnXBvMAdAflHiPGT3CJZs+WU5FyaASv52nTQqmJKak9KD9dulWq73t5PGxhKfdWmPrUcK86J0ltu3W47pqdDVf362k2Z8QhGu1J00Y4xLOxsbuSbmWX7FirY0ZMyKY0mnRu0tdQq0af9G26MTgzYWd7Z713eEaaf+3UKIt+l5tj7ZLNF/bq+0OnxjUDk1+hULrmH3InjZyRG0wJbFkv6GnbfS0PW++9YFL/lvbuif22aSH/ahmO5kVK1ZYTc3gv6o5aJPyDz/80JYsWWIHH5z6Els4EY5PllXTfsopp9iLL77YbRmN+8899NBDduONN7rpSrr99DvvvNO++MUvdi3va7p9bf2uu+5qN998s5smmq/LK6rF1/wtt9zSrrvuuoTrAAbCtdde27XPxw+aFwW+1lxNVSZuOTaYmtpTz75s48eNihUWza72W0n2o48/F8ztdPPtD7iadJ/4n/iFQ+1HV//eJm21uRu//sozgiUB9Acl4qp5DSfHyShxVEI6c7epKWvJk2mIlfk+YVRirQQ7nKwquVUSreUS0WfiE04lo6qR32H7CZvUECtxVQIb/l3jx41MegLiTxQ8bYe2J5x0a3sTnRj0RarfEC9+G8VfVdC/YVVV5v8umVAb8scee8zVJsd75ZVX3I2eO+64YzBl8Bq0Sfmrr75qY8eOtc033zyYsikl3d/61rfsK1/5SleyrKYuaoPuE/O1a9e67nXOOussN183DehmAvnFL37hkn41kdG8cO3766+/7hJpTd9ll102qZ3XZZa3337bJfHajj/+8Y/uu/0yej399NNTrgPoT1/+8pdt2LBhwdhGmqZ5ueRvxLzsJ7fYD87/intNp2mJmqYo4Vat+szdd3QJdnyteKKa9L333Nk1g1m5mhs7gf7y6rx37M4/P+WG+x99zqZPm9ytRjoRJX5zX10YO2Eem7BNd0/0edXk6vNK6JXwlpWVxJLQjQmzkmclwWvWJu5aTzXcqukOr//lVxfZFuPrNtkmrU/Jd3wtdnVlZVdtvadmH+5v8cg/3bi/CqDt0PaEk3ptr7Zb2+/X8cxz87r+nn+N/T2VOGci2W8IS7aNomYv2s6e/g2z4dBDD3XttZW/rVu38Tg9b948V4k0c+ZMl98Ndnnd+4oS92233bZbw//Pfe5ztnTpUpdUe2eeeaZNmtS5o+lVl0BWrlzpxpP59Kc/bZWxIAtT8u1rz5Vw+x1HiXltbW3XOoAoSJZ8J0vWB4Ju8DxmzgWudls3Zt51y2W23z67uleNn3budbYqQeLsk/j7HnjKbvr5eSlr1ZV877LzdrEC7dVgSmftupL1RW9/4GrXab4CZF+4DfThs3Z3yfbjT73sksxkfFvv7SaPc6+Z6uvnEzWb8e2tk930mC4ls+5vcdAesb/NhLSvAihZj29zr5MOtSHXVYV0pPsbkm2jb/bysenbuPH+poRcHXiow5ETTjjB5W2qcD3vvPNce/LnnnvODYNdJJNy39NLT0NPy+rGAJ056SYAP03vx4wZY++//777/NChQ10vLeHPef59eF6yaWojftFFF7nmMffee69rmqLkXvO0Lq0zvB3hIdH3MTAMxPDJT37SPvWpT7l9UPRe0xItm2zIJiXTSsBVw62236r59jXkGtcNncOHbazV8cm4kng1R9H8dHpLUXOVj+pXdt3gqdr1879zgjsBoPkK0P+UWO652xRXe5yshtrfQKjlwrXG6err5xM1m1FttGree2rbnglXg9/Y4now6S2ddAwbWm1LlqWuUJTe/IbwNuok6rU33nXNXnrzdw1LVKYkG1S5qQcG/exnP3PdIX7mM59xrQ3OOecc19pBtehPP/10ws8mG6Jm0NaUq+3Q+vXrN7mZMhfUTOXf//63S8gnTpwYTAUGhxNPPNHVjGvQ+8FEN35efM6JLpH2XSamw39ON3fqJk/19KK26z5Jv/VPDwdLAuhPaqudqC23EuLnX1rgekFJtwY5TAm5Ph/fDj1RMxLfHCRM61eXhlp/uHnH8pVrXKKv5hy+6Yia5ajrQL1XUpyoKYx+Y6obIdXcRd+rhFnv49ufa3vjtzFMybHWm46efoOvRY/nt3HZ8tVWH/uOvz35Utfn1ZRG8+554JmEPbRk0/jx411zllmzZtm4cZ1XQNTmXLXmDz88uI/dgzYpV3vyIUOGpOz6UP2VL1u2rFvirvdqvqJ/1GxRUxf1RxnuF103HvjmKzqB0E2pGoCo8cm4T85zKb67wsuvvc3dpKmacD9NTVQS0Wd/+Z/3BmMb+QQ8vo9yfxPpBWfNcUm9H9QGvXboENfEhT7Kgf6jNs1KJH0vJZ6SUTVtUY8evWmv7BN6dUkY317a35AYvmFSCa8Sdb8dSozVpWGi9fvmHOFBzXLUXaPea/7QodUW30uJkvSeunP0Ep04JLpBNcyfWMS3ZU8knd+Qiq5WqmeX8OfVD7t+31GHzuxzs57eUgcbundvMBu0Sbnac6v99p/+9KdNeizR+K9+9SuXDL/55pvd2o/fcccdrilJJh3M+6YuyeiRr2vWrHFtykW9sfibRUW15zvttJNrZ655oldto9fTOoD+pGYr4WYsuaLEOZwgJxqOPHTvYOm+WfzhMtefubpgDFMSr64RdTOo2pkDyI7wjZ4alEQmetiMEtjVsaQ2fnkN9z74rEu6k0mVUIuS4mG11S7p9zXROjnQTZRKaDVNPYoowextcqnk/sOPVnbVOGt757+12PXAImoCEq5N1jarH3N/M6q2Q9uj7RJ/kqLt1nx9n28r7/nx+BOc3uppG5Fd6gxE+Wkkn+ip5iDpPtFTN1FecMEF3ZLaj33sY3b22We7xD1+fnie1qNHs2rcNzvR8j/+8Y/t61//upumZdRWXEm3PvvVr37VfvCDH9hJJ53kel3xdCLgE3Etd+yxx9rvfvc7dznF16DHf1d4OxJNB6JO/cam22Qrkyd6puKf4Omf6Omppvzd9z9KuxmLasp1Q6faj4e/R+3U9QRQtVHPpEkMkC+y/UTPdCjp80/07KmmNhUlkkrm48U/lVNJZ6IneiqRVlOMROKfypmKb/6S6ImeSrLjn1iqmurwSUD8MvFP9Axvv4R/Q1jnVYM3bZ+Z0zJKptPZxr7SEz3XNFelne9lWyblVyrZeKKncsXi4mWDPykHkDtRS8rV3CWZ8KP6vfjH+XvfPeP4TZq7AIUiF0l5JpIlzvGJK6KNpHyjzqS8OJpJuZqBkJQD0aeDWrpdfWYrKQfQv6KelCM/KClf3VSZ06Q8G11VZ7OmPK/7KQcAAACirLNN+eMk5QAAAECufPazn7XjjtuPpBwAAADIrTEk5QAAAEBurY9uUt7R0dF1cykDA0P0BsVoJoqKit3nAESXYlSxmrb072UDugv2nVzke5mWX/2ts035X6KZlFdXV1tra2swBiCKFKOK1XRV1ozq6rMXQDQpRhWr6SqrqHG9sgGZ0D6jfSdX+V6m5Vd/62xTflw0k3I9bKehocGam5sjdzYDFDrFpGJTMeofjJWO2rrJ7gl+zS0tse+gxhyIks64bonFdbOL1XRV1dTFYrrN2mJJ1gbCGj1QLbUeTNTc3Ob2nYHO93pbfg2USPZTLlqHnnDZ1NTk1gsgGtT3qp44W1tb6/pkzURL02pbU7/QmtYti8U1J9xAVKjJimrIlZCXVw4LpqanrbXRGtfVW2vzuliyEEwEEinqvLqihLy0rLN/+4HM9/pSfiWT9w8PAgAAAKIum0k5va8AAAAAOUZSDgAAAOQYSTkAAACQYyTlAAAAQI6RlAMAAAA5RlIOAAAA5BhJOQAAAJBjJOUAAABAjpGUAwAAADlGUg4AAADkSFlZmRtIygEAAIAcIykHAAAAcoykHAAAAMgxknIAAAAgxyKdlG/oaAneAciJDR3Bm+whroEcI65RCPphP+9vRRtigvcpaTEN7e3t1tLSYo2NjW56XV2de82mlrXvWfOqN6y14SNrb14dTAUw0IpKKq2kbIiVVY+x0iGbW/nQLa24tCqYmxniGogG4hqFIJv7eSr19fXutaqqysrLy62kpMSKiorckK4LL7zQiouLo1lTrgBvWvkmAQ7k2Ib2JmtrWm6NK16zte/9zda+/w9XCPcGcQ1EA3GNQpDN/XyglFwSE7xPi68tb2trc+PV1dXuNVt0CWz90udif8zmYErPbrrzhdiZSbGNrasJpqSm5T9avt622WqzYEpyq9c22Y9+/aRN3nIzGz60MpgKFKb25lXW1rDUiorLrLQq/atkieJ6oGProScW2D/++bbtOm3zYEqnufOW2i33vGS77zTO1je02PnX/M1u/u+X7K6HX3PDw0+9ZdOnjCX+kbeyGdei2A7HUU11eVd5+84Hq+2am5+xXXfY3CorSt20ZLTsrffOtRlTx1pprIyX5pY2u/o/n7brb/vnJt9NeY1Ueruf96ShocG9qp9x1ZKrxjvTmvKTTjrJXn755ejVlBcVlyc841ZwnnzBX+y4M+6yMy9/2AVfKiqAtawGJeHJKMCvuPGprmX9oM8D2FR7y2prWPaCta5Lv8YhWVxHUc2Qcrvi7Fl2x7XHuOHU4/ewc696NOVxBBjsshXXKpu/f/0/bM5RM1z8/PrSw+2R/33Lnfymovkqi1UmJ6N5193yrNUNr3bffcsVs23uG0sor5G23uznA+H444+3L35x1uDofUVB/tNYIKpwVCAe9Imt7Vd3PJ80eBXcClQFrJaXngrU735tH7esHw7ed5tgDoB4Kogb6l+xjrbOGoJ8Nn3KGJekPzt3cY+JBTCYZSOu31682sbUDbEpk0e68WFDK12Z/fy/F7vxvlhSv97WN7baMQfv4MYrykvt4H22deV9qmQeCItu+TV2cCTlz7z4vk3bZpQrHGXmLlu4wFSAxlNgPvTkmy5QFbByYOyA8M6Hq3usXe+rsufftCE/vde91n73Zitq4m505K+WNW9by9r3g7Hs04m0v3Klq2S6WuYpOQ5f2fLz46enc1UtHVuNG2Z7Th9vH360NpgC5Kf+jutkFFuqAffldn+jvC5sudrPU1syOJLyxUvX2PgxtcFY55n3VpsPs1VrNha2l//6SVcIP/CPBS5hH167sT3Z8KEV7nXV2vTbqfdG6fz3rfyf863m2nusaG2jFa1cF8wB8lPr+g+Cd9mlhLx+VUPX1S5dJbvshidc4q0kW23Aw1e3brzs0y5xHls3pGuaBp3M66Q+G3QM0rEIyHd9ieuJ44fZ0vr1Nm/hcjeueFXzld12Gu/GE1Flmmq7FfOparwV30Oqyuyuh15z474Sbvr2YzNO5imv0V/lV2/cdtttduutjw6OpDwdvoDef8+JwZSBpbPtmivutNJX3nZD+ZOvWNWfngjmAvmpdf2S4F32qBDXla3jDtupq6DVVTLVVL++YNkml8fDxqR5szeA5PoS16o0u/jUT7oTZ1WUfe2i+13zFX+lOxEl8Erk5fFn33av3stvfGRzzr3XXfVqam6z0+fs6ZJ3fbemKyHPtLkp5TWkP8qv3hpUbcrja6h8oR2uDfd0N7fOpMO16L6G3NeY94fW3ba1FfdcZG07TnRDw5cPsvXfnh3MBfJTLtrkpbrMrZqz8I3bjz69MJjTd/FX7IB81de4VmJ+zXf/o+uKVThp1hWtS0/bzy0j/sqXbgz9+nG7bXJT6M7bj3ZXzPR9+ozi/tyT90743Zqv79Y6UqG8htCmvJfUhvzVBcu6AlWXo5V461JWPAWs2pPrkpa/DPZYLMjV3MUfBPpL5V+etZY9trN1ZxxlFQ8+byULo3MWBuSLzUcPTXiZW01bTr30QRf/vsD+UqygzwZ9t45BU7cZFUwBkIp6REnUwYJi6aKfPe6SccWwOm3w94ypjP72nD1dd4epbqqOv3ckPMTff5IM5TWiZ93gSMrDgaqg05m0zqiTtSFTcOuSli5taXk56dhd3Wsyvk16eFBw61J5unSmrcGdhT90mbVPHhvMAfJTcWl2n1MginedRN/x1393Jd4qhNX7iZJi32Y1fJlbzx14+/1VNnRIuZsvKpjvfuR1974vtG51iaiavJ5q4IB8kK241pWq+HJVsbRufUssttu7ujcMl8+KsQtO2TcWu691u+IdpjLen3iHB3W/uPno9JqwUV6jP8qv3upsU35PNB+zv+zlXwbv0qOzcd1EkqrNWpiW12XodNqh6Wz+6pufsZOO2ZUCGYhTudlUG7rFp4Kx1OLjWrGl/ow/iOvRRLXbik3FqW9+MnRIhSuofQwq4daNn2vXdzZNGzd6qGvHqhvA/Gd22WGsVVeW2bZbjXTfp5o7NUGJP0FX0q0ra2qrqjar8dvkv7u/r7QBUdGXuPaSxZti96a7XrDvnDizx5jSsn/+2zz76mc/1q0STjGrirRE4o8VQDKZ7OepZPMx+yTlPSApB5IbuuUBVjliu2AstUzjGkBuZCOu+zsp9yfSya6YAz3JZD9PJZtJed70vgJgYJXXTrTyoVsEYwDyQTbjOlXzlb568bUlXU1U4wee8ImeRLX8youacgADq6RimA0dv4+V1WwZTOkZcQ1EG3GNQtCb/TyVvK4p39DR4v5gAKKppHyYVY/aNaMDGnENRBtxjULQm/18IEUuKS8qLrey6tHBGIAoqaidZDXj97HKzaYEU9JDXAPRRVyjEPR2Px9IkWxTXjF8e6scsS1n4ECOFZVUWmnVSKvabAd3U0zNFp+08qG9q2EgroFoIK5RCLK5nw+USLYpl5am1bamfqE1rVsWW29HMBVArhUVFVtlzSirrZts5ZWZFcTENRBNxDUKQV/282TyvktEBXj9u89ZVWW5lZWVxTY0/R8GoH91dGyw1tZWa2xqsboJu6d9YCOugegirpFry1vG28iRI4OxfhI7aWxvrre19Qsy2s9TyfsuEXXGXV1VYRUV5QQ4EDGKScWmYlSxmi7iGogu4hoFoajYSipHW23dthnt5wMlkkm5LoGVlfFAACDKFKOK1XQR10D0EdcoBMUVIzPazwdKJJNytUnLpNofwMBTjGbSfpS4BqKPuEau+GbSAzJYZvv5QIlkUg4AAAAUEpJyAAAAIMdIygEAADAoHHHEEW6Il2z6YEJSHrN6zTr76ulX2kv/fjOYAgAAgCjwCXc46Q5PSzZ9sCEpDwyrrbHhw4cGY2a//M97be9DTuka/vrI08GcjfwyPSXzWu77V95sTc0twRQAiShGFCvh2PODjyHFosYTxaTEz/cn3eHvOmbOBfb2e0vcfC8c84ni1X+PBr1PJNUxQdP892tItv1APoqPw0QxGI6RnmJUQ6oY6k25G3/80XeEaXu0XX5+qmNBMj39Rok/VsRvR75KeENmMMh9993nBs+PJ5suib7LD1FEUp6AD/SnHrzBDbf95iK7+fYHugpaf3CpGznMZu23u5uWjD7z4svzraa6KpgCoCffPeP4rvjzw8XnnGiVFeVu/g7bT7R589/dpMDVuKZrfrzrrzyj67suOGuOHf/VS7tiWjH/Uf1Ke+ze69z80XUjXMx7Wu6kb/3YPnf0ge4EPl5PxwR9/rKf3OKOJfr+v/7xSrvvgae61g/kM8Xldb+600456aiuGDzxC4faj67+fVdSq+T0hpvu6YoRxWh4fk/lcpim9abc1fcp9vX9OhbomODXq99w933/Yz+57NSubdDvOfuiG9JOzHv6jaL1hY8VGo46fN9gLiQ+CfeSTR9MBnVSHn9W64PH07imJzsbTeawg/ayb3x5djBmNnHLsXbAJ3ezxR929mmpQvk3151jnz74E248GQXafQ8+5QrydQ2dT0AF0HfbbzPBvS75aIV79fy4n5/MjJ22tS8ce5A989yrnXEaS5CPPGTvrqT/kFl7ukLdHze0/F23XGaTJo5z4/F6OiZoPTqG6FgiWl4Fuo4P8ScWQL5RXOmkWnHk7b3nzi4OVq7uTEgffPRZ22Xn7bpiZMp2W9n4caPsqWdfduM9lcteb8tdxbpiXrEv2mYdE3Rs0Hdq/DunHte1fTJpq827/Yae9PQbtZ7/eeoll/iH1zN29GbBO+S7QZuUqyD7xY3/bXM+d4g7k9RZ7fMvvdF11qzLPe++/5GbpzNOneH6AlY7fvgy2gtz57vpyWhdOmPOhD6jmgEF9YhQsxgAfVddXRkr0Ca4Qi5M45qu+elSgaqCVQWsp0JQheWqVWuDKb3njx8TthgdTOmk5nLr1jVaM0k5CpDiTmWx+BiZufs0Ny5Kgnebsb0rxxNJVC73pdxVrCvmwwlwT0m3kulF73wQjKWWzm9c9M6HVlNTRRKexJFHHpnRMBgN2qQ8/qzV79yqkYovBMPL6iCgy01HHrp3VzL/xDNzUwbWvPnv2OIPlrkz+3T97R/Pu8tg4ZoBAOm5/Nrbuk6a/RB/mVrxqDj3BbteF779gU2bOtmNp6KraIpR1YqpMFZBqMeEezpmKH7ja+F6w39XPK3XbztQaMK1xjox1Qlq+L4uGb/5KBfjKtPjJSqXU5W7irVwZZwffLtzxbo+q3j1dEzQsSF8cq5l/RV6HafUDMfnIf7qfPygY1c6v1H5i/IYNaPxn820XXw+881T0h0Go0HfpjwcBAoQ8YWgxuMLcp2Jig9kLava9s1G1LrxeKpdV/suXWrWGXM69Bm1a1WwAshcojbl8QWt4lFx7mNar5Mnjut22Tfs1HOu7TpW6JL0TT8/L+my2abaMRW04at1usSe7jEFyCcqt9VU5PPHHBhMyUyicrmnclfLqYlZ/HElfK9KOrSsPqPPXnVp7HgSOilQE5v479eQSeXc3598wR0v9DlVGkr4/hbkt0GblPuzXjVZ8TdnqSD31PZMbUZ9QayDgOhsWGfn4cJwxLCahIWjzk5v+cODLsjTDSp9Rk1ljj7yUxkFOoDMqfBS7ZLoNXxpOF74Rk8VzgOZEOv4oeOIbi7V8chdrTtk72AuUDiUPOuk+PzvnNCrGExULueq3NUN5Zf95PddJ9t9oZp01ZhvM2mLrt+l36LjhE5gCuGqWqIeUvzQ0/xEQ0+fiaJBm5SrLZfaf5377S8kDUIl5iqAlZwnqjVPRUF+xU9vdzVxOvtNl240e+a5V7oKXw06MXj08efswNmnd50cAOg7tflUQfZOrFDUa7hdeLoSte1W/Ov7silci6aTAolvNgPkMyWvZ11wvavhDl+lStRMROKbjyUrl7NR7iZqKqNjgprIJOO3+9XXFwZTkuvpN2q+fleie08k3ZtJC9Xs2bO7DYPVoE3KdWOEdmCfkCuQVGueiM6o1U2Z3/njAy98w4nnLxcluxSWjA406qXBF74aVEOn9atGP5MEH0BqqmlTG8wHHn3Wvfam5k1XyiRc6Pn2n+m0T+8NHX/UfEW1YFxRQyFQGavu/xJdeVYMqDyPT8JVziuufYwkK5ezUe4mOjnXMUHHlN6c7MdL5zcqIY+/sdUn8f44hfw2aJNy7bzhSzoKVp0Vi87G1Q2irxnXDSH/fvUtV8Cq/ZfOfHVDiKhw1KWwFSvXuHHx7d1O//qxFJhADiS60TPZDU+Ka8VrbxNoFbpqi67jgP/+/7rrMVerla1eEHScCm+7Ty7UJRqQ77Tvq1cUNR1NliDH33eh8lvltI/r/i6XFeuKecW++NxAxwYdI7Rd8X2Sa/sy6QSip9+o79Fv9LmL1qV+zeOb3CJ/FW1Is2GNb4PT3t5uLS0t1tjY2f9nXV2de82m915/yEZuNjwYS0wBo8tYPhH37cl1lqlmK9qZFUCvvfG2a/elGzL8Tu0vofk+jX9w/ldcTds3T/5/7mzUfy6emsGE+0n126DarnTbnAP5ZPmKVbbl1IODsdTSiet0qHD2cZ6MukTVibsSAH8s0CXzVHGqz9x+5yPuvWrYEjWN07FDXbFecFbi9rDJjgkqZHU53Ys/lgBRku24jt//w1Sj7WMlvJySZN9fd7g8j5fNWIrPK+K/O/53xOcW6Uj2G734/ES5TaFcYf+ocayNHDkyGOtOTVLuvTf5k03jm6xo2Z4+s+r9/017P0+lvr7evVZVVVl5ebmVlJRYUVGRG9J14YUXWnFx8eBNygHkXi6ScgD9i7hGLvQlKU+EpDxLCHJgcKDwBvIPcY1cWNowJmlSftRRRwXvMnPPPfcE7za1evHTJOXpIMiBwYHCG8g/xDVyIVVS3h+imJQP+ocHAQAAAIMdSTkAAACQYyTlAAAAQI5FMikvKip27dcBRJdiVLGaLuIaiD7iGrmi/WjAho72jPbzgRLJpLyyZpS1trYFYwCiSDGqWE0XcQ1EH3GNgtC6MqP9fKBEMimvrZtsDY3N1tzSYh0dnIEDUdLR0eEeRd3Q0OxiNV3ENRBdxDUKwoYO29BSb+tXLMxoPx8okewSUVqaVtua+oXWtG5ZbL0dwVQAuaZLfqph0AGtvHJYMDU9xDUQTcQ1CkFf9vNk8r6fcgAAACDq6KccAAAAyCMk5QAAAECOkZQDAAAAOUZSDgAAAOQYSTkAAACQYyTlAAAAQI6RlAMAAAA5RlIOAAAA5BhJOQAAAJBjJOUAAABAjpGUAwAAADlGUg4AAADkGEk5AAAAkGMk5QAAAECORTop39DeErwDMPA2xP6LDVlGXAO5RFyjEPTPft7fijbEBO9T0mIa2tvbraWlxRobG930uro695pNres/tOZV860l9tretDKYCmAgFRWXWnFplZWUD7PSIWOtvGa8lQ0ZF8zNHHEN5B5xjUKQ7f08lfr6evdaVVVl5eXlVlJSYkVFRW5I14UXXmjFxcXRTMrXvf8Pa1zxWjAGIAqKikqsqm4nqxw5LXagqw2mpo+4BqKHuEYh6Ot+nko2k/LINV/RJTCdcWeiuaXNrrjxKZs7b2kwJbl3PlhtP7/1/9xnPP/54864yw0PPbEgmGO2em2TXfSzx93ngEK2YUO7NSx7ydYtfspa1n0QTE1PsrhWXCm+FGfxbrrzhW6x2JNMl09G3+GPBX44+YK/dB0DNF/rAvJBocQ1Cltf9vOBFLmkvKik3NqbN70EpsBMVVAmoiRdyXY4AY+nedfd8qzVDa+2O649xm65YrbNfWMJBwEgiZa171hj/UvW3rI2mNKzZHHdG6kK/GS07JmXP7zJMUSDpoe/6+B9t3HHAj986agZts1WI2xs3ZBgieS0bTouJVqPhvhkXseoRMtpiN8uoD8NxrgGMtWb/XwgRbL5yrKXfxm820iF2fgxta7AjOcT64P32damTxkTTO0s8B568k07fc6eVlFe6qYp8P/8t3n21c9+zE3T+E13vWDfOXGmDRta6ZYJf66puc2uvvkZO+mYXW2rccPcfABmVaOmW83mewVjPUsU14q/y254wtaubw6mdKeEOD7m42PYS3WMSMSv+9Tj9+h23AhTgvD96/9hc2Lb4ZfRCfvipWvspGN3dePp8if64e1LdIwCcmmwxzWQjkz381TyuvlKKr+756VuNUk91ZR/+NFaVwNOYQdkX1P9K1m5DLj56Br79aWHd6ud1jBrr8nBEt2tWtNkDU2twVjv+KTh6IOm9piQfxA7juhYAhSCwRzXQLqytZ9n26BKynV2HQ7uGy/7dNLaa9WeqxlK/aqGlM1XdEl6SFWZ3fVQ540qWlY1V9O3H0syD6SgNnqt698PxgbO8/9ebEvr17urWEqufXORR59eGCyRmmrezr3qUVeLt/noocHU7lSD/bWL7reDPrF1V5O2nprCSarmKKpUSLY+ICoGa1wDmcjVft6TvG2+osLxllghOCaWdCvB9p/zNWQqkMfFCsiLT/2kVVaUus+/+NoSt0z40ppqy2i+AiRWNmS8Dd/6iGAstWxc5tbyam42ZVKdNTa1dmtC0tNlbs1XAa+aOn3OHzcU9349Om5c/usnbeiQCrvglH27xbxvtqJ1ZNp8JdExSmi+gigaTHEN9FYm+3kqed8lYrKkPNEZ83e/to9NmTyyW4EXbgc6cfywbm1CFfyJ2q0ByFxJ+VDbbMrxwVhqieI6Ez6x1Un2fntO3CTJTVZ4+wRhz+njXWEf307cj6tWPJ2CP5025fFJeLKTe38SkEiiEwNgIAyGuAb6KpP9PJWCTMo9f0YdvjEzXAD6BF1tyX2h6Qtl3dA1vLYyYVJO4Qj0zqidvxG8Sy0c1z5m/dWpVHz8Pfa/b7nmaL5W2ce12oWrwE638I5PyvtDfFKe6LgFRNlgi2ugN9Ldz1MhKU+SlB8wc7L97ZmF3RJyz3/u6IN2sCeeezvtmvJkNVwAzIpKK61uhxODsdR6qlGLT2TDVDCHC25P8fmrO563rx+3m7svJFtJuV9GN3km4pvAJJPqtwBRNxjjGshUJvt5KgWXlCtwU93s8dlDp9n8t5enVQAqOaemHMiO8qFb2rBJhwdjqfWl8E5Hoho1/52Z1Nz1FOeJmq9ksh7RSf6fHnw1aZvbsF12GEubcwyoqMc1kA2Z7OepFHRNeSKZBH2qpJwbroDMVI/e1YaM/Xgwllq+FN697accGCwKMa5ReDLZz1PJZlI+qLpE7G+q5Zpz7r2bdGWmwT/4A0CnopIKK6/ZIhgDkA+IaxSCqO7neVFTDmDgVY+abkP6+OQ/ANFCXKMQZLqfp0JNOYCcqhg2ySo32yEYA5APiGsUgijv55FMyotKq4J3AKJGN8dUjZphJRXDgynpIa6B6CKuUQh6u58PlEgm5RXDJgfvAESF2uBV1emS3yesrHpsMDV9xDUQPcQ1CkFf9/OBEsmkvGrkDlY5YjsrKi4LpgDIheLSKisbMtaGjNnNhk86zGrG7WWllSOCuZkhroFoIK5RCLK5nw+USN7oKS1Nq21N/UJrWrcstt6OYCqAXCsqKrbKmlFWWzfZyisz67ufuAaiqS9x3dbaaI3r6q21eV0sWQgmAokUmZVV1FhVTZ2VlnU2fWpubrZVq1ZZQ0ODyzP7k26+rK6utuHDh1tFRUUwtW/yvp9yFdz17z5nVZXlVlZWFtvQ9H8YUMiWt4y3kSNHBmP9JJZMtzfX29r6BVY3Yfe0C3DiGoiujo4N1traao1NLRnFtRLytSvetfKy0iAZCWYACSjjdHlka5sN3WyCdWwocUmtEtrOcqF/G3B0dHR07uexHFb5q5Lovsr73ldUk1ZdVRE7iymn4AaipqjYSipHW23dti5W00VcA9GlmFRsKkYziWvVkOuBe6WlJOTomfYR7SvaZ7TvrFmzxtVcq9a6vxNy0Tq0Lq1T646aSCblurRdFjvrBhBdxRUjXaymi7gGok8xmklcq8mKagaBTGif0b7T1NTkasgHmtapdUdNJJNytTXNpNofQCffzGxABiuKvabfLpy4BqJPMZrR/R60IUdvxfYdNSdxbxOVMf04iF93lEQyKQcAAAAKCUk5AAAAIm/RokV2zTXX2Pnnn2/f+9737NZbb+3qeCQfkJQDBeqII45wQ7xk0wEAyJX777/fzj77bBsxYoTNnj3b9t9/f3vrrbfsm9/8pi1evDhYanCLZJeI773+kI3cLJqPQAWirL55XMouEXubbP/5z38O3nW34t0nbcupBwdjqRHXwOCwfMWqtON6xYev25AhPGofmVu/vtHWtQ5JqxvfN954w84991y76qqrbNtttw2mdvr1r39tr7/+ul177bUZ3be0fPlymzBhQjDWe3nfTzmFN9A7y5o2T3mAO/LII+2+++7rei9+3IufHv5MvJXvPdUvSfnqNevs7ItucO+vuvQUG1Zb494D6H/ZTsrb2trtyWdftfoV3bugq9us1vbZc5rrIk+SLSd+2SXLVtozz80Lpnby81pjn//7k3OtobE5mLOpaVO2sh2229Le/7C+63vU48y+e+5om43YeJxZsXKdPfHsK9ba2ubGZ+4+xbbYfGO+E7+tE8aPso9/bHv3XsLfL/G/FZ1J+dqW6rSS8quvvtr1mHLaaacFUzbSw4fmzJljF198sU2dOjWY2jMl5VtttVUw1nt53085gP6nRDtRsp1s+kB56d9v2knf+rF97ugDScaBPKKE+Ngj9u4a1Cf6PQ884xLYsPjlNOy3985dCa0+d/hBe3TN0/jDj7/g5h02a/eu6foeJcNHHTqza5oSciXcc19ZZAfsM8NN223GNvbM86+7ByeJXjWu6Zqv5bS8Puf9a+4Ct17N1/frROC1+e+5efr8m2990G0bx4we4ZJ4JfPI3HvvvWfTpk0LxrpTv+PbbbedLViwIJgyeJGUA4iUGTtta3fdcplNmjgumAIgH6lmWYmzEl6fEPfGztMmudflK9N7GMybCxe7ZN3XjI8dNcIl2IveXerG9apxTRctp+X1OVFyrhrybSePd+M6Wdh263G26J0l7nfoqcU6idCrp+9qbW13tfnInB72o5rtZFasWGE1NYO/EoekHCgwao6SyQAA/WXShDHu1SfE/U011arVHj9uY5MJJdWqyV67tsGN61Xj4aYmWl6fc59vanJJe+3Qjc12Ro6otbLSUmtsTHxyoYS+ta2zKQwyt8cee9hjjz3mHpEf75VXXnE3eu64447BlMGLpBwoML55SroDAPSXsljiqwQ37NV579idf36q2xDfxMVTkvzs8/O61Wynoppq1VhXV1YGUzopwVbSrZpuvYYTbtHyvqZ7zdpGt75w0q7fUVZW4hJ2T9/110efc9v/7uJlNn3HSd1qz5G+Qw891LXXvvLKK23duo3NiObNm+du8Jw5c6aNGjUqmDp4kZQDAIDISNSmPHyTpZLm+x/5p0t21SZdCXK4zXlUKAH3bdxn7Dg5rZMGJKaE/Ic//KHrcOSEE06wM888077yla/Yeeed59qTP/fcc24Y7EjKgTzie0lKNqSzTPyQ6jMA0BeqeU5UM52KkvDwTZThXk+iSs1b/v7ky31qO5+PEpUryYba2lr3wKCf/exndsABB9hnPvMZ+8UvfmHnnHOOnXXWWa4W/emnn0742WRD1JCUA+iiBzKEBwDoT74tuZLWgZComYmoSYr45jR+3NPyvk24b+oS7knFn1wkU1VV7j6f7s2oSG78+PGuOcusWbNs3LjODgHU5ly15g8//LAbH6xIygEAwIBSQvv4Uy/b/LcW28zdpg5YW2s1cUmUdIdv7hw6tLrrpk9Py6sHFm1nuH25pxs8daPnQJ1cYFO77rqrXXLJJcHY4ERSDgAA+l34Bk61BVcSPPuQPbs9tEcS3eipBD5cM90X6klFJwO+33HdRPrhRyu72nzrVeP+5lItp+V9jy2qKVdt+8uvLnLj2q65ry60YbXVLmnX5+K3V8vqZIB25UiFpBwAAPQb1T7rRkzfBtwPepBPWLLlNGTzRk7dNKoHA/3tyZdcwv/8Swu6PdFTrxrXdM3Xclre32yq7dDTOdVcRfN1gqGE27dt13I64dB0f1KhZXmiJ3rCY/aBPPJR49iUjyxWO/F77703GEtPqs+sev9/++Ux+wByJ9uP2QcS0WP21zRXpfWY/f6ghxFNnDgxGOu9bD5mn6QcyCNLG8akPMAdddRRwbvM3HPPPcG77lYvfpqkHMgzJOUYCErKVzdV5jQpnzSp82mwfUFSDiChnpLybCMpB/IPSTkGAkn5Rj4pp005AAAAkGMk5QAAAECOkZQDAAAAORbJpLyoqNi1XweQGX/vx4AMHe0uVtNFXAPRpxjNJK4t/WazQHfBvtPR0dG9bBmAQeuMokgm5ZU1o6y1tfNxtgAiqnWli9V0EddA9ClGM4nrsooa1wEEkAntM9p3qqurY/tcazB14GidWnfURDIpr62b7Drab25piZ3NULMGRMqGDtvQUm/rVyx0sZou4hqILtUcNje3WENDc0ZxXVVTF4vpNmuLJVkbCGv0QLXUetJpc3Ob23eGDx8e2+caYuPNA1J73bmfN7t1at1RE8kuEaWlabWtqV9oTeuWxdYbzcsMQCHSpW3VpKngLq8cFkxND3ENRFNf4rqttdEa19Vba/O6WLIQTAQSKeq8uqKEvLSssytN5ZRr1qyxpqYml2f2J3VTWFlZabW1ta77wmzI+37KAQAAgKijn3IAAAAgj5CUAwAAADlGUg4AAADkGEk5AAAAkGMk5QAAAECOkZQDAAAAOUZSDgAAAOQYSTkAAACQYyTlAAAAQI6RlAMAAAA50t68yg0k5QAAAECubGhzA0k5AAAAkCPNa96x5tVvk5QDAAAAuUZSDgAAAORYpJPy9qaVwTsAubChvTl4lz3ENZBbxDUKQX/s5/2taENM8D4lLaahvb3dWlparLGx0U2vq6tzr9nU2rDEGpa+YC1r3wmmAMiFoqISKy4bYmVDxll57ZZWXjPBikrKg7mZIa6BaCCuUQiyuZ+nUl9f716rqqqsvLzcSkpKYusuckO6vvO1Q604tnwka8qblr9OgAMRsGFDu7W3rLGmlfNszTuP2tr3H4/F5rvB3MwQ10A0ENcoBNnczwdKJGvKl792i3W0NQRjZu98sNouu+EJW7u++6WILx01ww7edxs3/6a7XrDvnDjThg2tdPPiPzNrr8l20rG7uvdz5y21h558006fs6dVlJe6aQDSU1xWY0PG7mGVI7YPpqQnPq7loScW2O/ueSkY2+i7X9vHpkweadfd8qwdvM+2Nn3KGFu9tsm+f/0/7IOP1rplhg6psAtO2de2Gjcs4TEgXYk+m2y7ZNzooXbxqZ/MeD1AlGUrruPj1EtVXt905wv26NML3XtR/PuY/9Udz9vXj9vNLavxq29+xk46ZlcX96JYFX13ovmSaJv89qCw9HY/TyWbNeWRTMqXvfzL4F1iCuqfxgrrb8eS6kQFcvz85pY2V7hP336sC0KScqBvSis3ix3Y9rTy2q2CKT3rKa5FsfqbP/7Ljjhgio2tG9ItKU8lUUEfFi6Uw8m89PTZsEyWBQab/ojr+PI4kxjKVlIOhPVmP08l75uv9OSx/33Lpm0zKmnQrVrTZGNiBboKdVHirYJ97htLXKEPoG/amlZY44pXs34jTVNzmy1b2b02XVTwHnfGXQkH1bKlophXwT7nqBl2x7XHuIRcSYKSg2SSre/cqx61detbgqWA/NIfcZ2qvFYMnnzBXxLG2pmXPxxLsjfdDsWf4tAvl+yKlihJ1/eEvzd+6On4gfzTX+VXNgy6mnJ/mWuXHcZ21XTHn3nHn5lTUw70j9otD7CKEdsFY6mlU1MejuXKitKs1JQnincdR8aPqXXHg0SfVVK+eOmariZvQCHJVlwrjpQ0qznK8NrKrial6TYBS7emPJyYx18JA5LJZD9PpSBryv0Zb/2qBrvlitkuwT710gddgRpPwaiEXAcAnQnPOfdeqxteTfsxIMta1i0O3mVOiXF8rZVqwOYvWm5fu+h+e+AfbwZLdoqv9VINWzj+P/xonfvcFTc+1e2K2IcfrXXxHz4BV0KupDsVnfyHty08KNEH8lVf4tpTfD/yv2+5hPz62/5pry9YZjde9mm74uxZVjOkew8Y8ccCJdqZUPtwXQX79aWH2+aja4KpG+k4EV8jr3WisGVjP8+2yNeUqyD2bUHjb8zwNVxHH7SD3f3Ia2m1URNqyoHsKK0aZSO2PSYYSy1VjVqiGjB/hcvXlIdrtyUcx0vq1yetKU9U6x2elqimHChkfYlrxeXlv36y29VsX46rWelRB0612/7ycle8xZfHflk1N5s4flhX+a/vO/HoXezHv34q6U2kiY4j4e8LX3HzSTlXwwpXJvt5KgVVU66gvea7/+HOguNruhV0l562n7ssBmDgtTetCN5ljxJm1WTpCteLry1x05Sg6ypZvKWxZFzt0FPZfPRQ99lw7bkSciX48ZQghGvTUg2dbV6bgk8C+aO3ca0YW/jeCnc1+9yT9+6q9PLluJtW0b0iTFeyUlEirxpwfXb0ZkO68oHwwFVw9EZ/lF99NSh7X0lFtV6Juk/01JbtyAO2t2fnvk9NOdBXRSU2aqevBiOp9bWm3Nd4+VqydLtEjP8eLdvb3iCAgpCluE4kUbyp1jrcJWK45jvcprwniY4jkigvCHeTjAKVwX6eSjZqys8/+xtWXFw8uJLy+MANS3bjSPwlb6H5CpAdfW2+Ep8w91ZPiXU4oU+nS8T4m8fCuJEM+S4bzdKSlbPJYjXR9GRJebLvTpaUe/rcLbG45jkDkCg1Xzn/nG8NvqQ8mVQFMkk50H8qR0yxoVvuF4yllo2kvD9iN1lSnqj3lZ4KfSAf9DWuJZ1YTXXyK9/43G7uqna6SXmY4jrVVfOwcPt3FI5M9vNUspGUf/sbn48l5YO0n3IA0VBeMz54ByBfDFRcq7Isvn14eJgxdWywZOZ00qzeXhJ9b/wQbv+OwhGl8quqqtIN1JQTiECv6Glo6ue1qKQimJJaqppyf0NnIuFelxS76tkhkd42K0lWU07zFRSibMS1ZCNWUzVfSfbd4h/TDyST6X6eSjZqys8788uupjzvbvQE0P/66zH7AHKHuEYhiOJj9n1SHsnmK8Wl1cE7AFFTXFZjVaNmZHxAI66B6CKuUQh6u58PlEgm5eVDJwTvAERJxbDJNnSLT1rliO2DKekjroFoIq5RCPqynw+USCbllSOnRvYsBigkRUUlVlJe6+5Sr91qVuyAtl+vC2HiGogG4hqFIJv7+UCJZJtyaWlabWvqF1rTumWx9XYEUwHkWlFRsVXWjLLauslWXpnZzY5trY3WuK7eWpvXxQ4qwUSg0BWZlVXUWFVNnZWWVblJzc3NtmrVKmtoaHBlb39S29fq6mobPny4VVRkfuMb5TUGi76UX8nk/Y2eCvD6d5+zqspyKysrcxsKIBo6OjZYa2urNTa1WN2E3dM+sCkhX7viXSsvKw0OWsEMoMCpFHZla2ubDd1sgnVsKHEFvQr5zjKwfy9qd3R0dMZ0rFxXma7EIl2U1xhMelt+pZL3N3rqjLu6qiJ2xl5OgAMRo5hUbCpGFavpUg25uiAtLSUhB8IUD4oLxYfiZM2aNa7mWrXW/Z2Qi9ahdWmdWncmKK8xmPS2/BookUzKdQmsrIz+w4EoU4wqVtOlJiuqQQCQmOJDcdLU1ORqnQea1ql1Z4LyGoNRpuXXQIlkUq42aZlU+wMYeIrRjNqP0oYc6FksTtScxL0Nmo0O1CB+3emivMZglHH5NUAimZQDAAAAhYSkHACAQWzRokV2zTXX2Pnnn2/f+9737NZbb+3qjAHA4EFSDgDAIHX//ffb2WefbSNGjLDZs2fb/vvvb2+99ZZ985vftMWLFwdLARgMSMoBABiE3njjDfvtb39rl19+uZ144om2xx572AEHHGCXXHKJffzjH7errrqqq604gOiLZD/l773+kI3cbHgwltrqNevs7ItucO+vuvQUG1Zb4957v/zPe+32Ox8Jxsy+e8bxdthBe7n3Tc0tdsVPb7dHH3/Ojcv1V55hM3baNhjrTt/1Uf1KO/fbX7DKivT7cQXy1fIVq2zLqQcHY6mt+PB1GzKk88EoybS1tduTz75q9Su6d8s2bcpWtsN2WwZjnV6b/569Ou+dYMxswvhR9vGPbXx8svqh/fuTc236jpNsi803PU7Ff97TXfn77rmjbTaixlasXGdPPPuKtba2uXkzd5/S7bvitzd+G+T//vWGvbu48y7/us1qbZ89p7nu7zy/nbL/PtNdf88oXOvXN9ralmobOXJkMCW5q6++2vWYctpppwVTNtLDh+bMmWMXX3yxTZ06NZjas+XLl9tWW6X/hM7BWl6/9O837bKf3GI/uexUm7jl2GAqCkkm5Vcqed9PeboUVCd968f2uaMP3CS45a+PPO1en3rwBjfc9puL7ObbH3Cfk7/943nbbcb2XfP/+scr7Yab7umaH6ZpL74832qqUycVAPpOSfixR+zthsMP2sMWvbPEJdGiRPjxp162pR+ttKMOndm1nPz10edckpsuJcnh79Aw+5A9XUKu73nm+ddjx4ht3PQD9plhc19Z5BJ1719zF7j+bjVf39PQ2Ny1naL3mubXoWX1Ge/9D+vt4cdfsO22Hm9lpXQrh8y89957Nm3atGCsO/U7vt1229mCBRv3t1yKUnmtk4Pb73zUtppAMo5oGdRJuc6Q77rlMps0cVwwpTudYX/jy7ODMXNnwwd8cjdb/GFnrZXm+7Nw0YFil52365rvKYDve/ApdzBZ18DNM8BAUs2xaruVhCshX7JspUt099xtSrca549N38YlvYveXRpM6Rt9j75v7KgRblyJupL4Nxd2ttNVcq4a8m0nj3fj2pZttx7nTiCU0GvQe03z26ll9Rmf2KvWXScBI0fUunEgE3rYj2q2k1mxYoXV1GyaAOdClMrr/7rrMTt01p5WXEQLXkRLQe2Ruvyly1nJvP3eEnc2HqbPXPerO+3IQ/a2EcOHBlMBDKQ1azsL19ZYUv7mWx/YpK3GbtLMIz4p7qu1axtszOgR3RL/8eNGuhMCnRw0NDW5pL126MbaOCXXqvFubFQTvxb3Ppxwa1l9Rp8F+kptyB977DH32PB4r7zyirvRc8cddwymDC79VV77Gvldp2/nXoEoKaikfN78d2zxB8ts7z13DqZ0UpDufcgpdvxXL7Wdpm3tzs49Bf3ouhFJ260B6F++xlnJrCgpDifCYdWVle5VCXE6VGt9zwPP2J1/fqprUBtwl3QnWI++v7W13Z0c6ERB2xRO2sti78vKSlzSrUHvNc3TsvqMP8kA+uLQQw91bVivvPJKW7duY7OqefPm2bXXXmszZ860UaNGBVMHl/4or5XI/89TL9nnjzkwmAJES8Ek5QpG3dRxyklHbdKeTZfEfBu2zx61f9dNIfrMvPnv2olfONSNAxgYugHTJ8n3P/JPN23naZPcazYlalMef6MmEFVKyH/4wx+6ThhOOOEEO/PMM+0rX/mKnXfeea49+XPPPeeGwaY/ymvVot993//YN0/+fwnbtANRUBBJuYLxlj886II1VY232rA9/uSL7kzcB/DRR36KnlaAAeZv9FRvJ+rR5LBZu9MrCQqG7+0snaG2ttY9MOhnP/uZ6w7xM5/5jP3iF7+wc845x8466yxXi/70008n/GyyIZf6q7xWLfqU7SbQ0woiLe+TcgWrulHSJa3wTSLJTNhitD3/0hv27vtL7ZnnXnGXyHSpTMOp51zrumM6cPbpXe3SAPQf3WSpZiTqpUTUFCRV8w/fVruqqm8JfLJmJvr+1rbO7hHVtMW3L/fUrEXTJNzUxfPNYoBsGz9+vGvOMmvWLBs3rvNmSrU5V635ww8/7Majrr/K63sfeMItd/m1t3XNP+yz53R95vtX3uzWDeRa3ifl6lJJMm2CMmGLMe5Ocd/9kgb1iTprv93tsXuvS+uAAaBv/M2burlTCa0fT3Qzp+Ynuwm0N4YOrXY3e4YpSVeTF31/oqQ7fHOnPzEIt2/XsvqM79EF6G+77rqre5jQYNBf5fXsQ/e1i885sdt8dak4c/cdXTMYzeOKOKIgr5Ny1Warr9LTv37sJgGns2KdHYf7OFWbNB0UdOc2AQpEgxJc1S6rK0RRQqta7Gefn9etllr9f2u5SRPGBFN6luhGz3sffNZ1Waj1fPjRyq5aek2b/9Zi1wOLqKZcN3K+/OoiN65tmfvqQhtWW+2Sdg16r2l+O7WsPpPsRlWgUFFeA3nwRE9RcP7ixv+2C846oesGDv/ksNfeeNuNh33h2INcf6iJlkn1hDAA3fXXEz3VFWH4CZ7+6ZvhJ2rGP5Ez2RM945uLhJ/Y2RMl4v39RE/Rep5/6U3bZ+Y02s4XOD3Rc01zVVpP9OwP6vd84sSJwVjPKK8xWEXxiZ55kZQDyI1sJ+VAocv3pByICh6zDwAAUvKVYLkaAOQGSTkAAACQYyTlAAAAQI6RlAMAAAA5RlIOAAAA5Fgkk/KiomJuNgEiTjGqWE1b+jeiA4UriJOOjo5uN18OxKB1ZoryGoOR9tmMyq8BEsmkvLJmVFe/wACiSTGqWE1XWUWN61IVQGKKD8VJdXV1LL5ag6kDR+vUujNBeY3BKNPya6BEMimvrZvsHvjR3NISO3PnDByIEtWmNTe3WENDs4vVdFXV1MVius3aYokHFWvARqq104OompvbXJwMHz48Fl8NsfHmXtVeZ6ozppvdOrXuTFBeYzDpbfk1UCL58CBpaVpta+oXWtO6ZbH19v9BCUB6dMlPNQw6oJVXDgumpqettdEa19Vba/O62EElmAgUuqLOK0lKyEvLOh+wpXJ2zZo11tTU5Mre/qSHnFRWVlptba17+EmmKK8xWPSl/Eom75/oCQAAAEQdT/QEAAAA8ghJOQAAAJBjJOUAAABAjpGUAwAAADlGUg4AAADkGEk5AAAAkGMk5QAAAECOkZQDAAAAOUZSDgAAAOQYSTkAAACQI61FI2LDZiTlAAAAQK5UV1e7gaQcAAAAyDGScgAAACDHSMoBAACAHIt0Ut7evCp4B2CgbehodUO2EddA7hDXKAT9tZ/3t6INMcH7lLSYhvb2dmtpabHGxkY3va6uzr1mU1tTvTUum2tNqxbGVtwWTAUw0IpLq6ykYpiV12xh5UMnWGn1mGBO5ohrIBqIaxSCbO7nqdTX17vXqqoqKy8vt5KSEisqKnJDui688EIrLi6OZk154/LXrGnlfAIcyLGOtkZrXb/E1i993lYt+qut//CZXteIEddANBDXKATZ3M8HSiRrype/9jv3xwxbvbbJvn/9P+yDj9YGUzYaN3qoXXzqJ23Y0MpgSndz5y21h558006fs6dVlJcGUwH0RvnQLa169G5WNmRsMCU9ieI6lXc+WG033fWCfefEmUljW2668wXbbafx9mHs2LB46Ro76dhd3fTmlja77pZn7cXXlrjxLx01ww7edxv3XseTq29+xk46ZlfbatwwNw0oZNmMa5W5l//6Sffel8+r1jbbn/82z06YPd1+dcfzdvA+29r0KZnXXIa/O5FwPvDQEwu6HRMU91r314/bLeF8T8eey254wtaubw6mmH33a/v0ansRLb3dz1PJZk15JJPyZS//MniXmgLnp7FC99uxZDtVwarAm/vGEpJyIEsqhk2yIWP3tJKK4cGUniWK6/DJ9tAhFXbBKft2xXJ8Uq7k+9GnF7p5Mmuvya4wTZSU+4S8bnh1t/Hp2491iTlJObCpbMV1IornZEm5yujf3fOSex9vlx3G9rrs7m1SjvzWm/08lbxvvpIOFcQ6k+0pIVdhrIR8af16a2rm8hqQDc2rF1nTiteCsd5RbKqAnHPUDLvj2mNcQq6TbBXeyai2Ssuq1juVJbF4X9/YasccvIMbV4GuJEDHAq0XwKayEdcqm487465uw8kX/MXefn9lsERiOslWbMcP55689yYJuWL4ihufcrXmntarJDueTuT9dnztovtdLpCMjj3a1vC2xw+J1oHBJRv7eX8ZVEm5D0QFRv2qBhs6pNzOverRboEZb97C5S4Id9txnEsAKJCB7GhcMc9a1y0OxjKn2JQpk0e6V51cT9tmlL2+YJkbBzDw+hrXqnWOT6xvvOzTNnGLEcESAyuc7P/60sPdNCXnyiPia+d1DNK2hrc9fvBN4DC49XU/7y+DIin3Z69zzr3XXX5WYOjs+Zrv/ofdcsVs11480Rmsxq+/7Z+uNv3zn97JXcr+7tV/c5ewAPTNhvZma13f+4OampsoJsO1YOPH1LrLyenwNWDhJi3e2LohNqSqzO56qLM2RCfjOk7o+EETNiC5vsa1hGvLVXb7q18vv/GRS4j9fR69oXJduYC+Q23L/Xp0HFCSHV5fImNixwYl58ojkl1xU0Wf/14/UEOeX7Kxn/eHQZGUh89e489SVcAqQQ/PU/AoiHSp+vqLDulq3qIz+IM+sbU7KKjGnVpzoG9aGz4K3g08XwOm13g6Lqgdqq6o6VjgT+ip5QJ61pe4VkLc0NTqKswUn6cev4fd8dd/W3Nzm+28/WiXEKudeG8phvW9GrQOfZdv1qZBuUK4SWsmzVdE239LLLm/4uxZ3dajfILEPL/ksvxKZtC2KU9FQapA8m3RFEg+CfcBrRs9APRNa2Pvm5psPnqoS5rDJ8eqJVdteTaET9g1hBNy3eR16Wn7dSu8AXTqS1zLspUNGd/DFU6ew8OZlz/c66vb4QTeD7rCrvgH+rqf94fI976iAjvcrVkq8b03eErK6X0F6B+jdv5G8C61+F4afGz7XhhUQxXuTUnj8b2vqJcVLauY9r0m+OnxXSJKqu7Tkh0vAPQ+rkXx6dtrZ6tLxExyAQl3gZpM+DgSlui4kc73YfBJdz9PpeC7RIwvzHtCUg70j5LyobbZlOODsdQSxXV/dYnYE7pEBJLra1wnonjORj/lmUqVLyRLyj1yh/yWyX6eCkl5iiBLVTMWzxfqAHqnbMh4G771EcFYaukW3l58Up4MNeVAdmUjrntKeKU35XWmJ9TpVuKROxSeTPbzVEjKM6wpB9A/qsd8zIaM2SMYSy1XSTlP8wUyk424Ticp743+SspReDLZz1MhKSfIgJwrKiqxYZMOt7KaccGU1PorKfcSJQE91X7RThToLltxrXhM9pRO6W3shZu8JRL/BFCfLyRri96XJ4Zi8Mp0P0+l4JNyALlXPWq6Ddl8r2CsZ8Q1EH3ENQpBpvt5KtlMyvOyS0QA/au8diurGrlTMAYgHxDXKARR3s8jl5RvaG+xkorcPI4XQM/cAa1uhhWXDw2m9Iy4BqKNuEYh6M1+PpAil5QXlZRb+ZDNgzEAUaE2eNWjZljNuL2tPMN2eMQ1EE3ENQpBX/bzgRTJNuWt6z+05pXzrSX22t68MpgKYCAVFZdacWmVlZQPs9IhY2MHsvFWNqT3BzPiGsg94hqFINv7eSp5f6OntDSttjX1C61p3bLYejuCqQByraio2CprRllt3WQrr8ysj2/iGogm4hqFoC/7eTJ5n5QrwOvffc6qKsutrKwstqHp/zAA/aujY4O1trZaY1OL1U3YPe0DG3ENRBdxjULQ2/08lbzvfUVn3NVVFVZRUU6AAxGjmFRsKkYVq+kiroHoIq5RCHq7nw+USCblugRWVkZH/kCUKUYVq+kiroHoI65RCDLdzwdKJJNytUnLpNofwMBTjGbSfpS4BqKPuEYhyHQ/HyiRTMoBAACAQkJSDgAAAOQYSTkAAACQYyTlAPLS6jXr7KunX2kv/fvNYMrAevu9JXbMnAts70NO6Tb0Znt++Z/3uiFX9Fv0t9QrkC/YrxE1gz4p9wWvBr2Pp4IsXCD+9ZGngzlmTc0t9v0rb+42P1WBqe/S8vocgOgbVltjw4cPDcZSHw88v0xPyXOy44E/rpx1wfX2k8tOtacevKFr+Osfr7Qbbron6fEKyGdRLK91jBgxrCYYA3JrUCflCsiTvvVj+9zRB7rAiucD2heIt/3mIrv59ge6Avlv/3jedpux/SYFZqJA17QXX55vNdVVwRQAg0lPxwOfMNSNHGaz9tvdTUsm1fFA3yn6/olbjnXvPR2nfnPdObbLztvZdb+6s1cn+KrVO/uiG0jqMagoZiivgdQGdVI+Y6dt7a5bLrNJE8cFU7o77KC97Btfnh2MmSsgD/jkbrb4w86+KTVfg6cDhQpLP99T4Xffg0+5g8m6hs4nmQLoH/E1YvG12RrXdDUNyeSyc0/HA58wf/rgT7jxZFIdD3wycPrXj7XKinK3fb4Ji36TkmlN+/wxB9riD5bZvPnvBJ/c+Lv8sr1J2POJP0nyf5NEyVe88N87fr9BblFeAz0rqDblKuQ+ql8ZjG1KB3SdjYfpM6rROvKQvW1E6DI4gOxTvP3ixv+2OZ87xNWGPXbvdfb8S290JWS6JP3u+x911aTdfd//dCXm8UncC3Pnu+nJ9HQ8SKSn48Ezz71qRx66t0sYtF1qwnLBWXPc9qqWT9uoS+U+odDyEl9LqGV9jXuYljv+q5fGPveKHfbZc7o1A9DfyP92DfpbefqcEn19zs9P1oQgHT759ScPGsInUuHv9v8ud973eFfCrG2N/0z4JEuf0d/5qktPcX8P1YrefuejXfMT0e/V38b/vbWf+L9r/N8mnLD7v422z8/Xd8VvXzonBcge/f2zXV77/Vb/nnpd9PYHwRwgGgoqKVetlGqn9t5z52BKJx2UFaQ6oO80bWt3du4p6EfXjXBn+QD6l2qXv3PqcV3NPjSuBFXJqy+kJ2wxumueX1ZJnGqhlRArIVMy/8Qzc23RO8kL3WTHg1RSHQ+0DaolH7/5KDf+4KPPumOJX3ba1Mm2/TYT3COeRb9Dv0e/K74WUMsujCUMPrH1tIxORmbuvqNLVFWzrwRfCeNlP7nFzfO/X98dTj4fffw5eyQ2aJ6W0UnBf931mJvnE2efgPrBJ91hSmx0snHiFw61i8850Zpj808797puTQv07xDfxOa1N97u2r4p221lV/z0dve39J9RMv2jq3/vPqPfpO/Wq+h18sRx9urriR+Lrd+vfxt9v/97q9ZVfy/9DdTMQX8vrUev9z3w1CZ/m/rlq918fYf+HfWblNxp2vVXnuFqX+P/Fug/2S6v/X7rT9pu+vl59oe7H9skxoBcKpikXAGpQuuUk47qOtB7OnD7g/Fnj9rfFfaiz8yb/64rfAAMHF/warj82tvcNMWlClyNx9daLnrnQ/fqC3Atq9r2zUbUuvF4qY4HyaRzPNB36cZSfwIxc/dpwRyzVavWbnI5Xb8nfLzxtXhKONJNFrQuJYzarvDJjBJKXWXwieQO20/salYj2jZ/UqDtVoKv42B4UGLsl5fnXnjdbZvW5U8i4v/2okRp/LhR9tSzLwdTzG2P/y6fcKkZj6dEXZ/x3yeqsfb7we13PhJM3ZSaMChBGzt6s2BKJ/02/Q381QvRq/7dlZj7v7H+Nn5b9B3aDp20+ORO/6ba3iUfrXDj6F/9UV7rhE77iPYz8fsBECUFkZTrwHzLHx50wZroDNpTgfb4ky+6hECf0aXxo4/8VLdCCUD/UZKkGlslUr5G97tnHB/M7az9/MKxB9mp51zrEjVf26mkTElUuAD3zUTipXs8CMv0eKDaYyVxYdrGcBKu5hW+1l/JZ7i3FiUcibY9Eb8unaz4BFaD/kaarvmiRNPX0vfGipVrXI3yUYft2612Ur8r/rv1G/Vb9RsT0WdUc64mOH57D5x9uvt+zfMnKOJPEPTvnozWE/7bev5v469eeL5HnpWrO5PyRH8b/28jyfYlZF9/ldfaR3Q1Jzxf+wH/roiSvE/KFaz+Mqmv2UlFB2IlBO++v9S1v1StULiQU6GhwsMnAwCyRzWrSpDO/fYXkhauSsx9kpao1jyVTI8HnmpIezoeKKmrqalyNeIq6MNtxpVkhtuIa1zNU1S7rPdqLqGE3Nd094aaWPgE1g++eUs26KrD+d85waZsNyFhe/dMqYcbf+IVHvTv4pv+hG/8Q/6jvEahy/uk3BceyS5pJTNhizHuTvFwYaFCzxckmRToANITX+OpQlqFbiKKacWjalbFN8XwVAsa3wSkt8cDJcs9HQ+0zdp2n4irOYSSbSUIait9dSzpDo9fcNYJLmFWEi/hvpJ1qT3d5ivxJwD9Tcmy/tb+ZEi10OEaedG/g5YJ1zaHqc28PpOoOUiiz+pvob9dMmqKo/nxfzOdKOkkz+8jXqK/OXKvv8vr+Cs32g/SjTNgIOR1Uq6zYx2ow+0oPR34dRNTuJbN12aF2z4CGDhKxMLJleJRtV3imzT4mFW75H+/+pZL8FTjrCTP98ag+NYlcDW58FIdD7LlkFl7um3QNipZ9u209bpVLLEPj/sabF1C13b6ttT6rG9Hn4z+Pr7phfj1hntc0fv+qCHU307t9XXzpP5NJm21uZsebj+ubdG/R/xNep5OcnQioSY7+g7Rq24OVXKvkxudjOnfUYN61FBzF09/I53c+N/r26OrH2z/ffrt2g41WQi3H9ertj3czhy519/ldTg2xe8HQJTkbVKugNOBOL7doj+QK4gV/ApKP12XvnRndrJ2bJoef+MTgOzxNwj6mFWS7tuUK5FTjwk+ZvWqcU1XcqWmFSqkNU+XrPedOT2WMHb2idzT8aA3Eh0PtC06hujSeaKeS3xyEZ6nz6hmUJ/R9uimzd/+7NykCaNPaP2leiUZmqZ26Kph9r9L+uuKntanpFbboJOJn11xukui/br1t1Z3hqmSXjVN0d/K/w4l6N88+f+5z/h+3PXvqEGJV7hNuf72OrnxzVv0b6B/i/D3qVZUv1+Dbujz/+561bb3198GmRuI8jocm/p8qgcZAblStCEmeJ+SFtPQ3t5uLS0t1tjY2YtAXV2de82m915/yEZuNjwYAxBVy1essi2nHhyMpVZoca1kIlGPITrJICFElBHXKASZ7Oep1NfXu9eqqiorLy+3kpISKyoqckO6LrzwQisuLi6M3lcAYKD5G1LjBxJyAEAiJOUAAABAjpGUAwAAADlGUg4AAADkGEk5AAAAkCMNDQ1uiGRSXlRU7Hp6ARBdilHFarqIayD6iGsUgkz38/5WXV3thkgm5ZU1o6y1tS0YAxBFilHFarqIayD6iGsUgkz384ESyaS8tm6yNTQ2W3NLi3V0cAYORElHR4d76mJDQ7OL1XQR10B0EdcoBL3dzwdKJB8eJC1Nq21N/UJrWrcstt6OYCqAXNMlP9Uw6IBWXjksmJoe4hqIJuIahaAv+3ky2Xx4UGSTcgAAACDKeKInAAAAkEdIygEAAIAcIykHAAAAcoykHAAAAMgxknIAAAAgx0jKAQAAgBwjKQcAAAByjKQcAAAAyDGScgAAACDHSMoBAACAHCMpBwAAAHKMpBwAAADIMZJyAAAAIMdIygEAAIAcIykHAAAAcoykHAAAAMgxknIAAAAgx0jKAQAAgBwjKQcAAAByjKQcAAAAyLGiDTHB+5S0mIb29nZraWmxxsZGN72urs69AgAAoP+sXLnSXn/9dVu6dKnLx6Jo1113Dd5FT1FRkVVXV9vw4cOtoqIimNo39fX17rWqqsrKy8utpKTErUdDui688EIrLi4mKQcAAIg6JeRPPPGEe+8SuAySvoE0ffp0GzlyZDAWLR0dHdba2upyWOWvSqL7KptJOc1XAAAAIm7evHku0fNJHzKnxFc15KotX7NmTTA1OkjKAQAAIk5NVkjGs6OsrMyampqCseggKQcAAIg4Nb0YDEm5b+4c5UH094waknIAAAAgx0jKAQAAgBwjKQcAAAByjKQcAACgQKxatcoWL16cdptqLf/RRx8FY9n1l7/8xY444oiuQePeokWL7Bvf+IZ7LRQk5QAAABGX6IbF+KG5udkWLlxob775ZrdBSbVfxvPjmhe/vAYl44mWz+Zw+OGH23333dc1aDw8P9V61W/7KaecYi+88ELC+ekMUUNSDgAAkAf08JpJkybZNtts44bJkye7PrlTPSRn1KhRXctrGDdunFu+pqYmWKJ/3H///XbkkUduMmh6oSIpBwAAyEOqDVYzFT1tMh1aVjXkWl4PKfJWr15tCxYssGXLlgVT+i6+lvzggw+2j33sY3bggQcGS6SmZi3vv/++a4qTL0jKAQAA8tC6devcUyxLS0uDKaktX77cGhoaNqlZHzZsmKtFV616tukhPpdeeqm98sordtppp1llZWUwJzmdOPz2t791yz/44IP24osvBnMGN5JyAACAPNPe3u5quIcMGeJqzN99992ktd2qIf/ggw+ssbHRJkyY4D6XzVrxRHwy/tnPftb+9a9/uVrvOXPm9JhgKyH/3ve+ZzvuuKMdcMABdtZZZ9k111yTF81eSMoBAADyzIoVK1wyrlfdAKpkO1FttxJw3RyqR89rGdWSb7HFFtba2uoSeb1mm5qenHzyye6G0uuuu66rCcsll1zihl/+8pfBkhv5JF6J+yGHHOJ6ZhG1of/5z3/uasy/+MUvDureWkjKAQAA8oh6VFEzFCXXo0ePtqVLl7rEXMK9jqxfv97VPCuxDSfravKiGz6VpKvpSyY9lWjZnoaJEyfa73//ezfovZ8+Y8YMu/fee+3rX/968G2dNO/RRx9126j5hx12mOt95dxzz3VJuJrXXH/99XbGGWfYrbfe6mr8/XemGqKmKLZRaW2V/wG6HNLS0uJ+sNTV1blXAAAA9I+77747ZS8qomYoS5YscbXbSsj9zZpKvOvr623zzTd385Swjx071iXfnpJ2NWFRnhemPG/48OHBWM922mknGzlyZDCW2K9+9St76KGHgrFN1dbW2pe+9CX3m88++2yXuMfTb/rxj3/sEvhE83ui9vO9+Vw8/V1FN8fq30d/86KiIjek68ILL3T/FtSUAwAADHI+IZctt9yyW+8pSqrHjx+f9IZPn5CrVj3cPaJq0NW8JdsPD1IirRpvDb/73e/cCcTFF1/cNU016OrOsdCQlAMAAAxyvsmJhnANuKea3IqKimCsO7V+0Lz4rhOV2KtpSFtbm0v6c0U3f86ePbvboJr0efPm2emnn77JvMF60ydJOQAAQAFTMq7act802fM9uOgBRIkS/YGyyy67dNWipzOoD/TBiKQcAACggKmWXDd1qn20uk30g26izLRNOXqPGz0BAAAiLp0bPaNA/Yf3dKNnFOhGT7WZ7ytu9AQAAADyCEk5AAAAkGMk5QAAAECOkZQDAAAAOUZSDgAAEHG6EVB9hfuONxh6P+Syz/VUSMoBAAAibsyYMS6hRN+1tra6vtejhqQcAAAg4qZOndpVy0ty3jv62+khSQ0NDZHse51+ygEAAAaBlStXukfLL126NLJNMHbffffgXfSo7/DKykqrra3NWp/v2eynnKQcAAAA6AUeHgQAAADkEZJyAAAAIMd6nZRnUi0PAAAA5KNs5cRpJ+V+hb6djB+P6o0GAAAAQH/xOXB8buxfM5VRTXl4ZWqQ7m/8BAAAAApJW1uby4Vdzyl9TMgl4+YrPiHX3aWivh4BAACAQuJ7IlROHE7Me6tPSXlpaanrHnH9+vXBXAAAACC/KfdVDqxcOCdJuVYWTsrLysrce9WWq0P7pqYm2pgDAAAg76jJtnJd5bzKfZUDKxcOJ+V9SczTfniQp8U1KPlWWxoNra2t7lX6epYAAAAARJFPm1VDroRcrxr6kpT3+uFBfoX6sN+giooK99hSX3NOYg4AAIB84XNf5brKeZX7+qS8Lwl5WMY15Z6vMdegWnM/+GkAAABAvvCJt6vVDgY/rS8Jua8p73VSLv6jPhEPjwMAAAD5wife8Yl4XxJyyUpS7oW/goQcAAAA+SicgPc1GfeympTHIzEHAABAPslWEh6vX5NyAAAAAD3rde8rAAAAALKLpBwAAADIMZJyAAAAIMdIygEAAIAcIykHAAAAcoykHAAAAMgxknIAAAAgx0jKAQAAgBwjKQcAAAByjKQcAAAAyCmz/w9MeIXQzhO8lgAAAABJRU5ErkJggg==;" parent="1" vertex="1">
          <mxGeometry x="50" y="680" width="741" height="476" as="geometry" />
        </mxCell>
        <mxCell id="EAp16Kz88traqYo4ZruH-5" value="부서 변경 [ 곽진원 / 개발SI팀 ]&amp;nbsp;" style="rounded=0;whiteSpace=wrap;html=1;fontSize=21;fontColor=default;align=left;" parent="1" vertex="1">
          <mxGeometry x="80" y="710" width="330" height="30" as="geometry" />
        </mxCell>
        <mxCell id="EAp16Kz88traqYo4ZruH-6" value="&lt;font style=&quot;font-size: 18px;&quot;&gt;부서목록&lt;/font&gt;" style="rounded=0;whiteSpace=wrap;html=1;" parent="1" vertex="1">
          <mxGeometry x="50" y="20" width="120" height="40" as="geometry" />
        </mxCell>
        <mxCell id="EAp16Kz88traqYo4ZruH-7" value="" style="rounded=0;whiteSpace=wrap;html=1;" parent="1" vertex="1">
          <mxGeometry x="70" y="760" width="690" height="320" as="geometry" />
        </mxCell>
        <mxCell id="EAp16Kz88traqYo4ZruH-8" value="사용자ID" style="rounded=0;whiteSpace=wrap;html=1;" parent="1" vertex="1">
          <mxGeometry x="90" y="780" width="120" height="30" as="geometry" />
        </mxCell>
        <mxCell id="EAp16Kz88traqYo4ZruH-9" value="kjw2300" style="rounded=0;whiteSpace=wrap;html=1;" parent="1" vertex="1">
          <mxGeometry x="90" y="810" width="120" height="30" as="geometry" />
        </mxCell>
        <mxCell id="EAp16Kz88traqYo4ZruH-10" value="부서" style="rounded=0;whiteSpace=wrap;html=1;" parent="1" vertex="1">
          <mxGeometry x="230" y="780" width="120" height="30" as="geometry" />
        </mxCell>
        <mxCell id="EAp16Kz88traqYo4ZruH-11" value="개발/SI팀" style="rounded=0;whiteSpace=wrap;html=1;" parent="1" vertex="1">
          <mxGeometry x="230" y="810" width="100" height="30" as="geometry" />
        </mxCell>
        <mxCell id="EAp16Kz88traqYo4ZruH-12" value="변경이력" style="rounded=0;whiteSpace=wrap;html=1;" parent="1" vertex="1">
          <mxGeometry x="90" y="860" width="640" height="40" as="geometry" />
        </mxCell>
        <mxCell id="EAp16Kz88traqYo4ZruH-14" value="" style="rounded=0;whiteSpace=wrap;html=1;" parent="1" vertex="1">
          <mxGeometry x="90" y="900" width="640" height="160" as="geometry" />
        </mxCell>
        <mxCell id="EAp16Kz88traqYo4ZruH-15" value="사용자ID" style="rounded=0;whiteSpace=wrap;html=1;" parent="1" vertex="1">
          <mxGeometry x="210" y="900" width="120" height="30" as="geometry" />
        </mxCell>
        <mxCell id="EAp16Kz88traqYo4ZruH-16" value="부서ID" style="rounded=0;whiteSpace=wrap;html=1;" parent="1" vertex="1">
          <mxGeometry x="330" y="900" width="120" height="30" as="geometry" />
        </mxCell>
        <mxCell id="EAp16Kz88traqYo4ZruH-17" value="부서명" style="rounded=0;whiteSpace=wrap;html=1;" parent="1" vertex="1">
          <mxGeometry x="450" y="900" width="120" height="30" as="geometry" />
        </mxCell>
        <mxCell id="EAp16Kz88traqYo4ZruH-18" value="변경 일자" style="rounded=0;whiteSpace=wrap;html=1;" parent="1" vertex="1">
          <mxGeometry x="570" y="900" width="80" height="30" as="geometry" />
        </mxCell>
        <mxCell id="EAp16Kz88traqYo4ZruH-20" value="만료 일자" style="rounded=0;whiteSpace=wrap;html=1;" parent="1" vertex="1">
          <mxGeometry x="650" y="900" width="80" height="30" as="geometry" />
        </mxCell>
        <mxCell id="EAp16Kz88traqYo4ZruH-21" value="NO." style="rounded=0;whiteSpace=wrap;html=1;" parent="1" vertex="1">
          <mxGeometry x="90" y="900" width="120" height="30" as="geometry" />
        </mxCell>
        <mxCell id="EAp16Kz88traqYo4ZruH-24" value="" style="endArrow=classic;html=1;rounded=0;exitX=0.109;exitY=0.411;exitDx=0;exitDy=0;exitPerimeter=0;entryX=0;entryY=0.25;entryDx=0;entryDy=0;fillColor=#f8cecc;strokeColor=#b85450;" parent="1" source="EAp16Kz88traqYo4ZruH-1" target="EAp16Kz88traqYo4ZruH-5" edge="1">
          <mxGeometry width="50" height="50" relative="1" as="geometry">
            <mxPoint x="100" y="640" as="sourcePoint" />
            <mxPoint x="220" y="670" as="targetPoint" />
          </mxGeometry>
        </mxCell>
        <mxCell id="EAp16Kz88traqYo4ZruH-25" value="" style="rounded=0;whiteSpace=wrap;html=1;" parent="1" vertex="1">
          <mxGeometry x="330" y="810" width="20" height="30" as="geometry" />
        </mxCell>
      </root>
    </mxGraphModel>
  </diagram>
</mxfile>
